<svg width="664" height="918" viewBox="0 0 664 918" fill="none" xmlns="http://www.w3.org/2000/svg">
<mask id="path-1-inside-1_31_5" fill="white">
<path d="M664 586C664 769.359 515.359 918 332 918C148.641 918 -1.29946e-05 769.359 -2.90244e-05 586L-8.2702e-05 -28L664 -28.0001L664 586Z"/>
</mask>
<path d="M665 586C665 769.911 515.911 919 332 919C148.089 919 -1.00001 769.911 -1.00003 586L0.999971 586C0.999987 768.806 149.194 917 332 917C514.806 917 663 768.806 663 586L665 586ZM-8.2702e-05 -28L664 -28.0001L-8.2702e-05 -28ZM665 -28.0001L665 586C665 769.911 515.911 919 332 919L332 917C514.806 917 663 768.806 663 586L663 -28.0001L665 -28.0001ZM332 919C148.089 919 -1.00001 769.911 -1.00003 586L-1.00008 -28L0.999917 -28L0.999971 586C0.999987 768.806 149.194 917 332 917L332 919Z" fill="url(#paint0_linear_31_5)" fill-opacity="0.1" mask="url(#path-1-inside-1_31_5)"/>
<defs>
<linearGradient id="paint0_linear_31_5" x1="332" y1="918" x2="332" y2="-95.9256" gradientUnits="userSpaceOnUse">
<stop stop-color="#074B4F"/>
<stop offset="0.910514" stop-color="#074B4F" stop-opacity="0"/>
</linearGradient>
</defs>
</svg>
