<svg width="537" height="740" viewBox="0 0 537 740" fill="none" xmlns="http://www.w3.org/2000/svg">
<path d="M348 159.5C348 247.589 276.589 319 188.5 319C100.411 319 29 247.589 29 159.5C29 71.4106 100.411 0 188.5 0C276.589 0 348 71.4106 348 159.5Z" fill="url(#paint0_linear_94_440)" fill-opacity="0.05"/>
<path d="M537 34.5C537 48.031 526.031 59 512.5 59C498.969 59 488 48.031 488 34.5C488 20.969 498.969 10 512.5 10C526.031 10 537 20.969 537 34.5Z" fill="url(#paint1_linear_94_440)" fill-opacity="0.05"/>
<path d="M493 523C493 551.167 470.167 574 442 574C413.833 574 391 551.167 391 523C391 494.833 413.833 472 442 472C470.167 472 493 494.833 493 523Z" fill="url(#paint2_linear_94_440)" fill-opacity="0.05"/>
<path d="M83 698.5C83 721.42 64.4198 740 41.5 740C18.5802 740 0 721.42 0 698.5C0 675.58 18.5802 657 41.5 657C64.4198 657 83 675.58 83 698.5Z" fill="url(#paint3_linear_94_440)" fill-opacity="0.05"/>
<defs>
<linearGradient id="paint0_linear_94_440" x1="21.5" y1="7.10108e-06" x2="448" y2="404" gradientUnits="userSpaceOnUse">
<stop offset="0.0385383" stop-color="#074B4F"/>
<stop offset="0.703125" stop-color="#074B4F" stop-opacity="0"/>
</linearGradient>
<linearGradient id="paint1_linear_94_440" x1="486.848" y1="10" x2="552.361" y2="72.0564" gradientUnits="userSpaceOnUse">
<stop offset="0.0385383" stop-color="#074B4F"/>
<stop offset="0.703125" stop-color="#074B4F" stop-opacity="0"/>
</linearGradient>
<linearGradient id="paint2_linear_94_440" x1="388.602" y1="472" x2="524.975" y2="601.179" gradientUnits="userSpaceOnUse">
<stop offset="0.0385383" stop-color="#074B4F"/>
<stop offset="0.703125" stop-color="#074B4F" stop-opacity="0"/>
</linearGradient>
<linearGradient id="paint3_linear_94_440" x1="-1.95141" y1="657" x2="109.019" y2="762.116" gradientUnits="userSpaceOnUse">
<stop offset="0.0385383" stop-color="#074B4F"/>
<stop offset="0.703125" stop-color="#074B4F" stop-opacity="0"/>
</linearGradient>
</defs>
</svg>
