<svg width="519" height="629" viewBox="0 0 519 629" fill="none" xmlns="http://www.w3.org/2000/svg">
<path d="M319 469.5C319 557.589 247.589 629 159.5 629C71.4105 629 -4.32899e-05 557.589 -2.78879e-05 469.5C-1.24858e-05 381.411 71.4106 310 159.5 310C247.589 310 319 381.411 319 469.5Z" fill="url(#paint0_linear_308_2)" fill-opacity="0.08"/>
<path d="M164 55C164 85.3757 139.376 110 109 110C78.6243 110 54 85.3757 54 55C54 24.6243 78.6243 0 109 0C139.376 0 164 24.6243 164 55Z" fill="url(#paint1_linear_308_2)" fill-opacity="0.06"/>
<path d="M519 82.5C519 97.6878 506.688 110 491.5 110C476.312 110 464 97.6878 464 82.5C464 67.3122 476.312 55 491.5 55C506.688 55 519 67.3122 519 82.5Z" fill="url(#paint2_linear_308_2)" fill-opacity="0.09"/>
<path d="M464 310C464 324.359 452.359 336 438 336C423.641 336 412 324.359 412 310C412 295.641 423.641 284 438 284C452.359 284 464 295.641 464 310Z" fill="url(#paint3_linear_308_2)" fill-opacity="0.08"/>
<defs>
<linearGradient id="paint0_linear_308_2" x1="-7.50001" y1="310" x2="419" y2="714" gradientUnits="userSpaceOnUse">
<stop offset="0.0385383" stop-color="#074B4F"/>
<stop offset="0.703125" stop-color="#074B4F" stop-opacity="0"/>
</linearGradient>
<linearGradient id="paint1_linear_308_2" x1="51.4138" y1="2.44865e-06" x2="198.483" y2="139.31" gradientUnits="userSpaceOnUse">
<stop offset="0.0385383" stop-color="#074B4F"/>
<stop offset="0.703125" stop-color="#074B4F" stop-opacity="0"/>
</linearGradient>
<linearGradient id="paint2_linear_308_2" x1="462.707" y1="55" x2="536.241" y2="124.655" gradientUnits="userSpaceOnUse">
<stop offset="0.0385383" stop-color="#074B4F"/>
<stop offset="0.703125" stop-color="#074B4F" stop-opacity="0"/>
</linearGradient>
<linearGradient id="paint3_linear_308_2" x1="410.777" y1="284" x2="480.301" y2="349.856" gradientUnits="userSpaceOnUse">
<stop offset="0.0385383" stop-color="#074B4F"/>
<stop offset="0.703125" stop-color="#074B4F" stop-opacity="0"/>
</linearGradient>
</defs>
</svg>
