<svg width="9" height="12" viewBox="0 0 9 12" fill="none" xmlns="http://www.w3.org/2000/svg">
<path d="M1.59031 4.216C1.85698 3.14933 2.34231 2.30133 3.04631 1.672C3.75031 1.032 4.61431 0.712 5.63831 0.712C6.24631 0.712 6.73698 0.824 7.11031 1.048C7.49431 1.272 7.80365 1.52267 8.03831 1.8L7.12631 2.936C6.89165 2.68 6.64098 2.48267 6.37431 2.344C6.10765 2.20533 5.79831 2.136 5.44631 2.136C4.97698 2.136 4.57698 2.328 4.24631 2.712C3.92631 3.096 3.69165 3.59733 3.54231 4.216H6.99831L6.75831 5.64H3.35031C3.35031 5.69333 3.34498 5.752 3.33431 5.816C3.33431 5.86933 3.33431 5.94933 3.33431 6.056C3.33431 6.20533 3.35031 6.392 3.38231 6.616H6.67831L6.43831 8.024H3.65431C3.83565 8.536 4.08631 8.94133 4.40631 9.24C4.72631 9.528 5.12098 9.672 5.59031 9.672C5.82498 9.672 6.04898 9.656 6.26231 9.624C6.47565 9.58133 6.66765 9.53867 6.83831 9.496C7.01965 9.44267 7.16898 9.39467 7.28631 9.352C7.40365 9.30933 7.47831 9.28267 7.51031 9.272L7.91031 10.584C7.92098 10.584 7.85698 10.6107 7.71831 10.664C7.59031 10.7173 7.40365 10.776 7.15831 10.84C6.92365 10.904 6.64098 10.9627 6.31031 11.016C5.99031 11.0693 5.63831 11.096 5.25431 11.096C4.36898 11.096 3.60098 10.84 2.95031 10.328C2.31031 9.80533 1.85698 9.03733 1.59031 8.024H0.630313V6.616H1.39831C1.38765 6.53067 1.38231 6.44 1.38231 6.344C1.38231 6.248 1.38231 6.152 1.38231 6.056C1.38231 5.98133 1.38231 5.912 1.38231 5.848C1.38231 5.784 1.38765 5.71467 1.39831 5.64H0.630313V4.216H1.59031Z" fill="#074B4F" fill-opacity="0.5"/>
</svg>
