<svg width="329" height="31" viewBox="0 0 329 31" fill="none" xmlns="http://www.w3.org/2000/svg">
<path d="M15.11 24.61C14.37 24.61 13.54 24.46 12.62 24.16C11.7 23.86 10.75 23.5 9.77 23.08C8.81 22.66 7.87 22.26 6.95 21.88C6.45 22.42 5.91 22.84 5.33 23.14C4.75 23.44 4.13 23.59 3.47 23.59C2.77 23.59 2.17 23.43 1.67 23.11C1.15 22.81 0.76 22.44 0.5 22C0.22 21.56 0.0799999 21.16 0.0799999 20.8C0.0799999 20.4 0.26 20.05 0.62 19.75C0.98 19.45 1.62 19.3 2.54 19.3C3.08 19.3 3.67 19.36 4.31 19.48C4.97 19.58 5.64 19.72 6.32 19.9C6.78 19.1 7.2 18.16 7.58 17.08C7.98 16 8.37 14.87 8.75 13.69C9.13 12.49 9.51 11.32 9.89 10.18C8.89 9.84 8.12 9.37 7.58 8.77C7.04 8.15 6.77 7.53 6.77 6.91C6.77 6.51 6.87 6.12 7.07 5.74C7.27 5.34 7.56 5.01 7.94 4.75C8.32 4.47 8.77 4.33 9.29 4.33C9.03 4.65 8.86 5.01 8.78 5.41C8.72 5.81 8.69 6.13 8.69 6.37C8.69 7.03 8.84 7.59 9.14 8.05C9.44 8.51 9.81 8.87 10.25 9.13C10.63 7.99 11.03 6.9 11.45 5.86C11.89 4.8 12.37 3.87 12.89 3.07C13.43 2.25 14.02 1.6 14.66 1.12C15.32 0.639999 16.06 0.399999 16.88 0.399999C17.34 0.399999 17.82 0.499999 18.32 0.699999C18.84 0.879999 19.28 1.2 19.64 1.66C20.02 2.12 20.21 2.78 20.21 3.64C20.21 4.32 20.06 5.05 19.76 5.83C19.48 6.61 19.03 7.36 18.41 8.08C17.79 8.78 16.99 9.37 16.01 9.85C15.05 10.31 13.88 10.56 12.5 10.6C12.46 10.6 12.41 10.6 12.35 10.6C12.31 10.6 12.27 10.6 12.23 10.6C11.85 11.76 11.45 12.93 11.03 14.11C10.61 15.29 10.16 16.42 9.68 17.5C9.2 18.58 8.68 19.54 8.12 20.38C8.9 20.6 9.76 20.85 10.7 21.13C11.66 21.41 12.61 21.65 13.55 21.85C14.51 22.03 15.35 22.12 16.07 22.12C16.55 22.12 16.99 22.07 17.39 21.97C17.81 21.85 18.25 21.68 18.71 21.46C18.31 22.58 17.81 23.38 17.21 23.86C16.63 24.36 15.93 24.61 15.11 24.61ZM3.17 22.48C3.69 22.48 4.11 22.36 4.43 22.12C4.75 21.9 5.07 21.62 5.39 21.28C4.77 21.06 4.19 20.88 3.65 20.74C3.11 20.58 2.64 20.5 2.24 20.5C1.86 20.5 1.59 20.57 1.43 20.71C1.25 20.85 1.16 21.02 1.16 21.22C1.16 21.54 1.36 21.83 1.76 22.09C2.16 22.35 2.63 22.48 3.17 22.48ZM12.56 9.61C13.44 9.55 14.22 9.27 14.9 8.77C15.58 8.27 16.16 7.67 16.64 6.97C17.12 6.27 17.48 5.56 17.72 4.84C17.98 4.1 18.11 3.46 18.11 2.92C18.11 2.4 18.01 2.05 17.81 1.87C17.61 1.67 17.38 1.57 17.12 1.57C16.54 1.57 15.99 1.94 15.47 2.68C14.95 3.42 14.45 4.4 13.97 5.62C13.51 6.82 13.04 8.15 12.56 9.61ZM24.6905 23.41C24.0305 23.41 23.4605 23.19 22.9805 22.75C22.4805 22.31 22.2305 21.65 22.2305 20.77C22.2305 20.07 22.3905 19.31 22.7105 18.49C23.0305 17.67 23.4705 16.86 24.0305 16.06C24.5905 15.26 25.2305 14.54 25.9505 13.9C26.6705 13.24 27.4405 12.71 28.2605 12.31C29.0805 11.91 29.9005 11.71 30.7205 11.71C31.5805 11.71 32.3105 11.93 32.9105 12.37C33.5105 12.81 33.8105 13.39 33.8105 14.11C33.8105 14.65 33.6205 15.04 33.2405 15.28C32.8605 15.52 32.4105 15.59 31.8905 15.49C31.9305 15.31 31.9605 15.13 31.9805 14.95C32.0205 14.77 32.0405 14.58 32.0405 14.38C32.0405 13.98 31.9605 13.62 31.8005 13.3C31.6405 12.98 31.3005 12.82 30.7805 12.82C30.2205 12.82 29.6505 13.01 29.0705 13.39C28.4905 13.77 27.9305 14.27 27.3905 14.89C26.8705 15.49 26.4005 16.16 25.9805 16.9C25.5605 17.62 25.2305 18.33 24.9905 19.03C24.7505 19.73 24.6305 20.36 24.6305 20.92C24.6305 21.56 24.8605 21.88 25.3205 21.88C25.7805 21.88 26.2905 21.66 26.8505 21.22C27.4105 20.76 27.9705 20.19 28.5305 19.51C29.1105 18.83 29.6605 18.14 30.1805 17.44C30.7005 16.72 31.1505 16.11 31.5305 15.61C31.5905 15.51 31.6705 15.46 31.7705 15.46C31.8505 15.48 32.0005 15.53 32.2205 15.61C32.4605 15.67 32.6805 15.77 32.8805 15.91C33.0805 16.05 33.1805 16.23 33.1805 16.45C33.1805 16.65 33.0905 16.91 32.9105 17.23C32.7505 17.53 32.5505 17.87 32.3105 18.25C32.0905 18.61 31.8905 18.98 31.7105 19.36C31.5505 19.72 31.4705 20.07 31.4705 20.41C31.4705 20.67 31.5405 20.92 31.6805 21.16C31.8205 21.38 32.0505 21.49 32.3705 21.49C32.8505 21.49 33.5205 21.14 34.3805 20.44C35.2605 19.72 36.1505 18.51 37.0505 16.81L37.6205 17.38C37.1405 18.46 36.5605 19.42 35.8805 20.26C35.2205 21.08 34.5205 21.72 33.7805 22.18C33.0405 22.66 32.2905 22.9 31.5305 22.9C30.7105 22.9 30.1005 22.64 29.7005 22.12C29.3005 21.6 29.0805 21.04 29.0405 20.44C29.0405 20.4 29.0405 20.37 29.0405 20.35C29.0405 20.33 29.0405 20.31 29.0405 20.29C28.2405 21.25 27.5005 22.01 26.8205 22.57C26.1605 23.13 25.4505 23.41 24.6905 23.41ZM47.8536 30.4C47.6936 30.4 47.5236 30.35 47.3436 30.25C47.1636 30.17 47.0136 30.07 46.8936 29.95C46.7536 29.83 46.6736 29.73 46.6536 29.65C47.1536 28.19 47.5836 26.92 47.9436 25.84C48.2836 24.78 48.5736 23.77 48.8136 22.81C49.0536 21.87 49.2736 20.89 49.4736 19.87C49.6536 18.83 49.8336 17.65 50.0136 16.33C50.2136 14.99 50.4336 13.38 50.6736 11.5C50.7136 11.26 50.7636 11.09 50.8236 10.99C50.8836 10.87 51.0736 10.81 51.3936 10.81C52.0136 10.81 52.4636 10.98 52.7436 11.32C53.0236 11.64 53.1636 12 53.1636 12.4C53.1636 12.6 53.1236 12.95 53.0436 13.45C52.9836 13.95 52.8836 14.54 52.7436 15.22C53.1236 14.64 53.5536 14.09 54.0336 13.57C54.5336 13.05 55.0836 12.63 55.6836 12.31C56.2836 11.97 56.9336 11.8 57.6336 11.8C58.6136 11.8 59.4236 12.13 60.0636 12.79C60.7036 13.45 61.0236 14.32 61.0236 15.4C61.0236 16.18 60.8436 17.01 60.4836 17.89C60.1436 18.75 59.6536 19.57 59.0136 20.35C58.3736 21.11 57.6036 21.73 56.7036 22.21C55.8036 22.71 54.8136 22.96 53.7336 22.96C53.0936 22.96 52.5836 22.88 52.2036 22.72C51.8236 22.56 51.6336 22.38 51.6336 22.18C51.6336 22.04 51.7036 21.96 51.8436 21.94C52.0036 21.9 52.1736 21.88 52.3536 21.88C53.2936 21.86 54.1436 21.66 54.9036 21.28C55.6836 20.9 56.3536 20.41 56.9136 19.81C57.4736 19.19 57.9036 18.53 58.2036 17.83C58.5036 17.13 58.6536 16.44 58.6536 15.76C58.6536 15.16 58.5136 14.64 58.2336 14.2C57.9736 13.76 57.5536 13.54 56.9736 13.54C56.4736 13.54 55.9636 13.7 55.4436 14.02C54.9436 14.34 54.4736 14.75 54.0336 15.25C53.5936 15.73 53.2036 16.24 52.8636 16.78C52.5236 17.3 52.2636 17.76 52.0836 18.16C51.7036 19.48 51.3536 20.79 51.0336 22.09C50.7336 23.41 50.4436 24.63 50.1636 25.75C49.8836 26.87 49.6036 27.82 49.3236 28.6C49.0236 29.38 48.7036 29.91 48.3636 30.19C48.2036 30.33 48.0336 30.4 47.8536 30.4ZM66.3062 23.41C65.6462 23.41 65.0762 23.19 64.5962 22.75C64.0962 22.31 63.8462 21.65 63.8462 20.77C63.8462 20.07 64.0062 19.31 64.3262 18.49C64.6462 17.67 65.0862 16.86 65.6462 16.06C66.2062 15.26 66.8462 14.54 67.5662 13.9C68.2862 13.24 69.0562 12.71 69.8762 12.31C70.6962 11.91 71.5162 11.71 72.3362 11.71C73.1962 11.71 73.9262 11.93 74.5262 12.37C75.1262 12.81 75.4262 13.39 75.4262 14.11C75.4262 14.65 75.2362 15.04 74.8562 15.28C74.4762 15.52 74.0262 15.59 73.5062 15.49C73.5462 15.31 73.5762 15.13 73.5962 14.95C73.6362 14.77 73.6562 14.58 73.6562 14.38C73.6562 13.98 73.5762 13.62 73.4162 13.3C73.2562 12.98 72.9162 12.82 72.3962 12.82C71.8362 12.82 71.2662 13.01 70.6862 13.39C70.1062 13.77 69.5462 14.27 69.0062 14.89C68.4862 15.49 68.0162 16.16 67.5962 16.9C67.1762 17.62 66.8462 18.33 66.6062 19.03C66.3662 19.73 66.2462 20.36 66.2462 20.92C66.2462 21.56 66.4762 21.88 66.9362 21.88C67.3962 21.88 67.9062 21.66 68.4662 21.22C69.0262 20.76 69.5862 20.19 70.1462 19.51C70.7262 18.83 71.2762 18.14 71.7962 17.44C72.3162 16.72 72.7662 16.11 73.1462 15.61C73.2062 15.51 73.2862 15.46 73.3862 15.46C73.4662 15.48 73.6162 15.53 73.8362 15.61C74.0762 15.67 74.2962 15.77 74.4962 15.91C74.6962 16.05 74.7962 16.23 74.7962 16.45C74.7962 16.65 74.7062 16.91 74.5262 17.23C74.3662 17.53 74.1662 17.87 73.9262 18.25C73.7062 18.61 73.5062 18.98 73.3262 19.36C73.1662 19.72 73.0862 20.07 73.0862 20.41C73.0862 20.67 73.1562 20.92 73.2962 21.16C73.4362 21.38 73.6662 21.49 73.9862 21.49C74.4662 21.49 75.1362 21.14 75.9962 20.44C76.8762 19.72 77.7662 18.51 78.6662 16.81L79.2362 17.38C78.7562 18.46 78.1762 19.42 77.4962 20.26C76.8362 21.08 76.1362 21.72 75.3962 22.18C74.6562 22.66 73.9062 22.9 73.1462 22.9C72.3262 22.9 71.7162 22.64 71.3162 22.12C70.9162 21.6 70.6962 21.04 70.6562 20.44C70.6562 20.4 70.6562 20.37 70.6562 20.35C70.6562 20.33 70.6562 20.31 70.6562 20.29C69.8562 21.25 69.1162 22.01 68.4362 22.57C67.7762 23.13 67.0662 23.41 66.3062 23.41ZM86.2063 22.78C85.4663 22.78 84.8663 22.58 84.4062 22.18C83.9463 21.8 83.7163 21.28 83.7163 20.62C83.7163 20.06 83.8563 19.46 84.1363 18.82C84.4163 18.18 84.6963 17.55 84.9763 16.93C85.2763 16.31 85.4263 15.76 85.4263 15.28C85.4263 14.82 85.2763 14.44 84.9763 14.14C84.6763 13.82 84.3263 13.56 83.9263 13.36C83.4863 14.46 82.9863 15.53 82.4263 16.57C81.8863 17.59 81.4463 18.39 81.1063 18.97L80.6562 18.1C80.9363 17.58 81.3063 16.84 81.7663 15.88C82.2263 14.92 82.6663 13.85 83.0863 12.67C82.8863 12.47 82.7863 12.2 82.7863 11.86C82.7863 11.34 82.9463 10.85 83.2663 10.39C83.5863 9.93 83.8963 9.7 84.1963 9.7C84.4363 9.7 84.6063 9.84 84.7063 10.12C84.8263 10.38 84.8863 10.56 84.8863 10.66C84.8863 10.76 84.8363 10.94 84.7363 11.2C84.6563 11.46 84.5963 11.65 84.5563 11.77C84.5763 11.99 84.7463 12.21 85.0662 12.43C85.4063 12.63 85.7863 12.87 86.2063 13.15C86.6263 13.43 86.9963 13.78 87.3163 14.2C87.6363 14.62 87.7963 15.15 87.7963 15.79C87.7963 16.37 87.6663 16.96 87.4063 17.56C87.1463 18.16 86.8863 18.72 86.6263 19.24C86.3663 19.76 86.2363 20.21 86.2363 20.59C86.2363 20.87 86.3063 21.06 86.4463 21.16C86.6063 21.24 86.7863 21.28 86.9863 21.28C87.4663 21.28 87.9663 21.14 88.4863 20.86C89.0063 20.56 89.5163 20.18 90.0163 19.72C90.5163 19.26 90.9563 18.78 91.3363 18.28C91.7163 17.76 92.0063 17.29 92.2063 16.87L92.9263 17.41C92.5463 18.27 91.9963 19.12 91.2763 19.96C90.5563 20.78 89.7563 21.46 88.8763 22C87.9963 22.52 87.1063 22.78 86.2063 22.78ZM97.7347 23.32C96.4547 23.32 95.4647 22.97 94.7647 22.27C94.0847 21.59 93.7447 20.73 93.7447 19.69C93.7447 18.81 93.9647 17.88 94.4047 16.9C94.8647 15.9 95.4747 14.97 96.2347 14.11C96.9947 13.23 97.8347 12.52 98.7547 11.98C99.6747 11.44 100.595 11.17 101.515 11.17C102.035 11.17 102.525 11.31 102.985 11.59C103.465 11.85 103.705 12.38 103.705 13.18C103.705 13.94 103.485 14.65 103.045 15.31C102.605 15.97 102.015 16.56 101.275 17.08C100.535 17.6 99.7147 18.03 98.8147 18.37C97.9347 18.69 97.0447 18.9 96.1447 19C96.1247 19.08 96.1047 19.17 96.0847 19.27C96.0847 19.35 96.0847 19.49 96.0847 19.69C96.0847 19.79 96.0947 19.97 96.1147 20.23C96.1547 20.47 96.2447 20.73 96.3847 21.01C96.5247 21.29 96.7547 21.53 97.0747 21.73C97.3947 21.93 97.8347 22.03 98.3947 22.03C99.2347 22.03 100.075 21.8 100.915 21.34C101.775 20.86 102.575 20.23 103.315 19.45C104.075 18.67 104.705 17.8 105.205 16.84L105.805 17.32C105.265 18.52 104.565 19.57 103.705 20.47C102.865 21.37 101.925 22.07 100.885 22.57C99.8647 23.07 98.8147 23.32 97.7347 23.32ZM96.4747 17.89C96.9947 17.83 97.5747 17.65 98.2147 17.35C98.8547 17.05 99.4647 16.67 100.045 16.21C100.645 15.75 101.135 15.25 101.515 14.71C101.895 14.15 102.085 13.59 102.085 13.03C102.085 12.81 102.045 12.66 101.965 12.58C101.885 12.5 101.755 12.46 101.575 12.46C101.115 12.46 100.635 12.63 100.135 12.97C99.6347 13.29 99.1447 13.72 98.6647 14.26C98.1847 14.78 97.7547 15.36 97.3747 16C96.9947 16.64 96.6947 17.27 96.4747 17.89ZM117.289 22.6C116.509 22.6 115.909 22.4 115.489 22C115.089 21.62 114.889 21.13 114.889 20.53C114.889 20.13 114.959 19.71 115.099 19.27C115.239 18.81 115.379 18.35 115.519 17.89C115.659 17.43 115.729 16.99 115.729 16.57C115.729 16.13 115.619 15.83 115.399 15.67C115.199 15.49 114.959 15.4 114.679 15.4C114.079 15.4 113.459 15.65 112.819 16.15C112.199 16.63 111.589 17.24 110.989 17.98C110.409 18.72 109.859 19.49 109.339 20.29C108.819 21.09 108.369 21.81 107.989 22.45C107.609 22.45 107.249 22.38 106.909 22.24C106.569 22.12 106.279 21.9 106.039 21.58C106.059 21.48 106.179 21.18 106.399 20.68C106.599 20.16 106.829 19.55 107.089 18.85C107.349 18.13 107.579 17.38 107.779 16.6C107.979 15.82 108.079 15.11 108.079 14.47C108.219 14.31 108.429 14.15 108.709 13.99C109.009 13.83 109.319 13.75 109.639 13.75C110.339 13.75 110.689 14.05 110.689 14.65C110.689 14.89 110.639 15.25 110.539 15.73C110.459 16.19 110.339 16.72 110.179 17.32C110.699 16.62 111.269 15.96 111.889 15.34C112.509 14.72 113.149 14.22 113.809 13.84C114.489 13.44 115.169 13.24 115.849 13.24C116.709 13.24 117.339 13.53 117.739 14.11C118.159 14.69 118.369 15.33 118.369 16.03C118.369 16.63 118.269 17.19 118.069 17.71C117.869 18.23 117.669 18.72 117.469 19.18C117.289 19.64 117.199 20.09 117.199 20.53C117.199 20.85 117.269 21.08 117.409 21.22C117.569 21.34 117.739 21.4 117.919 21.4C118.399 21.4 118.899 21.17 119.419 20.71C119.939 20.25 120.429 19.67 120.889 18.97C121.369 18.25 121.789 17.53 122.149 16.81L122.659 17.23C122.239 18.21 121.759 19.11 121.219 19.93C120.699 20.73 120.109 21.38 119.449 21.88C118.809 22.36 118.089 22.6 117.289 22.6ZM126.909 23.38C125.969 23.38 125.219 23.12 124.659 22.6C124.119 22.08 123.849 21.3 123.849 20.26C123.849 19.68 123.929 18.99 124.089 18.19C124.249 17.39 124.459 16.54 124.719 15.64C124.999 14.72 125.299 13.82 125.619 12.94C125.439 12.88 125.269 12.83 125.109 12.79C124.969 12.73 124.779 12.65 124.539 12.55V11.62C124.899 11.68 125.169 11.74 125.349 11.8C125.529 11.84 125.749 11.88 126.009 11.92C126.569 10.5 127.169 9.19 127.809 7.99C128.449 6.79 129.069 5.83 129.669 5.11C130.269 4.39 130.789 4.03 131.229 4.03C131.449 4.03 131.649 4.11 131.829 4.27C132.009 4.43 132.099 4.61 132.099 4.81C132.099 5.05 131.979 5.44 131.739 5.98C131.499 6.52 131.189 7.13 130.809 7.81C130.449 8.47 130.079 9.13 129.699 9.79C129.339 10.45 129.009 11.02 128.709 11.5C128.429 11.98 128.259 12.29 128.199 12.43C128.719 12.51 129.199 12.58 129.639 12.64C130.079 12.68 130.519 12.7 130.959 12.7C131.539 12.7 132.139 12.66 132.759 12.58C133.379 12.5 134.069 12.39 134.829 12.25C135.369 10.81 135.969 9.4 136.629 8.02C137.289 6.62 137.959 5.37 138.639 4.27C139.339 3.15 139.999 2.26 140.619 1.6C141.259 0.919999 141.819 0.579999 142.299 0.579999C142.699 0.579999 143.009 0.809999 143.229 1.27C143.449 1.71 143.559 2.19 143.559 2.71C143.559 3.37 143.389 4.17 143.049 5.11C142.709 6.05 142.239 7.02 141.639 8.02C141.039 9.02 140.329 9.96 139.509 10.84C138.709 11.72 137.839 12.43 136.899 12.97C136.639 13.57 136.399 14.32 136.179 15.22C135.979 16.1 135.819 16.96 135.699 17.8C135.579 18.64 135.519 19.31 135.519 19.81C135.999 18.55 136.539 17.39 137.139 16.33C137.739 15.27 138.409 14.42 139.149 13.78C139.909 13.14 140.729 12.82 141.609 12.82C142.529 12.82 143.199 13.13 143.619 13.75C144.039 14.35 144.249 15.01 144.249 15.73C144.249 16.31 144.139 16.9 143.919 17.5C143.719 18.08 143.509 18.64 143.289 19.18C143.089 19.7 142.989 20.17 142.989 20.59C142.989 20.95 143.069 21.2 143.229 21.34C143.409 21.48 143.599 21.55 143.799 21.55C144.239 21.55 144.749 21.33 145.329 20.89C145.929 20.43 146.509 19.83 147.069 19.09C147.649 18.35 148.129 17.56 148.509 16.72L149.079 17.26C148.639 18.26 148.109 19.18 147.489 20.02C146.869 20.86 146.179 21.52 145.419 22C144.679 22.5 143.889 22.75 143.049 22.75C142.289 22.75 141.699 22.55 141.279 22.15C140.879 21.75 140.679 21.25 140.679 20.65C140.679 20.23 140.749 19.78 140.889 19.3C141.049 18.8 141.199 18.29 141.339 17.77C141.479 17.25 141.549 16.77 141.549 16.33C141.549 15.87 141.449 15.54 141.249 15.34C141.069 15.14 140.819 15.04 140.499 15.04C140.019 15.04 139.579 15.24 139.179 15.64C138.799 16.02 138.449 16.52 138.129 17.14C137.809 17.76 137.509 18.42 137.229 19.12C136.949 19.8 136.669 20.45 136.389 21.07C136.129 21.69 135.849 22.19 135.549 22.57C135.269 22.97 134.959 23.17 134.619 23.17C134.319 23.17 134.069 23.02 133.869 22.72C133.689 22.42 133.539 22.06 133.419 21.64C133.299 21.22 133.219 20.81 133.179 20.41C133.139 19.99 133.119 19.67 133.119 19.45C132.319 20.61 131.379 21.55 130.299 22.27C129.239 23.01 128.109 23.38 126.909 23.38ZM127.779 21.88C128.779 21.88 129.779 21.45 130.779 20.59C131.799 19.71 132.679 18.51 133.419 16.99C133.539 16.39 133.669 15.82 133.809 15.28C133.949 14.74 134.129 14.15 134.349 13.51C133.749 13.63 133.169 13.72 132.609 13.78C132.049 13.84 131.499 13.87 130.959 13.87C130.419 13.87 129.879 13.84 129.339 13.78C128.799 13.72 128.249 13.64 127.689 13.54C127.249 14.52 126.889 15.51 126.609 16.51C126.329 17.51 126.189 18.53 126.189 19.57C126.189 20.39 126.299 20.98 126.519 21.34C126.759 21.7 127.179 21.88 127.779 21.88ZM137.499 11.08C138.079 10.58 138.619 10.02 139.119 9.4C139.619 8.78 140.059 8.15 140.439 7.51C140.839 6.85 141.169 6.23 141.429 5.65C141.709 5.05 141.899 4.53 141.999 4.09C142.059 3.81 142.089 3.59 142.089 3.43C141.929 3.47 141.669 3.69 141.309 4.09C140.969 4.49 140.569 5.04 140.109 5.74C139.649 6.42 139.189 7.22 138.729 8.14C138.269 9.04 137.859 10.02 137.499 11.08ZM153.969 23.32C152.689 23.32 151.699 22.97 150.999 22.27C150.319 21.59 149.979 20.73 149.979 19.69C149.979 18.81 150.199 17.88 150.639 16.9C151.099 15.9 151.709 14.97 152.469 14.11C153.229 13.23 154.069 12.52 154.989 11.98C155.909 11.44 156.829 11.17 157.749 11.17C158.269 11.17 158.759 11.31 159.219 11.59C159.699 11.85 159.939 12.38 159.939 13.18C159.939 13.94 159.719 14.65 159.279 15.31C158.839 15.97 158.249 16.56 157.509 17.08C156.769 17.6 155.949 18.03 155.049 18.37C154.169 18.69 153.279 18.9 152.379 19C152.359 19.08 152.339 19.17 152.319 19.27C152.319 19.35 152.319 19.49 152.319 19.69C152.319 19.79 152.329 19.97 152.349 20.23C152.389 20.47 152.479 20.73 152.619 21.01C152.759 21.29 152.989 21.53 153.309 21.73C153.629 21.93 154.069 22.03 154.629 22.03C155.469 22.03 156.309 21.8 157.149 21.34C158.009 20.86 158.809 20.23 159.549 19.45C160.309 18.67 160.939 17.8 161.439 16.84L162.039 17.32C161.499 18.52 160.799 19.57 159.939 20.47C159.099 21.37 158.159 22.07 157.119 22.57C156.099 23.07 155.049 23.32 153.969 23.32ZM152.709 17.89C153.229 17.83 153.809 17.65 154.449 17.35C155.089 17.05 155.699 16.67 156.279 16.21C156.879 15.75 157.369 15.25 157.749 14.71C158.129 14.15 158.319 13.59 158.319 13.03C158.319 12.81 158.279 12.66 158.199 12.58C158.119 12.5 157.989 12.46 157.809 12.46C157.349 12.46 156.869 12.63 156.369 12.97C155.869 13.29 155.379 13.72 154.899 14.26C154.419 14.78 153.989 15.36 153.609 16C153.229 16.64 152.929 17.27 152.709 17.89ZM159.879 9.46C159.419 8.9 158.919 8.37 158.379 7.87C157.859 7.35 157.189 6.78 156.369 6.16C156.409 5.76 156.519 5.47 156.699 5.29C156.899 5.09 157.109 4.99 157.329 4.99C157.629 4.99 157.969 5.13 158.349 5.41C158.729 5.67 159.089 6 159.429 6.4C159.789 6.8 160.079 7.19 160.299 7.57C160.519 7.93 160.629 8.2 160.629 8.38C160.629 8.52 160.559 8.71 160.419 8.95C160.299 9.19 160.119 9.36 159.879 9.46ZM166.924 23.53C165.924 23.53 165.114 23.32 164.494 22.9C163.894 22.5 163.464 21.99 163.204 21.37C162.944 20.73 162.814 20.08 162.814 19.42C162.814 18.84 162.894 18.39 163.054 18.07C163.214 17.75 163.414 17.52 163.654 17.38C163.894 17.22 164.114 17.1 164.314 17.02C164.534 16.94 164.694 16.85 164.794 16.75C165.294 16.23 165.804 15.63 166.324 14.95C166.864 14.25 167.324 13.48 167.704 12.64V12.34C167.704 11.54 167.834 10.98 168.094 10.66C168.374 10.32 168.694 10.15 169.054 10.15C169.294 10.15 169.464 10.21 169.564 10.33C169.684 10.45 169.754 10.59 169.774 10.75C169.774 10.87 169.744 11.01 169.684 11.17C169.644 11.33 169.624 11.55 169.624 11.83C169.624 12.43 169.764 13.12 170.044 13.9C170.344 14.66 170.634 15.47 170.914 16.33C171.214 17.19 171.364 18.07 171.364 18.97C171.364 19.21 171.354 19.43 171.334 19.63C171.314 19.83 171.284 20.02 171.244 20.2C171.864 20.04 172.474 19.7 173.074 19.18C173.674 18.64 174.244 17.85 174.784 16.81L175.144 17.08C174.764 18.22 174.214 19.14 173.494 19.84C172.774 20.52 171.934 20.94 170.974 21.1C170.654 21.92 170.124 22.53 169.384 22.93C168.664 23.33 167.844 23.53 166.924 23.53ZM166.714 22.21C167.114 22.21 167.484 22.11 167.824 21.91C168.164 21.71 168.434 21.42 168.634 21.04C167.814 20.86 167.074 20.54 166.414 20.08C165.754 19.62 165.244 19.15 164.884 18.67C164.604 18.73 164.464 19 164.464 19.48C164.464 20.14 164.654 20.76 165.034 21.34C165.414 21.92 165.974 22.21 166.714 22.21ZM168.874 20.14C168.914 20 168.934 19.84 168.934 19.66C168.954 19.46 168.964 19.31 168.964 19.21C168.944 18.31 168.824 17.42 168.604 16.54C168.384 15.66 168.164 14.76 167.944 13.84C167.584 14.46 167.164 15.13 166.684 15.85C166.204 16.57 165.754 17.15 165.334 17.59C165.654 18.13 166.124 18.64 166.744 19.12C167.364 19.6 168.074 19.94 168.874 20.14ZM180.112 23.32C178.832 23.32 177.842 22.97 177.142 22.27C176.462 21.59 176.122 20.73 176.122 19.69C176.122 18.81 176.342 17.88 176.782 16.9C177.242 15.9 177.852 14.97 178.612 14.11C179.372 13.23 180.212 12.52 181.132 11.98C182.052 11.44 182.972 11.17 183.892 11.17C184.412 11.17 184.902 11.31 185.362 11.59C185.842 11.85 186.082 12.38 186.082 13.18C186.082 13.94 185.862 14.65 185.422 15.31C184.982 15.97 184.392 16.56 183.652 17.08C182.912 17.6 182.092 18.03 181.192 18.37C180.312 18.69 179.422 18.9 178.522 19C178.502 19.08 178.482 19.17 178.462 19.27C178.462 19.35 178.462 19.49 178.462 19.69C178.462 19.79 178.472 19.97 178.492 20.23C178.532 20.47 178.622 20.73 178.762 21.01C178.902 21.29 179.132 21.53 179.452 21.73C179.772 21.93 180.212 22.03 180.772 22.03C181.612 22.03 182.452 21.8 183.292 21.34C184.152 20.86 184.952 20.23 185.692 19.45C186.452 18.67 187.082 17.8 187.582 16.84L188.182 17.32C187.642 18.52 186.942 19.57 186.082 20.47C185.242 21.37 184.302 22.07 183.262 22.57C182.242 23.07 181.192 23.32 180.112 23.32ZM178.852 17.89C179.372 17.83 179.952 17.65 180.592 17.35C181.232 17.05 181.842 16.67 182.422 16.21C183.022 15.75 183.512 15.25 183.892 14.71C184.272 14.15 184.462 13.59 184.462 13.03C184.462 12.81 184.422 12.66 184.342 12.58C184.262 12.5 184.132 12.46 183.952 12.46C183.492 12.46 183.012 12.63 182.512 12.97C182.012 13.29 181.522 13.72 181.042 14.26C180.562 14.78 180.132 15.36 179.752 16C179.372 16.64 179.072 17.27 178.852 17.89ZM203.529 23.32C202.249 23.32 201.259 22.97 200.559 22.27C199.879 21.59 199.539 20.73 199.539 19.69C199.539 18.81 199.759 17.88 200.199 16.9C200.659 15.9 201.269 14.97 202.029 14.11C202.789 13.23 203.629 12.52 204.549 11.98C205.469 11.44 206.389 11.17 207.309 11.17C207.829 11.17 208.319 11.31 208.779 11.59C209.259 11.85 209.499 12.38 209.499 13.18C209.499 13.94 209.279 14.65 208.839 15.31C208.399 15.97 207.809 16.56 207.069 17.08C206.329 17.6 205.509 18.03 204.609 18.37C203.729 18.69 202.839 18.9 201.939 19C201.919 19.08 201.899 19.17 201.879 19.27C201.879 19.35 201.879 19.49 201.879 19.69C201.879 19.79 201.889 19.97 201.909 20.23C201.949 20.47 202.039 20.73 202.179 21.01C202.319 21.29 202.549 21.53 202.869 21.73C203.189 21.93 203.629 22.03 204.189 22.03C205.029 22.03 205.869 21.8 206.709 21.34C207.569 20.86 208.369 20.23 209.109 19.45C209.869 18.67 210.499 17.8 210.999 16.84L211.599 17.32C211.059 18.52 210.359 19.57 209.499 20.47C208.659 21.37 207.719 22.07 206.679 22.57C205.659 23.07 204.609 23.32 203.529 23.32ZM202.269 17.89C202.789 17.83 203.369 17.65 204.009 17.35C204.649 17.05 205.259 16.67 205.839 16.21C206.439 15.75 206.929 15.25 207.309 14.71C207.689 14.15 207.879 13.59 207.879 13.03C207.879 12.81 207.839 12.66 207.759 12.58C207.679 12.5 207.549 12.46 207.369 12.46C206.909 12.46 206.429 12.63 205.929 12.97C205.429 13.29 204.939 13.72 204.459 14.26C203.979 14.78 203.549 15.36 203.169 16C202.789 16.64 202.489 17.27 202.269 17.89ZM223.084 22.6C222.304 22.6 221.704 22.4 221.284 22C220.884 21.62 220.684 21.13 220.684 20.53C220.684 20.13 220.754 19.71 220.894 19.27C221.034 18.81 221.174 18.35 221.314 17.89C221.454 17.43 221.524 16.99 221.524 16.57C221.524 16.13 221.414 15.83 221.194 15.67C220.994 15.49 220.754 15.4 220.474 15.4C219.874 15.4 219.254 15.65 218.614 16.15C217.994 16.63 217.384 17.24 216.784 17.98C216.204 18.72 215.654 19.49 215.134 20.29C214.614 21.09 214.164 21.81 213.784 22.45C213.404 22.45 213.044 22.38 212.704 22.24C212.364 22.12 212.074 21.9 211.834 21.58C211.854 21.48 211.974 21.18 212.194 20.68C212.394 20.16 212.624 19.55 212.884 18.85C213.144 18.13 213.374 17.38 213.574 16.6C213.774 15.82 213.874 15.11 213.874 14.47C214.014 14.31 214.224 14.15 214.504 13.99C214.804 13.83 215.114 13.75 215.434 13.75C216.134 13.75 216.484 14.05 216.484 14.65C216.484 14.89 216.434 15.25 216.334 15.73C216.254 16.19 216.134 16.72 215.974 17.32C216.494 16.62 217.064 15.96 217.684 15.34C218.304 14.72 218.944 14.22 219.604 13.84C220.284 13.44 220.964 13.24 221.644 13.24C222.504 13.24 223.134 13.53 223.534 14.11C223.954 14.69 224.164 15.33 224.164 16.03C224.164 16.63 224.064 17.19 223.864 17.71C223.664 18.23 223.464 18.72 223.264 19.18C223.084 19.64 222.994 20.09 222.994 20.53C222.994 20.85 223.064 21.08 223.204 21.22C223.364 21.34 223.534 21.4 223.714 21.4C224.194 21.4 224.694 21.17 225.214 20.71C225.734 20.25 226.224 19.67 226.684 18.97C227.164 18.25 227.584 17.53 227.944 16.81L228.454 17.23C228.034 18.21 227.554 19.11 227.014 19.93C226.494 20.73 225.904 21.38 225.244 21.88C224.604 22.36 223.884 22.6 223.084 22.6ZM233.244 23.68C232.204 23.68 231.344 23.35 230.664 22.69C230.004 22.05 229.674 21.06 229.674 19.72C229.674 18.74 229.864 17.78 230.244 16.84C230.624 15.9 231.134 15.06 231.774 14.32C232.414 13.56 233.124 12.96 233.904 12.52C234.704 12.08 235.514 11.86 236.334 11.86C237.174 11.86 237.774 12.07 238.134 12.49C238.514 12.91 238.704 13.4 238.704 13.96C238.704 14.52 238.564 15.07 238.284 15.61C238.024 16.13 237.664 16.39 237.204 16.39C236.824 16.39 236.514 16.2 236.274 15.82C236.474 15.68 236.684 15.42 236.904 15.04C237.124 14.66 237.234 14.17 237.234 13.57C237.234 13.41 237.194 13.29 237.114 13.21C237.034 13.11 236.884 13.06 236.664 13.06C236.164 13.06 235.634 13.29 235.074 13.75C234.534 14.19 234.024 14.77 233.544 15.49C233.084 16.19 232.704 16.94 232.404 17.74C232.124 18.52 231.984 19.24 231.984 19.9C231.984 20.46 232.124 20.98 232.404 21.46C232.704 21.92 233.274 22.15 234.114 22.15C234.874 22.15 235.664 21.93 236.484 21.49C237.304 21.05 238.074 20.44 238.794 19.66C239.514 18.86 240.094 17.91 240.534 16.81L241.134 17.35C240.654 18.57 239.984 19.66 239.124 20.62C238.284 21.56 237.344 22.3 236.304 22.84C235.284 23.4 234.264 23.68 233.244 23.68ZM243.924 23.14C243.484 23.14 243.164 22.8 242.964 22.12C242.784 21.44 242.694 20.65 242.694 19.75C242.694 18.83 242.844 17.72 243.144 16.42C243.464 15.12 243.884 13.75 244.404 12.31C244.944 10.87 245.534 9.46 246.174 8.08C246.834 6.7 247.504 5.45 248.184 4.33C248.884 3.19 249.544 2.28 250.164 1.6C250.804 0.919999 251.364 0.579999 251.844 0.579999C252.264 0.579999 252.584 0.809999 252.804 1.27C253.024 1.73 253.134 2.21 253.134 2.71C253.134 3.25 253.004 3.92 252.744 4.72C252.504 5.5 252.164 6.34 251.724 7.24C251.284 8.14 250.764 9.03 250.164 9.91C249.584 10.77 248.944 11.56 248.244 12.28C247.564 13 246.854 13.58 246.114 14.02C245.854 14.7 245.644 15.34 245.484 15.94C245.344 16.52 245.244 17.07 245.184 17.59C245.124 18.11 245.094 18.62 245.094 19.12C245.094 19.22 245.094 19.33 245.094 19.45C245.114 19.55 245.124 19.65 245.124 19.75C245.204 19.63 245.334 19.32 245.514 18.82C245.694 18.32 245.934 17.74 246.234 17.08C246.554 16.4 246.944 15.74 247.404 15.1C247.864 14.44 248.404 13.9 249.024 13.48C249.644 13.04 250.354 12.82 251.154 12.82C251.834 12.82 252.364 12.98 252.744 13.3C253.124 13.6 253.394 13.98 253.554 14.44C253.714 14.88 253.794 15.33 253.794 15.79C253.794 16.43 253.684 17.03 253.464 17.59C253.264 18.15 253.054 18.68 252.834 19.18C252.634 19.66 252.534 20.12 252.534 20.56C252.534 20.92 252.614 21.17 252.774 21.31C252.934 21.45 253.124 21.52 253.344 21.52C253.784 21.52 254.294 21.3 254.874 20.86C255.474 20.42 256.064 19.84 256.644 19.12C257.244 18.38 257.754 17.57 258.174 16.69L258.654 17.2C258.194 18.2 257.654 19.12 257.034 19.96C256.414 20.8 255.734 21.47 254.994 21.97C254.254 22.47 253.454 22.72 252.594 22.72C251.834 22.72 251.254 22.52 250.854 22.12C250.454 21.72 250.254 21.22 250.254 20.62C250.254 20.2 250.324 19.74 250.464 19.24C250.624 18.72 250.774 18.2 250.914 17.68C251.054 17.16 251.124 16.69 251.124 16.27C251.124 15.79 251.014 15.46 250.794 15.28C250.594 15.1 250.344 15.01 250.044 15.01C249.544 15.01 249.094 15.21 248.694 15.61C248.294 15.99 247.934 16.49 247.614 17.11C247.294 17.73 246.994 18.39 246.714 19.09C246.434 19.77 246.154 20.42 245.874 21.04C245.594 21.66 245.294 22.16 244.974 22.54C244.674 22.94 244.324 23.14 243.924 23.14ZM246.744 12.1C247.264 11.64 247.764 11.09 248.244 10.45C248.724 9.81 249.164 9.15 249.564 8.47C249.984 7.77 250.344 7.1 250.644 6.46C250.964 5.8 251.214 5.21 251.394 4.69C251.574 4.17 251.674 3.77 251.694 3.49C251.694 3.47 251.694 3.46 251.694 3.46C251.694 3.44 251.694 3.42 251.694 3.4C251.574 3.4 251.314 3.65 250.914 4.15C250.534 4.63 250.084 5.29 249.564 6.13C249.064 6.95 248.554 7.88 248.034 8.92C247.534 9.96 247.104 11.02 246.744 12.1ZM261.748 23.41C261.088 23.41 260.518 23.19 260.038 22.75C259.538 22.31 259.288 21.65 259.288 20.77C259.288 20.07 259.448 19.31 259.768 18.49C260.088 17.67 260.528 16.86 261.088 16.06C261.648 15.26 262.288 14.54 263.008 13.9C263.728 13.24 264.498 12.71 265.318 12.31C266.138 11.91 266.958 11.71 267.778 11.71C268.638 11.71 269.368 11.93 269.968 12.37C270.568 12.81 270.868 13.39 270.868 14.11C270.868 14.65 270.678 15.04 270.298 15.28C269.918 15.52 269.468 15.59 268.948 15.49C268.988 15.31 269.018 15.13 269.038 14.95C269.078 14.77 269.098 14.58 269.098 14.38C269.098 13.98 269.018 13.62 268.858 13.3C268.698 12.98 268.358 12.82 267.838 12.82C267.278 12.82 266.708 13.01 266.128 13.39C265.548 13.77 264.988 14.27 264.448 14.89C263.928 15.49 263.458 16.16 263.038 16.9C262.618 17.62 262.288 18.33 262.048 19.03C261.808 19.73 261.688 20.36 261.688 20.92C261.688 21.56 261.918 21.88 262.378 21.88C262.838 21.88 263.348 21.66 263.908 21.22C264.468 20.76 265.028 20.19 265.588 19.51C266.168 18.83 266.718 18.14 267.238 17.44C267.758 16.72 268.208 16.11 268.588 15.61C268.648 15.51 268.728 15.46 268.828 15.46C268.908 15.48 269.058 15.53 269.278 15.61C269.518 15.67 269.738 15.77 269.938 15.91C270.138 16.05 270.238 16.23 270.238 16.45C270.238 16.65 270.148 16.91 269.968 17.23C269.808 17.53 269.608 17.87 269.368 18.25C269.148 18.61 268.948 18.98 268.768 19.36C268.608 19.72 268.528 20.07 268.528 20.41C268.528 20.67 268.598 20.92 268.738 21.16C268.878 21.38 269.108 21.49 269.428 21.49C269.908 21.49 270.578 21.14 271.438 20.44C272.318 19.72 273.208 18.51 274.108 16.81L274.678 17.38C274.198 18.46 273.618 19.42 272.938 20.26C272.278 21.08 271.578 21.72 270.838 22.18C270.098 22.66 269.348 22.9 268.588 22.9C267.768 22.9 267.158 22.64 266.758 22.12C266.358 21.6 266.138 21.04 266.098 20.44C266.098 20.4 266.098 20.37 266.098 20.35C266.098 20.33 266.098 20.31 266.098 20.29C265.298 21.25 264.558 22.01 263.878 22.57C263.218 23.13 262.508 23.41 261.748 23.41ZM286.208 22.6C285.428 22.6 284.828 22.4 284.408 22C284.008 21.62 283.808 21.13 283.808 20.53C283.808 20.13 283.878 19.71 284.018 19.27C284.158 18.81 284.298 18.35 284.438 17.89C284.578 17.43 284.648 16.99 284.648 16.57C284.648 16.13 284.538 15.83 284.318 15.67C284.118 15.49 283.878 15.4 283.598 15.4C282.998 15.4 282.378 15.65 281.738 16.15C281.118 16.63 280.508 17.24 279.908 17.98C279.328 18.72 278.778 19.49 278.258 20.29C277.738 21.09 277.288 21.81 276.908 22.45C276.528 22.45 276.168 22.38 275.828 22.24C275.488 22.12 275.198 21.9 274.958 21.58C274.978 21.48 275.098 21.18 275.318 20.68C275.518 20.16 275.748 19.55 276.008 18.85C276.268 18.13 276.498 17.38 276.698 16.6C276.898 15.82 276.998 15.11 276.998 14.47C277.138 14.31 277.348 14.15 277.628 13.99C277.928 13.83 278.238 13.75 278.558 13.75C279.258 13.75 279.608 14.05 279.608 14.65C279.608 14.89 279.558 15.25 279.458 15.73C279.378 16.19 279.258 16.72 279.098 17.32C279.618 16.62 280.188 15.96 280.808 15.34C281.428 14.72 282.068 14.22 282.728 13.84C283.408 13.44 284.088 13.24 284.768 13.24C285.628 13.24 286.258 13.53 286.658 14.11C287.078 14.69 287.288 15.33 287.288 16.03C287.288 16.63 287.188 17.19 286.988 17.71C286.788 18.23 286.588 18.72 286.388 19.18C286.208 19.64 286.118 20.09 286.118 20.53C286.118 20.85 286.188 21.08 286.328 21.22C286.488 21.34 286.658 21.4 286.838 21.4C287.318 21.4 287.818 21.17 288.338 20.71C288.858 20.25 289.348 19.67 289.808 18.97C290.288 18.25 290.708 17.53 291.068 16.81L291.578 17.23C291.158 18.21 290.678 19.11 290.138 19.93C289.618 20.73 289.028 21.38 288.368 21.88C287.728 22.36 287.008 22.6 286.208 22.6ZM295.708 23.38C294.828 23.38 294.118 23.12 293.578 22.6C293.038 22.08 292.768 21.29 292.768 20.23C292.768 19.41 292.918 18.39 293.218 17.17C293.538 15.95 293.938 14.69 294.418 13.39C294.278 13.35 294.108 13.32 293.908 13.3C293.728 13.26 293.548 13.2 293.368 13.12V12.19C293.688 12.23 293.948 12.26 294.148 12.28C294.368 12.3 294.588 12.32 294.808 12.34C295.228 11.28 295.678 10.26 296.158 9.28C296.658 8.28 297.148 7.39 297.628 6.61C298.128 5.83 298.598 5.22 299.038 4.78C299.478 4.32 299.868 4.09 300.208 4.09C300.408 4.09 300.598 4.17 300.778 4.33C300.958 4.47 301.048 4.68 301.048 4.96C301.048 5.36 300.838 5.93 300.418 6.67C300.018 7.41 299.518 8.28 298.918 9.28C298.318 10.26 297.738 11.31 297.178 12.43C297.338 12.43 297.498 12.43 297.658 12.43C297.818 12.43 297.968 12.43 298.108 12.43C298.988 12.43 299.778 12.42 300.478 12.4C301.198 12.36 301.928 12.3 302.668 12.22V13.21C301.568 13.31 300.558 13.39 299.638 13.45C298.718 13.51 297.838 13.55 296.998 13.57C296.938 13.57 296.878 13.57 296.818 13.57C296.758 13.57 296.698 13.57 296.638 13.57C296.218 14.55 295.848 15.56 295.528 16.6C295.228 17.62 295.078 18.62 295.078 19.6C295.078 20.42 295.208 21 295.468 21.34C295.728 21.68 296.138 21.85 296.698 21.85C297.698 21.85 298.718 21.4 299.758 20.5C300.818 19.58 301.738 18.34 302.518 16.78L302.938 17.08C302.418 18.26 301.768 19.33 300.988 20.29C300.228 21.25 299.398 22 298.498 22.54C297.598 23.1 296.668 23.38 295.708 23.38ZM307.8 23.32C306.52 23.32 305.53 22.97 304.83 22.27C304.15 21.59 303.81 20.73 303.81 19.69C303.81 18.81 304.03 17.88 304.47 16.9C304.93 15.9 305.54 14.97 306.3 14.11C307.06 13.23 307.9 12.52 308.82 11.98C309.74 11.44 310.66 11.17 311.58 11.17C312.1 11.17 312.59 11.31 313.05 11.59C313.53 11.85 313.77 12.38 313.77 13.18C313.77 13.94 313.55 14.65 313.11 15.31C312.67 15.97 312.08 16.56 311.34 17.08C310.6 17.6 309.78 18.03 308.88 18.37C308 18.69 307.11 18.9 306.21 19C306.19 19.08 306.17 19.17 306.15 19.27C306.15 19.35 306.15 19.49 306.15 19.69C306.15 19.79 306.16 19.97 306.18 20.23C306.22 20.47 306.31 20.73 306.45 21.01C306.59 21.29 306.82 21.53 307.14 21.73C307.46 21.93 307.9 22.03 308.46 22.03C309.3 22.03 310.14 21.8 310.98 21.34C311.84 20.86 312.64 20.23 313.38 19.45C314.14 18.67 314.77 17.8 315.27 16.84L315.87 17.32C315.33 18.52 314.63 19.57 313.77 20.47C312.93 21.37 311.99 22.07 310.95 22.57C309.93 23.07 308.88 23.32 307.8 23.32ZM306.54 17.89C307.06 17.83 307.64 17.65 308.28 17.35C308.92 17.05 309.53 16.67 310.11 16.21C310.71 15.75 311.2 15.25 311.58 14.71C311.96 14.15 312.15 13.59 312.15 13.03C312.15 12.81 312.11 12.66 312.03 12.58C311.95 12.5 311.82 12.46 311.64 12.46C311.18 12.46 310.7 12.63 310.2 12.97C309.7 13.29 309.21 13.72 308.73 14.26C308.25 14.78 307.82 15.36 307.44 16C307.06 16.64 306.76 17.27 306.54 17.89ZM312.96 9.43C312.7 9.33 312.51 9.17 312.39 8.95C312.29 8.71 312.24 8.54 312.24 8.44C312.24 8.28 312.34 8.02 312.54 7.66C312.74 7.28 313 6.89 313.32 6.49C313.64 6.07 313.97 5.72 314.31 5.44C314.67 5.14 315.01 4.99 315.33 4.99C315.55 4.99 315.74 5.07 315.9 5.23C316.08 5.37 316.19 5.64 316.23 6.04C315.53 6.72 314.91 7.32 314.37 7.84C313.85 8.34 313.38 8.87 312.96 9.43ZM320.725 23.32C319.445 23.32 318.455 22.97 317.755 22.27C317.075 21.59 316.735 20.73 316.735 19.69C316.735 18.81 316.955 17.88 317.395 16.9C317.855 15.9 318.465 14.97 319.225 14.11C319.985 13.23 320.825 12.52 321.745 11.98C322.665 11.44 323.585 11.17 324.505 11.17C325.025 11.17 325.515 11.31 325.975 11.59C326.455 11.85 326.695 12.38 326.695 13.18C326.695 13.94 326.475 14.65 326.035 15.31C325.595 15.97 325.005 16.56 324.265 17.08C323.525 17.6 322.705 18.03 321.805 18.37C320.925 18.69 320.035 18.9 319.135 19C319.115 19.08 319.095 19.17 319.075 19.27C319.075 19.35 319.075 19.49 319.075 19.69C319.075 19.79 319.085 19.97 319.105 20.23C319.145 20.47 319.235 20.73 319.375 21.01C319.515 21.29 319.745 21.53 320.065 21.73C320.385 21.93 320.825 22.03 321.385 22.03C322.225 22.03 323.065 21.8 323.905 21.34C324.765 20.86 325.565 20.23 326.305 19.45C327.065 18.67 327.695 17.8 328.195 16.84L328.795 17.32C328.255 18.52 327.555 19.57 326.695 20.47C325.855 21.37 324.915 22.07 323.875 22.57C322.855 23.07 321.805 23.32 320.725 23.32ZM319.465 17.89C319.985 17.83 320.565 17.65 321.205 17.35C321.845 17.05 322.455 16.67 323.035 16.21C323.635 15.75 324.125 15.25 324.505 14.71C324.885 14.15 325.075 13.59 325.075 13.03C325.075 12.81 325.035 12.66 324.955 12.58C324.875 12.5 324.745 12.46 324.565 12.46C324.105 12.46 323.625 12.63 323.125 12.97C322.625 13.29 322.135 13.72 321.655 14.26C321.175 14.78 320.745 15.36 320.365 16C319.985 16.64 319.685 17.27 319.465 17.89Z" fill="#F8F6EF"/>
</svg>
