<svg width="264" height="77" viewBox="0 0 264 77" fill="none" xmlns="http://www.w3.org/2000/svg">
<path d="M12.488 72.088C11.896 72.088 11.232 71.968 10.496 71.728C9.76 71.488 9 71.2 8.216 70.864C7.448 70.528 6.696 70.208 5.96 69.904C5.56 70.336 5.128 70.672 4.664 70.912C4.2 71.152 3.704 71.272 3.176 71.272C2.616 71.272 2.136 71.144 1.736 70.888C1.32 70.648 1.008 70.352 0.8 70C0.576 69.648 0.464 69.328 0.464 69.04C0.464 68.72 0.608 68.44 0.896 68.2C1.184 67.96 1.696 67.84 2.432 67.84C2.864 67.84 3.336 67.888 3.848 67.984C4.376 68.064 4.912 68.176 5.456 68.32C5.824 67.68 6.16 66.928 6.464 66.064C6.784 65.2 7.096 64.296 7.4 63.352C7.704 62.392 8.008 61.456 8.312 60.544C7.512 60.272 6.896 59.896 6.464 59.416C6.032 58.92 5.816 58.424 5.816 57.928C5.816 57.608 5.896 57.296 6.056 56.992C6.216 56.672 6.448 56.408 6.752 56.2C7.056 55.976 7.416 55.864 7.832 55.864C7.624 56.12 7.488 56.408 7.424 56.728C7.376 57.048 7.352 57.304 7.352 57.496C7.352 58.024 7.472 58.472 7.712 58.84C7.952 59.208 8.248 59.496 8.6 59.704C8.904 58.792 9.224 57.92 9.56 57.088C9.912 56.24 10.296 55.496 10.712 54.856C11.144 54.2 11.616 53.68 12.128 53.296C12.656 52.912 13.248 52.72 13.904 52.72C14.272 52.72 14.656 52.8 15.056 52.96C15.472 53.104 15.824 53.36 16.112 53.728C16.416 54.096 16.568 54.624 16.568 55.312C16.568 55.856 16.448 56.44 16.208 57.064C15.984 57.688 15.624 58.288 15.128 58.864C14.632 59.424 13.992 59.896 13.208 60.28C12.44 60.648 11.504 60.848 10.4 60.88C10.368 60.88 10.328 60.88 10.28 60.88C10.248 60.88 10.216 60.88 10.184 60.88C9.88 61.808 9.56 62.744 9.224 63.688C8.888 64.632 8.528 65.536 8.144 66.4C7.76 67.264 7.344 68.032 6.896 68.704C7.52 68.88 8.208 69.08 8.96 69.304C9.728 69.528 10.488 69.72 11.24 69.88C12.008 70.024 12.68 70.096 13.256 70.096C13.64 70.096 13.992 70.056 14.312 69.976C14.648 69.88 15 69.744 15.368 69.568C15.048 70.464 14.648 71.104 14.168 71.488C13.704 71.888 13.144 72.088 12.488 72.088ZM2.936 70.384C3.352 70.384 3.688 70.288 3.944 70.096C4.2 69.92 4.456 69.696 4.712 69.424C4.216 69.248 3.752 69.104 3.32 68.992C2.888 68.864 2.512 68.8 2.192 68.8C1.888 68.8 1.672 68.856 1.544 68.968C1.4 69.08 1.328 69.216 1.328 69.376C1.328 69.632 1.488 69.864 1.808 70.072C2.128 70.28 2.504 70.384 2.936 70.384ZM10.448 60.088C11.152 60.04 11.776 59.816 12.32 59.416C12.864 59.016 13.328 58.536 13.712 57.976C14.096 57.416 14.384 56.848 14.576 56.272C14.784 55.68 14.888 55.168 14.888 54.736C14.888 54.32 14.808 54.04 14.648 53.896C14.488 53.736 14.304 53.656 14.096 53.656C13.632 53.656 13.192 53.952 12.776 54.544C12.36 55.136 11.96 55.92 11.576 56.896C11.208 57.856 10.832 58.92 10.448 60.088ZM20.1524 71.128C19.6244 71.128 19.1684 70.952 18.7844 70.6C18.3844 70.248 18.1844 69.72 18.1844 69.016C18.1844 68.456 18.3124 67.848 18.5684 67.192C18.8244 66.536 19.1764 65.888 19.6244 65.248C20.0724 64.608 20.5844 64.032 21.1604 63.52C21.7364 62.992 22.3524 62.568 23.0084 62.248C23.6644 61.928 24.3204 61.768 24.9764 61.768C25.6644 61.768 26.2484 61.944 26.7284 62.296C27.2084 62.648 27.4484 63.112 27.4484 63.688C27.4484 64.12 27.2964 64.432 26.9924 64.624C26.6884 64.816 26.3284 64.872 25.9124 64.792C25.9444 64.648 25.9684 64.504 25.9844 64.36C26.0164 64.216 26.0324 64.064 26.0324 63.904C26.0324 63.584 25.9684 63.296 25.8404 63.04C25.7124 62.784 25.4404 62.656 25.0244 62.656C24.5764 62.656 24.1204 62.808 23.6564 63.112C23.1924 63.416 22.7444 63.816 22.3124 64.312C21.8964 64.792 21.5204 65.328 21.1844 65.92C20.8484 66.496 20.5844 67.064 20.3924 67.624C20.2004 68.184 20.1044 68.688 20.1044 69.136C20.1044 69.648 20.2884 69.904 20.6564 69.904C21.0244 69.904 21.4324 69.728 21.8804 69.376C22.3284 69.008 22.7764 68.552 23.2244 68.008C23.6884 67.464 24.1284 66.912 24.5444 66.352C24.9604 65.776 25.3204 65.288 25.6244 64.888C25.6724 64.808 25.7364 64.768 25.8164 64.768C25.8804 64.784 26.0004 64.824 26.1764 64.888C26.3684 64.936 26.5444 65.016 26.7044 65.128C26.8644 65.24 26.9444 65.384 26.9444 65.56C26.9444 65.72 26.8724 65.928 26.7284 66.184C26.6004 66.424 26.4404 66.696 26.2484 67C26.0724 67.288 25.9124 67.584 25.7684 67.888C25.6404 68.176 25.5764 68.456 25.5764 68.728C25.5764 68.936 25.6324 69.136 25.7444 69.328C25.8564 69.504 26.0404 69.592 26.2964 69.592C26.6804 69.592 27.2164 69.312 27.9044 68.752C28.6084 68.176 29.3204 67.208 30.0404 65.848L30.4964 66.304C30.1124 67.168 29.6484 67.936 29.1044 68.608C28.5764 69.264 28.0164 69.776 27.4244 70.144C26.8324 70.528 26.2324 70.72 25.6244 70.72C24.9684 70.72 24.4804 70.512 24.1604 70.096C23.8404 69.68 23.6644 69.232 23.6324 68.752C23.6324 68.72 23.6324 68.696 23.6324 68.68C23.6324 68.664 23.6324 68.648 23.6324 68.632C22.9924 69.4 22.4004 70.008 21.8564 70.456C21.3284 70.904 20.7604 71.128 20.1524 71.128ZM38.6829 76.72C38.5549 76.72 38.4189 76.68 38.2749 76.6C38.1309 76.536 38.0109 76.456 37.9149 76.36C37.8029 76.264 37.7389 76.184 37.7229 76.12C38.1229 74.952 38.4669 73.936 38.7549 73.072C39.0269 72.224 39.2589 71.416 39.4509 70.648C39.6429 69.896 39.8189 69.112 39.9789 68.296C40.1229 67.464 40.2669 66.52 40.4109 65.464C40.5709 64.392 40.7469 63.104 40.9389 61.6C40.9709 61.408 41.0109 61.272 41.0589 61.192C41.1069 61.096 41.2589 61.048 41.5149 61.048C42.0109 61.048 42.3709 61.184 42.5949 61.456C42.8189 61.712 42.9309 62 42.9309 62.32C42.9309 62.48 42.8989 62.76 42.8349 63.16C42.7869 63.56 42.7069 64.032 42.5949 64.576C42.8989 64.112 43.2429 63.672 43.6269 63.256C44.0269 62.84 44.4669 62.504 44.9469 62.248C45.4269 61.976 45.9469 61.84 46.5069 61.84C47.2909 61.84 47.9389 62.104 48.4509 62.632C48.9629 63.16 49.2189 63.856 49.2189 64.72C49.2189 65.344 49.0749 66.008 48.7869 66.712C48.5149 67.4 48.1229 68.056 47.6109 68.68C47.0989 69.288 46.4829 69.784 45.7629 70.168C45.0429 70.568 44.2509 70.768 43.3869 70.768C42.8749 70.768 42.4669 70.704 42.1629 70.576C41.8589 70.448 41.7069 70.304 41.7069 70.144C41.7069 70.032 41.7629 69.968 41.8749 69.952C42.0029 69.92 42.1389 69.904 42.2829 69.904C43.0349 69.888 43.7149 69.728 44.3229 69.424C44.9469 69.12 45.4829 68.728 45.9309 68.248C46.3789 67.752 46.7229 67.224 46.9629 66.664C47.2029 66.104 47.3229 65.552 47.3229 65.008C47.3229 64.528 47.2109 64.112 46.9869 63.76C46.7789 63.408 46.4429 63.232 45.9789 63.232C45.5789 63.232 45.1709 63.36 44.7549 63.616C44.3549 63.872 43.9789 64.2 43.6269 64.6C43.2749 64.984 42.9629 65.392 42.6909 65.824C42.4189 66.24 42.2109 66.608 42.0669 66.928C41.7629 67.984 41.4829 69.032 41.2269 70.072C40.9869 71.128 40.7549 72.104 40.5309 73C40.3069 73.896 40.0829 74.656 39.8589 75.28C39.6189 75.904 39.3629 76.328 39.0909 76.552C38.9629 76.664 38.8269 76.72 38.6829 76.72ZM53.4449 71.128C52.9169 71.128 52.4609 70.952 52.0769 70.6C51.6769 70.248 51.4769 69.72 51.4769 69.016C51.4769 68.456 51.6049 67.848 51.8609 67.192C52.1169 66.536 52.4689 65.888 52.9169 65.248C53.3649 64.608 53.8769 64.032 54.4529 63.52C55.0289 62.992 55.6449 62.568 56.3009 62.248C56.9569 61.928 57.6129 61.768 58.2689 61.768C58.9569 61.768 59.5409 61.944 60.0209 62.296C60.5009 62.648 60.7409 63.112 60.7409 63.688C60.7409 64.12 60.5889 64.432 60.2849 64.624C59.9809 64.816 59.6209 64.872 59.2049 64.792C59.2369 64.648 59.2609 64.504 59.2769 64.36C59.3089 64.216 59.3249 64.064 59.3249 63.904C59.3249 63.584 59.2609 63.296 59.1329 63.04C59.0049 62.784 58.7329 62.656 58.3169 62.656C57.8689 62.656 57.4129 62.808 56.9489 63.112C56.4849 63.416 56.0369 63.816 55.6049 64.312C55.1889 64.792 54.8129 65.328 54.4769 65.92C54.1409 66.496 53.8769 67.064 53.6849 67.624C53.4929 68.184 53.3969 68.688 53.3969 69.136C53.3969 69.648 53.5809 69.904 53.9489 69.904C54.3169 69.904 54.7249 69.728 55.1729 69.376C55.6209 69.008 56.0689 68.552 56.5169 68.008C56.9809 67.464 57.4209 66.912 57.8369 66.352C58.2529 65.776 58.6129 65.288 58.9169 64.888C58.9649 64.808 59.0289 64.768 59.1089 64.768C59.1729 64.784 59.2929 64.824 59.4689 64.888C59.6609 64.936 59.8369 65.016 59.9969 65.128C60.1569 65.24 60.2369 65.384 60.2369 65.56C60.2369 65.72 60.1649 65.928 60.0209 66.184C59.8929 66.424 59.7329 66.696 59.5409 67C59.3649 67.288 59.2049 67.584 59.0609 67.888C58.9329 68.176 58.8689 68.456 58.8689 68.728C58.8689 68.936 58.9249 69.136 59.0369 69.328C59.1489 69.504 59.3329 69.592 59.5889 69.592C59.9729 69.592 60.5089 69.312 61.1969 68.752C61.9009 68.176 62.6129 67.208 63.3329 65.848L63.7889 66.304C63.4049 67.168 62.9409 67.936 62.3969 68.608C61.8689 69.264 61.3089 69.776 60.7169 70.144C60.1249 70.528 59.5249 70.72 58.9169 70.72C58.2609 70.72 57.7729 70.512 57.4529 70.096C57.1329 69.68 56.9569 69.232 56.9249 68.752C56.9249 68.72 56.9249 68.696 56.9249 68.68C56.9249 68.664 56.9249 68.648 56.9249 68.632C56.2849 69.4 55.6929 70.008 55.1489 70.456C54.6209 70.904 54.0529 71.128 53.4449 71.128ZM69.365 70.624C68.773 70.624 68.293 70.464 67.925 70.144C67.557 69.84 67.373 69.424 67.373 68.896C67.373 68.448 67.485 67.968 67.709 67.456C67.933 66.944 68.157 66.44 68.381 65.944C68.621 65.448 68.741 65.008 68.741 64.624C68.741 64.256 68.621 63.952 68.381 63.712C68.141 63.456 67.861 63.248 67.541 63.088C67.189 63.968 66.789 64.824 66.341 65.656C65.909 66.472 65.557 67.112 65.285 67.576L64.925 66.88C65.149 66.464 65.445 65.872 65.813 65.104C66.181 64.336 66.533 63.48 66.869 62.536C66.709 62.376 66.629 62.16 66.629 61.888C66.629 61.472 66.757 61.08 67.013 60.712C67.269 60.344 67.517 60.16 67.757 60.16C67.949 60.16 68.085 60.272 68.165 60.496C68.261 60.704 68.309 60.848 68.309 60.928C68.309 61.008 68.269 61.152 68.189 61.36C68.125 61.568 68.077 61.72 68.045 61.816C68.061 61.992 68.197 62.168 68.453 62.344C68.725 62.504 69.029 62.696 69.365 62.92C69.701 63.144 69.997 63.424 70.253 63.76C70.509 64.096 70.637 64.52 70.637 65.032C70.637 65.496 70.533 65.968 70.325 66.448C70.117 66.928 69.909 67.376 69.701 67.792C69.493 68.208 69.389 68.568 69.389 68.872C69.389 69.096 69.445 69.248 69.557 69.328C69.685 69.392 69.829 69.424 69.989 69.424C70.373 69.424 70.773 69.312 71.189 69.088C71.605 68.848 72.013 68.544 72.413 68.176C72.813 67.808 73.165 67.424 73.469 67.024C73.773 66.608 74.005 66.232 74.165 65.896L74.741 66.328C74.437 67.016 73.997 67.696 73.421 68.368C72.845 69.024 72.205 69.568 71.501 70C70.797 70.416 70.085 70.624 69.365 70.624ZM78.5877 71.056C77.5637 71.056 76.7717 70.776 76.2117 70.216C75.6677 69.672 75.3957 68.984 75.3957 68.152C75.3957 67.448 75.5717 66.704 75.9237 65.92C76.2917 65.12 76.7797 64.376 77.3877 63.688C77.9957 62.984 78.6677 62.416 79.4037 61.984C80.1397 61.552 80.8757 61.336 81.6117 61.336C82.0277 61.336 82.4197 61.448 82.7877 61.672C83.1717 61.88 83.3637 62.304 83.3637 62.944C83.3637 63.552 83.1877 64.12 82.8357 64.648C82.4837 65.176 82.0117 65.648 81.4197 66.064C80.8277 66.48 80.1717 66.824 79.4517 67.096C78.7477 67.352 78.0357 67.52 77.3157 67.6C77.2997 67.664 77.2837 67.736 77.2677 67.816C77.2677 67.88 77.2677 67.992 77.2677 68.152C77.2677 68.232 77.2757 68.376 77.2917 68.584C77.3237 68.776 77.3957 68.984 77.5077 69.208C77.6197 69.432 77.8037 69.624 78.0597 69.784C78.3157 69.944 78.6677 70.024 79.1157 70.024C79.7877 70.024 80.4597 69.84 81.1317 69.472C81.8197 69.088 82.4597 68.584 83.0517 67.96C83.6597 67.336 84.1637 66.64 84.5637 65.872L85.0437 66.256C84.6117 67.216 84.0517 68.056 83.3637 68.776C82.6917 69.496 81.9397 70.056 81.1077 70.456C80.2917 70.856 79.4517 71.056 78.5877 71.056ZM77.5797 66.712C77.9957 66.664 78.4597 66.52 78.9717 66.28C79.4837 66.04 79.9717 65.736 80.4357 65.368C80.9157 65 81.3077 64.6 81.6117 64.168C81.9157 63.72 82.0677 63.272 82.0677 62.824C82.0677 62.648 82.0357 62.528 81.9717 62.464C81.9077 62.4 81.8037 62.368 81.6597 62.368C81.2917 62.368 80.9077 62.504 80.5077 62.776C80.1077 63.032 79.7157 63.376 79.3317 63.808C78.9477 64.224 78.6037 64.688 78.2997 65.2C77.9957 65.712 77.7557 66.216 77.5797 66.712ZM94.2314 70.48C93.6074 70.48 93.1274 70.32 92.7914 70C92.4714 69.696 92.3114 69.304 92.3114 68.824C92.3114 68.504 92.3674 68.168 92.4794 67.816C92.5914 67.448 92.7034 67.08 92.8154 66.712C92.9274 66.344 92.9834 65.992 92.9834 65.656C92.9834 65.304 92.8954 65.064 92.7194 64.936C92.5594 64.792 92.3674 64.72 92.1434 64.72C91.6634 64.72 91.1674 64.92 90.6554 65.32C90.1594 65.704 89.6714 66.192 89.1914 66.784C88.7274 67.376 88.2874 67.992 87.8714 68.632C87.4554 69.272 87.0954 69.848 86.7914 70.36C86.4874 70.36 86.1994 70.304 85.9274 70.192C85.6554 70.096 85.4234 69.92 85.2314 69.664C85.2474 69.584 85.3434 69.344 85.5194 68.944C85.6794 68.528 85.8634 68.04 86.0714 67.48C86.2794 66.904 86.4634 66.304 86.6234 65.68C86.7834 65.056 86.8634 64.488 86.8634 63.976C86.9754 63.848 87.1434 63.72 87.3674 63.592C87.6074 63.464 87.8554 63.4 88.1114 63.4C88.6714 63.4 88.9514 63.64 88.9514 64.12C88.9514 64.312 88.9114 64.6 88.8314 64.984C88.7674 65.352 88.6714 65.776 88.5434 66.256C88.9594 65.696 89.4154 65.168 89.9114 64.672C90.4074 64.176 90.9194 63.776 91.4474 63.472C91.9914 63.152 92.5354 62.992 93.0794 62.992C93.7674 62.992 94.2714 63.224 94.5914 63.688C94.9274 64.152 95.0954 64.664 95.0954 65.224C95.0954 65.704 95.0154 66.152 94.8554 66.568C94.6954 66.984 94.5354 67.376 94.3754 67.744C94.2314 68.112 94.1594 68.472 94.1594 68.824C94.1594 69.08 94.2154 69.264 94.3274 69.376C94.4554 69.472 94.5914 69.52 94.7354 69.52C95.1194 69.52 95.5194 69.336 95.9354 68.968C96.3514 68.6 96.7434 68.136 97.1114 67.576C97.4954 67 97.8314 66.424 98.1194 65.848L98.5274 66.184C98.1914 66.968 97.8074 67.688 97.3754 68.344C96.9594 68.984 96.4874 69.504 95.9594 69.904C95.4474 70.288 94.8714 70.48 94.2314 70.48ZM101.927 71.104C101.175 71.104 100.575 70.896 100.127 70.48C99.6952 70.064 99.4792 69.44 99.4792 68.608C99.4792 68.144 99.5432 67.592 99.6712 66.952C99.7992 66.312 99.9672 65.632 100.175 64.912C100.399 64.176 100.639 63.456 100.895 62.752C100.751 62.704 100.615 62.664 100.487 62.632C100.375 62.584 100.223 62.52 100.031 62.44V61.696C100.319 61.744 100.535 61.792 100.679 61.84C100.823 61.872 100.999 61.904 101.207 61.936C101.655 60.8 102.135 59.752 102.647 58.792C103.159 57.832 103.655 57.064 104.135 56.488C104.615 55.912 105.031 55.624 105.383 55.624C105.559 55.624 105.719 55.688 105.863 55.816C106.007 55.944 106.079 56.088 106.079 56.248C106.079 56.44 105.983 56.752 105.791 57.184C105.599 57.616 105.351 58.104 105.047 58.648C104.759 59.176 104.463 59.704 104.159 60.232C103.871 60.76 103.607 61.216 103.367 61.6C103.143 61.984 103.007 62.232 102.959 62.344C103.375 62.408 103.759 62.464 104.111 62.512C104.463 62.544 104.815 62.56 105.167 62.56C105.631 62.56 106.111 62.528 106.607 62.464C107.103 62.4 107.655 62.312 108.263 62.2C108.695 61.048 109.175 59.92 109.703 58.816C110.231 57.696 110.767 56.696 111.311 55.816C111.871 54.92 112.399 54.208 112.895 53.68C113.407 53.136 113.855 52.864 114.239 52.864C114.559 52.864 114.807 53.048 114.983 53.416C115.159 53.768 115.247 54.152 115.247 54.568C115.247 55.096 115.111 55.736 114.839 56.488C114.567 57.24 114.191 58.016 113.711 58.816C113.231 59.616 112.663 60.368 112.007 61.072C111.367 61.776 110.671 62.344 109.919 62.776C109.711 63.256 109.519 63.856 109.343 64.576C109.183 65.28 109.055 65.968 108.959 66.64C108.863 67.312 108.815 67.848 108.815 68.248C109.199 67.24 109.631 66.312 110.111 65.464C110.591 64.616 111.127 63.936 111.719 63.424C112.327 62.912 112.983 62.656 113.687 62.656C114.423 62.656 114.959 62.904 115.295 63.4C115.631 63.88 115.799 64.408 115.799 64.984C115.799 65.448 115.711 65.92 115.535 66.4C115.375 66.864 115.207 67.312 115.031 67.744C114.871 68.16 114.791 68.536 114.791 68.872C114.791 69.16 114.855 69.36 114.983 69.472C115.127 69.584 115.279 69.64 115.439 69.64C115.791 69.64 116.199 69.464 116.663 69.112C117.143 68.744 117.607 68.264 118.055 67.672C118.519 67.08 118.903 66.448 119.207 65.776L119.663 66.208C119.311 67.008 118.887 67.744 118.391 68.416C117.895 69.088 117.343 69.616 116.735 70C116.143 70.4 115.511 70.6 114.839 70.6C114.231 70.6 113.759 70.44 113.423 70.12C113.103 69.8 112.943 69.4 112.943 68.92C112.943 68.584 112.999 68.224 113.111 67.84C113.239 67.44 113.359 67.032 113.471 66.616C113.583 66.2 113.639 65.816 113.639 65.464C113.639 65.096 113.559 64.832 113.399 64.672C113.255 64.512 113.055 64.432 112.799 64.432C112.415 64.432 112.063 64.592 111.743 64.912C111.439 65.216 111.159 65.616 110.903 66.112C110.647 66.608 110.407 67.136 110.183 67.696C109.959 68.24 109.735 68.76 109.511 69.256C109.303 69.752 109.079 70.152 108.839 70.456C108.615 70.776 108.367 70.936 108.095 70.936C107.855 70.936 107.655 70.816 107.495 70.576C107.351 70.336 107.231 70.048 107.135 69.712C107.039 69.376 106.975 69.048 106.943 68.728C106.911 68.392 106.895 68.136 106.895 67.96C106.255 68.888 105.503 69.64 104.639 70.216C103.791 70.808 102.887 71.104 101.927 71.104ZM102.623 69.904C103.423 69.904 104.223 69.56 105.023 68.872C105.839 68.168 106.543 67.208 107.135 65.992C107.231 65.512 107.335 65.056 107.447 64.624C107.559 64.192 107.703 63.72 107.879 63.208C107.399 63.304 106.935 63.376 106.487 63.424C106.039 63.472 105.599 63.496 105.167 63.496C104.735 63.496 104.303 63.472 103.871 63.424C103.439 63.376 102.999 63.312 102.551 63.232C102.199 64.016 101.911 64.808 101.687 65.608C101.463 66.408 101.351 67.224 101.351 68.056C101.351 68.712 101.439 69.184 101.615 69.472C101.807 69.76 102.143 69.904 102.623 69.904ZM110.399 61.264C110.863 60.864 111.295 60.416 111.695 59.92C112.095 59.424 112.447 58.92 112.751 58.408C113.071 57.88 113.335 57.384 113.543 56.92C113.767 56.44 113.919 56.024 113.999 55.672C114.047 55.448 114.071 55.272 114.071 55.144C113.943 55.176 113.735 55.352 113.447 55.672C113.175 55.992 112.855 56.432 112.487 56.992C112.119 57.536 111.751 58.176 111.383 58.912C111.015 59.632 110.687 60.416 110.399 61.264ZM123.576 71.056C122.552 71.056 121.76 70.776 121.2 70.216C120.656 69.672 120.384 68.984 120.384 68.152C120.384 67.448 120.56 66.704 120.912 65.92C121.28 65.12 121.768 64.376 122.376 63.688C122.984 62.984 123.656 62.416 124.392 61.984C125.128 61.552 125.864 61.336 126.6 61.336C127.016 61.336 127.408 61.448 127.776 61.672C128.16 61.88 128.352 62.304 128.352 62.944C128.352 63.552 128.176 64.12 127.824 64.648C127.472 65.176 127 65.648 126.408 66.064C125.816 66.48 125.16 66.824 124.44 67.096C123.736 67.352 123.024 67.52 122.304 67.6C122.288 67.664 122.272 67.736 122.256 67.816C122.256 67.88 122.256 67.992 122.256 68.152C122.256 68.232 122.264 68.376 122.28 68.584C122.312 68.776 122.384 68.984 122.496 69.208C122.608 69.432 122.792 69.624 123.048 69.784C123.304 69.944 123.656 70.024 124.104 70.024C124.776 70.024 125.448 69.84 126.12 69.472C126.808 69.088 127.448 68.584 128.04 67.96C128.648 67.336 129.152 66.64 129.552 65.872L130.032 66.256C129.6 67.216 129.04 68.056 128.352 68.776C127.68 69.496 126.928 70.056 126.096 70.456C125.28 70.856 124.44 71.056 123.576 71.056ZM122.568 66.712C122.984 66.664 123.448 66.52 123.96 66.28C124.472 66.04 124.96 65.736 125.424 65.368C125.904 65 126.296 64.6 126.6 64.168C126.904 63.72 127.056 63.272 127.056 62.824C127.056 62.648 127.024 62.528 126.96 62.464C126.896 62.4 126.792 62.368 126.648 62.368C126.28 62.368 125.896 62.504 125.496 62.776C125.096 63.032 124.704 63.376 124.32 63.808C123.936 64.224 123.592 64.688 123.288 65.2C122.984 65.712 122.744 66.216 122.568 66.712ZM128.304 59.968C127.936 59.52 127.536 59.096 127.104 58.696C126.688 58.28 126.152 57.824 125.496 57.328C125.528 57.008 125.616 56.776 125.76 56.632C125.92 56.472 126.088 56.392 126.264 56.392C126.504 56.392 126.776 56.504 127.08 56.728C127.384 56.936 127.672 57.2 127.944 57.52C128.232 57.84 128.464 58.152 128.64 58.456C128.816 58.744 128.904 58.96 128.904 59.104C128.904 59.216 128.848 59.368 128.736 59.56C128.64 59.752 128.496 59.888 128.304 59.968ZM133.939 71.224C133.139 71.224 132.491 71.056 131.995 70.72C131.515 70.4 131.171 69.992 130.963 69.496C130.755 68.984 130.651 68.464 130.651 67.936C130.651 67.472 130.715 67.112 130.843 66.856C130.971 66.6 131.131 66.416 131.323 66.304C131.515 66.176 131.691 66.08 131.851 66.016C132.027 65.952 132.155 65.88 132.235 65.8C132.635 65.384 133.043 64.904 133.459 64.36C133.891 63.8 134.259 63.184 134.563 62.512V62.272C134.563 61.632 134.667 61.184 134.875 60.928C135.099 60.656 135.355 60.52 135.643 60.52C135.835 60.52 135.971 60.568 136.051 60.664C136.147 60.76 136.203 60.872 136.219 61C136.219 61.096 136.195 61.208 136.147 61.336C136.115 61.464 136.099 61.64 136.099 61.864C136.099 62.344 136.211 62.896 136.435 63.52C136.675 64.128 136.907 64.776 137.131 65.464C137.371 66.152 137.491 66.856 137.491 67.576C137.491 67.768 137.483 67.944 137.467 68.104C137.451 68.264 137.427 68.416 137.395 68.56C137.891 68.432 138.379 68.16 138.859 67.744C139.339 67.312 139.795 66.68 140.227 65.848L140.515 66.064C140.211 66.976 139.771 67.712 139.195 68.272C138.619 68.816 137.947 69.152 137.179 69.28C136.923 69.936 136.499 70.424 135.907 70.744C135.331 71.064 134.675 71.224 133.939 71.224ZM133.771 70.168C134.091 70.168 134.387 70.088 134.659 69.928C134.931 69.768 135.147 69.536 135.307 69.232C134.651 69.088 134.059 68.832 133.531 68.464C133.003 68.096 132.595 67.72 132.307 67.336C132.083 67.384 131.971 67.6 131.971 67.984C131.971 68.512 132.123 69.008 132.427 69.472C132.731 69.936 133.179 70.168 133.771 70.168ZM135.499 68.512C135.531 68.4 135.547 68.272 135.547 68.128C135.563 67.968 135.571 67.848 135.571 67.768C135.555 67.048 135.459 66.336 135.283 65.632C135.107 64.928 134.931 64.208 134.755 63.472C134.467 63.968 134.131 64.504 133.747 65.08C133.363 65.656 133.003 66.12 132.667 66.472C132.923 66.904 133.299 67.312 133.795 67.696C134.291 68.08 134.859 68.352 135.499 68.512ZM144.489 71.056C143.465 71.056 142.673 70.776 142.113 70.216C141.569 69.672 141.297 68.984 141.297 68.152C141.297 67.448 141.473 66.704 141.825 65.92C142.193 65.12 142.681 64.376 143.289 63.688C143.897 62.984 144.569 62.416 145.305 61.984C146.041 61.552 146.777 61.336 147.513 61.336C147.929 61.336 148.321 61.448 148.689 61.672C149.073 61.88 149.265 62.304 149.265 62.944C149.265 63.552 149.089 64.12 148.737 64.648C148.385 65.176 147.913 65.648 147.321 66.064C146.729 66.48 146.073 66.824 145.353 67.096C144.649 67.352 143.937 67.52 143.217 67.6C143.201 67.664 143.185 67.736 143.169 67.816C143.169 67.88 143.169 67.992 143.169 68.152C143.169 68.232 143.177 68.376 143.193 68.584C143.225 68.776 143.297 68.984 143.409 69.208C143.521 69.432 143.705 69.624 143.961 69.784C144.217 69.944 144.569 70.024 145.017 70.024C145.689 70.024 146.361 69.84 147.033 69.472C147.721 69.088 148.361 68.584 148.953 67.96C149.561 67.336 150.065 66.64 150.465 65.872L150.945 66.256C150.513 67.216 149.953 68.056 149.265 68.776C148.593 69.496 147.841 70.056 147.009 70.456C146.193 70.856 145.353 71.056 144.489 71.056ZM143.481 66.712C143.897 66.664 144.361 66.52 144.873 66.28C145.385 66.04 145.873 65.736 146.337 65.368C146.817 65 147.209 64.6 147.513 64.168C147.817 63.72 147.969 63.272 147.969 62.824C147.969 62.648 147.937 62.528 147.873 62.464C147.809 62.4 147.705 62.368 147.561 62.368C147.193 62.368 146.809 62.504 146.409 62.776C146.009 63.032 145.617 63.376 145.233 63.808C144.849 64.224 144.505 64.688 144.201 65.2C143.897 65.712 143.657 66.216 143.481 66.712ZM163.223 71.056C162.199 71.056 161.407 70.776 160.847 70.216C160.303 69.672 160.031 68.984 160.031 68.152C160.031 67.448 160.207 66.704 160.559 65.92C160.927 65.12 161.415 64.376 162.023 63.688C162.631 62.984 163.303 62.416 164.039 61.984C164.775 61.552 165.511 61.336 166.247 61.336C166.663 61.336 167.055 61.448 167.423 61.672C167.807 61.88 167.999 62.304 167.999 62.944C167.999 63.552 167.823 64.12 167.471 64.648C167.119 65.176 166.647 65.648 166.055 66.064C165.463 66.48 164.807 66.824 164.087 67.096C163.383 67.352 162.671 67.52 161.951 67.6C161.935 67.664 161.919 67.736 161.903 67.816C161.903 67.88 161.903 67.992 161.903 68.152C161.903 68.232 161.911 68.376 161.927 68.584C161.959 68.776 162.031 68.984 162.143 69.208C162.255 69.432 162.439 69.624 162.695 69.784C162.951 69.944 163.303 70.024 163.751 70.024C164.423 70.024 165.095 69.84 165.767 69.472C166.455 69.088 167.095 68.584 167.687 67.96C168.295 67.336 168.799 66.64 169.199 65.872L169.679 66.256C169.247 67.216 168.687 68.056 167.999 68.776C167.327 69.496 166.575 70.056 165.743 70.456C164.927 70.856 164.087 71.056 163.223 71.056ZM162.215 66.712C162.631 66.664 163.095 66.52 163.607 66.28C164.119 66.04 164.607 65.736 165.071 65.368C165.551 65 165.943 64.6 166.247 64.168C166.551 63.72 166.703 63.272 166.703 62.824C166.703 62.648 166.671 62.528 166.607 62.464C166.543 62.4 166.439 62.368 166.295 62.368C165.927 62.368 165.543 62.504 165.143 62.776C164.743 63.032 164.351 63.376 163.967 63.808C163.583 64.224 163.239 64.688 162.935 65.2C162.631 65.712 162.391 66.216 162.215 66.712ZM178.867 70.48C178.243 70.48 177.763 70.32 177.427 70C177.107 69.696 176.947 69.304 176.947 68.824C176.947 68.504 177.003 68.168 177.115 67.816C177.227 67.448 177.339 67.08 177.451 66.712C177.563 66.344 177.619 65.992 177.619 65.656C177.619 65.304 177.531 65.064 177.355 64.936C177.195 64.792 177.003 64.72 176.779 64.72C176.299 64.72 175.803 64.92 175.291 65.32C174.795 65.704 174.307 66.192 173.827 66.784C173.363 67.376 172.923 67.992 172.507 68.632C172.091 69.272 171.731 69.848 171.427 70.36C171.123 70.36 170.835 70.304 170.563 70.192C170.291 70.096 170.059 69.92 169.867 69.664C169.883 69.584 169.979 69.344 170.155 68.944C170.315 68.528 170.499 68.04 170.707 67.48C170.915 66.904 171.099 66.304 171.259 65.68C171.419 65.056 171.499 64.488 171.499 63.976C171.611 63.848 171.779 63.72 172.003 63.592C172.243 63.464 172.491 63.4 172.747 63.4C173.307 63.4 173.587 63.64 173.587 64.12C173.587 64.312 173.547 64.6 173.467 64.984C173.403 65.352 173.307 65.776 173.179 66.256C173.595 65.696 174.051 65.168 174.547 64.672C175.043 64.176 175.555 63.776 176.083 63.472C176.627 63.152 177.171 62.992 177.715 62.992C178.403 62.992 178.907 63.224 179.227 63.688C179.563 64.152 179.731 64.664 179.731 65.224C179.731 65.704 179.651 66.152 179.491 66.568C179.331 66.984 179.171 67.376 179.011 67.744C178.867 68.112 178.795 68.472 178.795 68.824C178.795 69.08 178.851 69.264 178.963 69.376C179.091 69.472 179.227 69.52 179.371 69.52C179.755 69.52 180.155 69.336 180.571 68.968C180.987 68.6 181.379 68.136 181.747 67.576C182.131 67 182.467 66.424 182.755 65.848L183.163 66.184C182.827 66.968 182.443 67.688 182.011 68.344C181.595 68.984 181.123 69.504 180.595 69.904C180.083 70.288 179.507 70.48 178.867 70.48ZM186.995 71.344C186.163 71.344 185.475 71.08 184.931 70.552C184.403 70.04 184.139 69.248 184.139 68.176C184.139 67.392 184.291 66.624 184.595 65.872C184.899 65.12 185.307 64.448 185.819 63.856C186.331 63.248 186.899 62.768 187.523 62.416C188.163 62.064 188.811 61.888 189.467 61.888C190.139 61.888 190.619 62.056 190.907 62.392C191.211 62.728 191.363 63.12 191.363 63.568C191.363 64.016 191.251 64.456 191.027 64.888C190.819 65.304 190.531 65.512 190.163 65.512C189.859 65.512 189.611 65.36 189.419 65.056C189.579 64.944 189.747 64.736 189.923 64.432C190.099 64.128 190.187 63.736 190.187 63.256C190.187 63.128 190.155 63.032 190.091 62.968C190.027 62.888 189.907 62.848 189.731 62.848C189.331 62.848 188.907 63.032 188.459 63.4C188.027 63.752 187.619 64.216 187.235 64.792C186.867 65.352 186.563 65.952 186.323 66.592C186.099 67.216 185.987 67.792 185.987 68.32C185.987 68.768 186.099 69.184 186.323 69.568C186.563 69.936 187.019 70.12 187.691 70.12C188.299 70.12 188.931 69.944 189.587 69.592C190.243 69.24 190.859 68.752 191.435 68.128C192.011 67.488 192.475 66.728 192.827 65.848L193.307 66.28C192.923 67.256 192.387 68.128 191.699 68.896C191.027 69.648 190.275 70.24 189.443 70.672C188.627 71.12 187.811 71.344 186.995 71.344ZM195.539 70.912C195.187 70.912 194.931 70.64 194.771 70.096C194.627 69.552 194.555 68.92 194.555 68.2C194.555 67.464 194.675 66.576 194.915 65.536C195.171 64.496 195.507 63.4 195.923 62.248C196.355 61.096 196.827 59.968 197.339 58.864C197.867 57.76 198.403 56.76 198.947 55.864C199.507 54.952 200.035 54.224 200.531 53.68C201.043 53.136 201.491 52.864 201.875 52.864C202.211 52.864 202.467 53.048 202.643 53.416C202.819 53.784 202.907 54.168 202.907 54.568C202.907 55 202.803 55.536 202.595 56.176C202.403 56.8 202.131 57.472 201.779 58.192C201.427 58.912 201.011 59.624 200.531 60.328C200.067 61.016 199.555 61.648 198.995 62.224C198.451 62.8 197.883 63.264 197.291 63.616C197.083 64.16 196.915 64.672 196.787 65.152C196.675 65.616 196.595 66.056 196.547 66.472C196.499 66.888 196.475 67.296 196.475 67.696C196.475 67.776 196.475 67.864 196.475 67.96C196.491 68.04 196.499 68.12 196.499 68.2C196.563 68.104 196.667 67.856 196.811 67.456C196.955 67.056 197.147 66.592 197.387 66.064C197.643 65.52 197.955 64.992 198.323 64.48C198.691 63.952 199.123 63.52 199.619 63.184C200.115 62.832 200.683 62.656 201.323 62.656C201.867 62.656 202.291 62.784 202.595 63.04C202.899 63.28 203.115 63.584 203.243 63.952C203.371 64.304 203.435 64.664 203.435 65.032C203.435 65.544 203.347 66.024 203.171 66.472C203.011 66.92 202.843 67.344 202.667 67.744C202.507 68.128 202.427 68.496 202.427 68.848C202.427 69.136 202.491 69.336 202.619 69.448C202.747 69.56 202.899 69.616 203.075 69.616C203.427 69.616 203.835 69.44 204.299 69.088C204.779 68.736 205.251 68.272 205.715 67.696C206.195 67.104 206.603 66.456 206.939 65.752L207.323 66.16C206.955 66.96 206.523 67.696 206.027 68.368C205.531 69.04 204.987 69.576 204.395 69.976C203.803 70.376 203.163 70.576 202.475 70.576C201.867 70.576 201.403 70.416 201.083 70.096C200.763 69.776 200.603 69.376 200.603 68.896C200.603 68.56 200.659 68.192 200.771 67.792C200.899 67.376 201.019 66.96 201.131 66.544C201.243 66.128 201.299 65.752 201.299 65.416C201.299 65.032 201.211 64.768 201.035 64.624C200.875 64.48 200.675 64.408 200.435 64.408C200.035 64.408 199.675 64.568 199.355 64.888C199.035 65.192 198.747 65.592 198.491 66.088C198.235 66.584 197.995 67.112 197.771 67.672C197.547 68.216 197.323 68.736 197.099 69.232C196.875 69.728 196.635 70.128 196.379 70.432C196.139 70.752 195.859 70.912 195.539 70.912ZM197.795 62.08C198.211 61.712 198.611 61.272 198.995 60.76C199.379 60.248 199.731 59.72 200.051 59.176C200.387 58.616 200.675 58.08 200.915 57.568C201.171 57.04 201.371 56.568 201.515 56.152C201.659 55.736 201.739 55.416 201.755 55.192C201.755 55.176 201.755 55.168 201.755 55.168C201.755 55.152 201.755 55.136 201.755 55.12C201.659 55.12 201.451 55.32 201.131 55.72C200.827 56.104 200.467 56.632 200.051 57.304C199.651 57.96 199.243 58.704 198.827 59.536C198.427 60.368 198.083 61.216 197.795 62.08ZM209.798 71.128C209.27 71.128 208.814 70.952 208.43 70.6C208.03 70.248 207.83 69.72 207.83 69.016C207.83 68.456 207.958 67.848 208.214 67.192C208.47 66.536 208.822 65.888 209.27 65.248C209.718 64.608 210.23 64.032 210.806 63.52C211.382 62.992 211.998 62.568 212.654 62.248C213.31 61.928 213.966 61.768 214.622 61.768C215.31 61.768 215.894 61.944 216.374 62.296C216.854 62.648 217.094 63.112 217.094 63.688C217.094 64.12 216.942 64.432 216.638 64.624C216.334 64.816 215.974 64.872 215.558 64.792C215.59 64.648 215.614 64.504 215.63 64.36C215.662 64.216 215.678 64.064 215.678 63.904C215.678 63.584 215.614 63.296 215.486 63.04C215.358 62.784 215.086 62.656 214.67 62.656C214.222 62.656 213.766 62.808 213.302 63.112C212.838 63.416 212.39 63.816 211.958 64.312C211.542 64.792 211.166 65.328 210.83 65.92C210.494 66.496 210.23 67.064 210.038 67.624C209.846 68.184 209.75 68.688 209.75 69.136C209.75 69.648 209.934 69.904 210.302 69.904C210.67 69.904 211.078 69.728 211.526 69.376C211.974 69.008 212.422 68.552 212.87 68.008C213.334 67.464 213.774 66.912 214.19 66.352C214.606 65.776 214.966 65.288 215.27 64.888C215.318 64.808 215.382 64.768 215.462 64.768C215.526 64.784 215.646 64.824 215.822 64.888C216.014 64.936 216.19 65.016 216.35 65.128C216.51 65.24 216.59 65.384 216.59 65.56C216.59 65.72 216.518 65.928 216.374 66.184C216.246 66.424 216.086 66.696 215.894 67C215.718 67.288 215.558 67.584 215.414 67.888C215.286 68.176 215.222 68.456 215.222 68.728C215.222 68.936 215.278 69.136 215.39 69.328C215.502 69.504 215.686 69.592 215.942 69.592C216.326 69.592 216.862 69.312 217.55 68.752C218.254 68.176 218.966 67.208 219.686 65.848L220.142 66.304C219.758 67.168 219.294 67.936 218.75 68.608C218.222 69.264 217.662 69.776 217.07 70.144C216.478 70.528 215.878 70.72 215.27 70.72C214.614 70.72 214.126 70.512 213.806 70.096C213.486 69.68 213.31 69.232 213.278 68.752C213.278 68.72 213.278 68.696 213.278 68.68C213.278 68.664 213.278 68.648 213.278 68.632C212.638 69.4 212.046 70.008 211.502 70.456C210.974 70.904 210.406 71.128 209.798 71.128ZM229.366 70.48C228.742 70.48 228.262 70.32 227.926 70C227.606 69.696 227.446 69.304 227.446 68.824C227.446 68.504 227.502 68.168 227.614 67.816C227.726 67.448 227.838 67.08 227.95 66.712C228.062 66.344 228.118 65.992 228.118 65.656C228.118 65.304 228.03 65.064 227.854 64.936C227.694 64.792 227.502 64.72 227.278 64.72C226.798 64.72 226.302 64.92 225.79 65.32C225.294 65.704 224.806 66.192 224.326 66.784C223.862 67.376 223.422 67.992 223.006 68.632C222.59 69.272 222.23 69.848 221.926 70.36C221.622 70.36 221.334 70.304 221.062 70.192C220.79 70.096 220.558 69.92 220.366 69.664C220.382 69.584 220.478 69.344 220.654 68.944C220.814 68.528 220.998 68.04 221.206 67.48C221.414 66.904 221.598 66.304 221.758 65.68C221.918 65.056 221.998 64.488 221.998 63.976C222.11 63.848 222.278 63.72 222.502 63.592C222.742 63.464 222.99 63.4 223.246 63.4C223.806 63.4 224.086 63.64 224.086 64.12C224.086 64.312 224.046 64.6 223.966 64.984C223.902 65.352 223.806 65.776 223.678 66.256C224.094 65.696 224.55 65.168 225.046 64.672C225.542 64.176 226.054 63.776 226.582 63.472C227.126 63.152 227.67 62.992 228.214 62.992C228.902 62.992 229.406 63.224 229.726 63.688C230.062 64.152 230.23 64.664 230.23 65.224C230.23 65.704 230.15 66.152 229.99 66.568C229.83 66.984 229.67 67.376 229.51 67.744C229.366 68.112 229.294 68.472 229.294 68.824C229.294 69.08 229.35 69.264 229.462 69.376C229.59 69.472 229.726 69.52 229.87 69.52C230.254 69.52 230.654 69.336 231.07 68.968C231.486 68.6 231.878 68.136 232.246 67.576C232.63 67 232.966 66.424 233.254 65.848L233.662 66.184C233.326 66.968 232.942 67.688 232.51 68.344C232.094 68.984 231.622 69.504 231.094 69.904C230.582 70.288 230.006 70.48 229.366 70.48ZM236.966 71.104C236.262 71.104 235.694 70.896 235.262 70.48C234.83 70.064 234.614 69.432 234.614 68.584C234.614 67.928 234.734 67.112 234.974 66.136C235.23 65.16 235.55 64.152 235.934 63.112C235.822 63.08 235.686 63.056 235.526 63.04C235.382 63.008 235.238 62.96 235.094 62.896V62.152C235.35 62.184 235.558 62.208 235.718 62.224C235.894 62.24 236.07 62.256 236.246 62.272C236.582 61.424 236.942 60.608 237.326 59.824C237.726 59.024 238.118 58.312 238.502 57.688C238.902 57.064 239.278 56.576 239.63 56.224C239.982 55.856 240.294 55.672 240.566 55.672C240.726 55.672 240.878 55.736 241.022 55.864C241.166 55.976 241.238 56.144 241.238 56.368C241.238 56.688 241.07 57.144 240.734 57.736C240.414 58.328 240.014 59.024 239.534 59.824C239.054 60.608 238.59 61.448 238.142 62.344C238.27 62.344 238.398 62.344 238.526 62.344C238.654 62.344 238.774 62.344 238.886 62.344C239.59 62.344 240.222 62.336 240.782 62.32C241.358 62.288 241.942 62.24 242.534 62.176V62.968C241.654 63.048 240.846 63.112 240.11 63.16C239.374 63.208 238.67 63.24 237.998 63.256C237.95 63.256 237.902 63.256 237.854 63.256C237.806 63.256 237.758 63.256 237.71 63.256C237.374 64.04 237.078 64.848 236.822 65.68C236.582 66.496 236.462 67.296 236.462 68.08C236.462 68.736 236.566 69.2 236.774 69.472C236.982 69.744 237.31 69.88 237.758 69.88C238.558 69.88 239.374 69.52 240.206 68.8C241.054 68.064 241.79 67.072 242.414 65.824L242.75 66.064C242.334 67.008 241.814 67.864 241.19 68.632C240.582 69.4 239.918 70 239.198 70.432C238.478 70.88 237.734 71.104 236.966 71.104ZM246.64 71.056C245.616 71.056 244.824 70.776 244.264 70.216C243.72 69.672 243.448 68.984 243.448 68.152C243.448 67.448 243.624 66.704 243.976 65.92C244.344 65.12 244.832 64.376 245.44 63.688C246.048 62.984 246.72 62.416 247.456 61.984C248.192 61.552 248.928 61.336 249.664 61.336C250.08 61.336 250.472 61.448 250.84 61.672C251.224 61.88 251.416 62.304 251.416 62.944C251.416 63.552 251.24 64.12 250.888 64.648C250.536 65.176 250.064 65.648 249.472 66.064C248.88 66.48 248.224 66.824 247.504 67.096C246.8 67.352 246.088 67.52 245.368 67.6C245.352 67.664 245.336 67.736 245.32 67.816C245.32 67.88 245.32 67.992 245.32 68.152C245.32 68.232 245.328 68.376 245.344 68.584C245.376 68.776 245.448 68.984 245.56 69.208C245.672 69.432 245.856 69.624 246.112 69.784C246.368 69.944 246.72 70.024 247.168 70.024C247.84 70.024 248.512 69.84 249.184 69.472C249.872 69.088 250.512 68.584 251.104 67.96C251.712 67.336 252.216 66.64 252.616 65.872L253.096 66.256C252.664 67.216 252.104 68.056 251.416 68.776C250.744 69.496 249.992 70.056 249.16 70.456C248.344 70.856 247.504 71.056 246.64 71.056ZM245.632 66.712C246.048 66.664 246.512 66.52 247.024 66.28C247.536 66.04 248.024 65.736 248.488 65.368C248.968 65 249.36 64.6 249.664 64.168C249.968 63.72 250.12 63.272 250.12 62.824C250.12 62.648 250.088 62.528 250.024 62.464C249.96 62.4 249.856 62.368 249.712 62.368C249.344 62.368 248.96 62.504 248.56 62.776C248.16 63.032 247.768 63.376 247.384 63.808C247 64.224 246.656 64.688 246.352 65.2C246.048 65.712 245.808 66.216 245.632 66.712ZM250.768 59.944C250.56 59.864 250.408 59.736 250.312 59.56C250.232 59.368 250.192 59.232 250.192 59.152C250.192 59.024 250.272 58.816 250.432 58.528C250.592 58.224 250.8 57.912 251.056 57.592C251.312 57.256 251.576 56.976 251.848 56.752C252.136 56.512 252.408 56.392 252.664 56.392C252.84 56.392 252.992 56.456 253.12 56.584C253.264 56.696 253.352 56.912 253.384 57.232C252.824 57.776 252.328 58.256 251.896 58.672C251.48 59.072 251.104 59.496 250.768 59.944ZM256.98 71.056C255.956 71.056 255.164 70.776 254.604 70.216C254.06 69.672 253.788 68.984 253.788 68.152C253.788 67.448 253.964 66.704 254.316 65.92C254.684 65.12 255.172 64.376 255.78 63.688C256.388 62.984 257.06 62.416 257.796 61.984C258.532 61.552 259.268 61.336 260.004 61.336C260.42 61.336 260.812 61.448 261.18 61.672C261.564 61.88 261.756 62.304 261.756 62.944C261.756 63.552 261.58 64.12 261.228 64.648C260.876 65.176 260.404 65.648 259.812 66.064C259.22 66.48 258.564 66.824 257.844 67.096C257.14 67.352 256.428 67.52 255.708 67.6C255.692 67.664 255.676 67.736 255.66 67.816C255.66 67.88 255.66 67.992 255.66 68.152C255.66 68.232 255.668 68.376 255.684 68.584C255.716 68.776 255.788 68.984 255.9 69.208C256.012 69.432 256.196 69.624 256.452 69.784C256.708 69.944 257.06 70.024 257.508 70.024C258.18 70.024 258.852 69.84 259.524 69.472C260.212 69.088 260.852 68.584 261.444 67.96C262.052 67.336 262.556 66.64 262.956 65.872L263.436 66.256C263.004 67.216 262.444 68.056 261.756 68.776C261.084 69.496 260.332 70.056 259.5 70.456C258.684 70.856 257.844 71.056 256.98 71.056ZM255.972 66.712C256.388 66.664 256.852 66.52 257.364 66.28C257.876 66.04 258.364 65.736 258.828 65.368C259.308 65 259.7 64.6 260.004 64.168C260.308 63.72 260.46 63.272 260.46 62.824C260.46 62.648 260.428 62.528 260.364 62.464C260.3 62.4 260.196 62.368 260.052 62.368C259.684 62.368 259.3 62.504 258.9 62.776C258.5 63.032 258.108 63.376 257.724 63.808C257.34 64.224 256.996 64.688 256.692 65.2C256.388 65.712 256.148 66.216 255.972 66.712Z" fill="#0F2627"/>
<path fill-rule="evenodd" clip-rule="evenodd" d="M155.875 35H132.661H109.447V33.3871H155.875V35Z" fill="url(#paint0_radial_68_3)"/>
<path d="M128.849 11.0994C132.52 17.0211 133.112 23.5987 132.614 28.2803C130.398 21.1079 125.25 15.3555 118.663 12.1506C118.449 10.7747 118.398 8.7729 118.492 6.77287C118.575 4.98443 118.771 3.24647 119.051 2.00113C123.474 4.42474 126.567 7.51858 128.68 10.8312C128.707 10.9307 128.762 11.0236 128.845 11.0965L128.849 11.0994Z" fill="#1C959C"/>
<path d="M146.027 1.40194C147.389 6.25367 146.876 10.5194 146.418 12.189C140.876 15.0648 136.316 19.9505 133.833 25.8925C133.872 23.6751 133.668 21.2013 133.079 18.6508C133.642 15.8981 134.698 13.3155 136.04 11.014C136.065 10.9813 136.085 10.9463 136.101 10.9098C136.864 9.61516 137.716 8.41072 138.62 7.31642C140.994 4.44464 143.696 2.36837 146.027 1.40194Z" fill="#1C959C"/>
<path d="M134.941 10.7684C134.187 10.0401 133.287 9.69097 132.405 9.69097C131.533 9.69097 130.644 10.0315 129.896 10.7416C131.042 12.6319 131.89 14.5832 132.499 16.5194C133.093 14.4736 133.936 12.5419 134.941 10.7684Z" fill="#1E4C4F"/>
<path fill-rule="evenodd" clip-rule="evenodd" d="M133.252 4.02522C133.252 4.42264 132.93 4.74482 132.533 4.74482C132.135 4.74482 131.813 4.42264 131.813 4.02522C131.813 3.62781 132.135 3.30563 132.533 3.30563C132.93 3.30563 133.252 3.62781 133.252 4.02522ZM134.328 4.02522C134.328 5.01649 133.524 5.82007 132.533 5.82007C131.542 5.82007 130.738 5.01649 130.738 4.02522C130.738 3.03396 131.542 2.23038 132.533 2.23038C133.524 2.23038 134.328 3.03396 134.328 4.02522ZM132.533 0.642327C132.364 0.642327 132.227 0.779343 132.227 0.94836C132.227 1.11738 132.364 1.25439 132.533 1.25439C132.702 1.25439 132.839 1.11738 132.839 0.94836C132.839 0.779343 132.702 0.642327 132.533 0.642327ZM132.533 1.71758C132.958 1.71758 133.302 1.37319 133.302 0.94836C133.302 0.523533 132.958 0.179142 132.533 0.179142C132.108 0.179142 131.764 0.523533 131.764 0.94836C131.764 1.37319 132.108 1.71758 132.533 1.71758Z" fill="#1C959C"/>
<path d="M133.396 30.9092C143.193 30.5842 149.09 25.4345 152.568 20.2942C154.347 17.6654 155.49 15.0409 156.188 13.0721C156.537 12.0886 156.774 11.2709 156.924 10.7012C156.945 10.6191 156.965 10.5421 156.983 10.4706C145.857 10.8121 135.768 19.5212 133.396 30.9092Z" fill="#1E4C4F"/>
<path d="M132.181 30.9242L132.183 30.9137C129.822 19.5523 119.978 11.2917 108.35 10.4988C108.368 10.5676 108.388 10.6412 108.409 10.7193C108.565 11.3022 108.812 12.1382 109.173 13.1421C109.895 15.1515 111.071 17.8243 112.881 20.4853C116.424 25.6912 122.383 30.8393 132.181 30.9242Z" fill="#1E4C4F"/>
<defs>
<radialGradient id="paint0_radial_68_3" cx="0" cy="0" r="1" gradientUnits="userSpaceOnUse" gradientTransform="translate(132.656 34.9998) scale(25.6559 15080.3)">
<stop stop-color="#1E4C4F"/>
<stop offset="0.682659" stop-color="#1E4C4F" stop-opacity="0.08"/>
<stop offset="0.927083" stop-color="#7C5460" stop-opacity="0.0183819"/>
<stop offset="1" stop-color="#7C5460" stop-opacity="0"/>
</radialGradient>
</defs>
</svg>
