<svg width="40" height="29" viewBox="0 0 40 29" fill="none" xmlns="http://www.w3.org/2000/svg">
<path fill-rule="evenodd" clip-rule="evenodd" d="M39.0054 28.6484H20.0042H1.003V27.3282H39.0054V28.6484Z" fill="url(#paint0_radial_14_170)"/>
<path d="M16.8838 9.08512C19.8886 13.9322 20.3736 19.3161 19.9654 23.1482C18.1521 17.2774 13.9379 12.5689 8.54645 9.94562C8.3717 8.81936 8.3299 7.18085 8.40611 5.54377C8.47425 4.07989 8.63492 2.65732 8.86378 1.63798C12.4846 3.62177 15.0161 6.15415 16.7458 8.86565C16.7675 8.94706 16.8129 9.0231 16.8811 9.08275L16.8838 9.08512Z" fill="#1C959C"/>
<path d="M30.9448 1.14753C32.0591 5.11879 31.6397 8.61039 31.2644 9.97699C26.728 12.3309 22.9961 16.33 20.9636 21.1937C20.9957 19.3787 20.8283 17.3538 20.3465 15.2662C20.8071 13.0131 21.6719 10.8991 22.7701 9.01525C22.7902 8.98845 22.8069 8.95981 22.8201 8.92993C23.4441 7.87026 24.1416 6.88439 24.882 5.98868C26.8248 3.63806 29.0369 1.93857 30.9448 1.14753Z" fill="#1C959C"/>
<path d="M21.8705 8.81421C21.2533 8.21808 20.5167 7.93231 19.7943 7.93231C19.0808 7.93231 18.3535 8.21106 17.741 8.79227C18.6788 10.3395 19.3728 11.9367 19.8718 13.5215C20.3574 11.847 21.0474 10.2659 21.8705 8.81421Z" fill="#1E4C4F"/>
<path fill-rule="evenodd" clip-rule="evenodd" d="M20.4883 3.29475C20.4883 3.62005 20.2246 3.88376 19.8993 3.88376C19.574 3.88376 19.3103 3.62005 19.3103 3.29475C19.3103 2.96945 19.574 2.70575 19.8993 2.70575C20.2246 2.70575 20.4883 2.96945 20.4883 3.29475ZM21.3684 3.29475C21.3684 4.10613 20.7106 4.76388 19.8993 4.76388C19.0879 4.76388 18.4301 4.10613 18.4301 3.29475C18.4301 2.48338 19.0879 1.82563 19.8993 1.82563C20.7106 1.82563 21.3684 2.48338 21.3684 3.29475ZM19.8993 0.525762C19.7609 0.525762 19.6488 0.637913 19.6488 0.776258C19.6488 0.914603 19.7609 1.02675 19.8993 1.02675C20.0376 1.02675 20.1498 0.914603 20.1498 0.776258C20.1498 0.637913 20.0376 0.525762 19.8993 0.525762ZM19.8993 1.40588C20.247 1.40588 20.5289 1.12399 20.5289 0.776258C20.5289 0.428525 20.247 0.146632 19.8993 0.146632C19.5515 0.146632 19.2696 0.428525 19.2696 0.776258C19.2696 1.12399 19.5515 1.40588 19.8993 1.40588Z" fill="#1C959C"/>
<path d="M20.6062 25.3C28.6247 25.034 33.4516 20.8188 36.2986 16.6113C37.7546 14.4596 38.6903 12.3114 39.262 10.6999C39.5475 9.8948 39.7416 9.2255 39.8638 8.75918C39.8815 8.69198 39.8976 8.62901 39.9123 8.57048C30.8053 8.85001 22.5475 15.9786 20.6062 25.3Z" fill="#1E4C4F"/>
<path d="M19.6109 25.3123L19.6129 25.3037C17.6801 16.004 9.62253 9.24257 0.105418 8.59356C0.119946 8.64986 0.135763 8.71006 0.152915 8.77399C0.280942 9.25118 0.483169 9.93545 0.778589 10.7571C1.36993 12.4019 2.33195 14.5896 3.81412 16.7678C6.71371 21.0289 11.5912 25.2428 19.6109 25.3123Z" fill="#1E4C4F"/>
<defs>
<radialGradient id="paint0_radial_14_170" cx="0" cy="0" r="1" gradientUnits="userSpaceOnUse" gradientTransform="translate(20 28.6482) scale(21 12343.7)">
<stop stop-color="#1E4C4F"/>
<stop offset="0.682659" stop-color="#1E4C4F" stop-opacity="0.08"/>
<stop offset="0.927083" stop-color="#7C5460" stop-opacity="0.0183819"/>
<stop offset="1" stop-color="#7C5460" stop-opacity="0"/>
</radialGradient>
</defs>
</svg>
