<svg width="386" height="32" viewBox="0 0 386 32" fill="none" xmlns="http://www.w3.org/2000/svg">
<path d="M72.11 25.61C71.37 25.61 70.54 25.46 69.62 25.16C68.7 24.86 67.75 24.5 66.77 24.08C65.81 23.66 64.87 23.26 63.95 22.88C63.45 23.42 62.91 23.84 62.33 24.14C61.75 24.44 61.13 24.59 60.47 24.59C59.77 24.59 59.17 24.43 58.67 24.11C58.15 23.81 57.76 23.44 57.5 23C57.22 22.56 57.08 22.16 57.08 21.8C57.08 21.4 57.26 21.05 57.62 20.75C57.98 20.45 58.62 20.3 59.54 20.3C60.08 20.3 60.67 20.36 61.31 20.48C61.97 20.58 62.64 20.72 63.32 20.9C63.78 20.1 64.2 19.16 64.58 18.08C64.98 17 65.37 15.87 65.75 14.69C66.13 13.49 66.51 12.32 66.89 11.18C65.89 10.84 65.12 10.37 64.58 9.77C64.04 9.15 63.77 8.53 63.77 7.91C63.77 7.51 63.87 7.12 64.07 6.74C64.27 6.34 64.56 6.01 64.94 5.75C65.32 5.47 65.77 5.33 66.29 5.33C66.03 5.65 65.86 6.01 65.78 6.41C65.72 6.81 65.69 7.13 65.69 7.37C65.69 8.03 65.84 8.59 66.14 9.05C66.44 9.51 66.81 9.87 67.25 10.13C67.63 8.99 68.03 7.9 68.45 6.86C68.89 5.8 69.37 4.87 69.89 4.07C70.43 3.25 71.02 2.6 71.66 2.12C72.32 1.64 73.06 1.4 73.88 1.4C74.34 1.4 74.82 1.5 75.32 1.7C75.84 1.88 76.28 2.2 76.64 2.66C77.02 3.12 77.21 3.78 77.21 4.64C77.21 5.32 77.06 6.05 76.76 6.83C76.48 7.61 76.03 8.36 75.41 9.08C74.79 9.78 73.99 10.37 73.01 10.85C72.05 11.31 70.88 11.56 69.5 11.6C69.46 11.6 69.41 11.6 69.35 11.6C69.31 11.6 69.27 11.6 69.23 11.6C68.85 12.76 68.45 13.93 68.03 15.11C67.61 16.29 67.16 17.42 66.68 18.5C66.2 19.58 65.68 20.54 65.12 21.38C65.9 21.6 66.76 21.85 67.7 22.13C68.66 22.41 69.61 22.65 70.55 22.85C71.51 23.03 72.35 23.12 73.07 23.12C73.55 23.12 73.99 23.07 74.39 22.97C74.81 22.85 75.25 22.68 75.71 22.46C75.31 23.58 74.81 24.38 74.21 24.86C73.63 25.36 72.93 25.61 72.11 25.61ZM60.17 23.48C60.69 23.48 61.11 23.36 61.43 23.12C61.75 22.9 62.07 22.62 62.39 22.28C61.77 22.06 61.19 21.88 60.65 21.74C60.11 21.58 59.64 21.5 59.24 21.5C58.86 21.5 58.59 21.57 58.43 21.71C58.25 21.85 58.16 22.02 58.16 22.22C58.16 22.54 58.36 22.83 58.76 23.09C59.16 23.35 59.63 23.48 60.17 23.48ZM69.56 10.61C70.44 10.55 71.22 10.27 71.9 9.77C72.58 9.27 73.16 8.67 73.64 7.97C74.12 7.27 74.48 6.56 74.72 5.84C74.98 5.1 75.11 4.46 75.11 3.92C75.11 3.4 75.01 3.05 74.81 2.87C74.61 2.67 74.38 2.57 74.12 2.57C73.54 2.57 72.99 2.94 72.47 3.68C71.95 4.42 71.45 5.4 70.97 6.62C70.51 7.82 70.04 9.15 69.56 10.61ZM81.6905 24.41C81.0305 24.41 80.4605 24.19 79.9805 23.75C79.4805 23.31 79.2305 22.65 79.2305 21.77C79.2305 21.07 79.3905 20.31 79.7105 19.49C80.0305 18.67 80.4705 17.86 81.0305 17.06C81.5905 16.26 82.2305 15.54 82.9505 14.9C83.6705 14.24 84.4405 13.71 85.2605 13.31C86.0805 12.91 86.9005 12.71 87.7205 12.71C88.5805 12.71 89.3105 12.93 89.9105 13.37C90.5105 13.81 90.8105 14.39 90.8105 15.11C90.8105 15.65 90.6205 16.04 90.2405 16.28C89.8605 16.52 89.4105 16.59 88.8905 16.49C88.9305 16.31 88.9605 16.13 88.9805 15.95C89.0205 15.77 89.0405 15.58 89.0405 15.38C89.0405 14.98 88.9605 14.62 88.8005 14.3C88.6405 13.98 88.3005 13.82 87.7805 13.82C87.2205 13.82 86.6505 14.01 86.0705 14.39C85.4905 14.77 84.9305 15.27 84.3905 15.89C83.8705 16.49 83.4005 17.16 82.9805 17.9C82.5605 18.62 82.2305 19.33 81.9905 20.03C81.7505 20.73 81.6305 21.36 81.6305 21.92C81.6305 22.56 81.8605 22.88 82.3205 22.88C82.7805 22.88 83.2905 22.66 83.8505 22.22C84.4105 21.76 84.9705 21.19 85.5305 20.51C86.1105 19.83 86.6605 19.14 87.1805 18.44C87.7005 17.72 88.1505 17.11 88.5305 16.61C88.5905 16.51 88.6705 16.46 88.7705 16.46C88.8505 16.48 89.0005 16.53 89.2205 16.61C89.4605 16.67 89.6805 16.77 89.8805 16.91C90.0805 17.05 90.1805 17.23 90.1805 17.45C90.1805 17.65 90.0905 17.91 89.9105 18.23C89.7505 18.53 89.5505 18.87 89.3105 19.25C89.0905 19.61 88.8905 19.98 88.7105 20.36C88.5505 20.72 88.4705 21.07 88.4705 21.41C88.4705 21.67 88.5405 21.92 88.6805 22.16C88.8205 22.38 89.0505 22.49 89.3705 22.49C89.8505 22.49 90.5205 22.14 91.3805 21.44C92.2605 20.72 93.1505 19.51 94.0505 17.81L94.6205 18.38C94.1405 19.46 93.5605 20.42 92.8805 21.26C92.2205 22.08 91.5205 22.72 90.7805 23.18C90.0405 23.66 89.2905 23.9 88.5305 23.9C87.7105 23.9 87.1005 23.64 86.7005 23.12C86.3005 22.6 86.0805 22.04 86.0405 21.44C86.0405 21.4 86.0405 21.37 86.0405 21.35C86.0405 21.33 86.0405 21.31 86.0405 21.29C85.2405 22.25 84.5005 23.01 83.8205 23.57C83.1605 24.13 82.4505 24.41 81.6905 24.41ZM104.854 31.4C104.694 31.4 104.524 31.35 104.344 31.25C104.164 31.17 104.014 31.07 103.894 30.95C103.754 30.83 103.674 30.73 103.654 30.65C104.154 29.19 104.584 27.92 104.944 26.84C105.284 25.78 105.574 24.77 105.814 23.81C106.054 22.87 106.274 21.89 106.474 20.87C106.654 19.83 106.834 18.65 107.014 17.33C107.214 15.99 107.434 14.38 107.674 12.5C107.714 12.26 107.764 12.09 107.824 11.99C107.884 11.87 108.074 11.81 108.394 11.81C109.014 11.81 109.464 11.98 109.744 12.32C110.024 12.64 110.164 13 110.164 13.4C110.164 13.6 110.124 13.95 110.044 14.45C109.984 14.95 109.884 15.54 109.744 16.22C110.124 15.64 110.554 15.09 111.034 14.57C111.534 14.05 112.084 13.63 112.684 13.31C113.284 12.97 113.934 12.8 114.634 12.8C115.614 12.8 116.424 13.13 117.064 13.79C117.704 14.45 118.024 15.32 118.024 16.4C118.024 17.18 117.844 18.01 117.484 18.89C117.144 19.75 116.654 20.57 116.014 21.35C115.374 22.11 114.604 22.73 113.704 23.21C112.804 23.71 111.814 23.96 110.734 23.96C110.094 23.96 109.584 23.88 109.204 23.72C108.824 23.56 108.634 23.38 108.634 23.18C108.634 23.04 108.704 22.96 108.844 22.94C109.004 22.9 109.174 22.88 109.354 22.88C110.294 22.86 111.144 22.66 111.904 22.28C112.684 21.9 113.354 21.41 113.914 20.81C114.474 20.19 114.904 19.53 115.204 18.83C115.504 18.13 115.654 17.44 115.654 16.76C115.654 16.16 115.514 15.64 115.234 15.2C114.974 14.76 114.554 14.54 113.974 14.54C113.474 14.54 112.964 14.7 112.444 15.02C111.944 15.34 111.474 15.75 111.034 16.25C110.594 16.73 110.204 17.24 109.864 17.78C109.524 18.3 109.264 18.76 109.084 19.16C108.704 20.48 108.354 21.79 108.034 23.09C107.734 24.41 107.444 25.63 107.164 26.75C106.884 27.87 106.604 28.82 106.324 29.6C106.024 30.38 105.704 30.91 105.364 31.19C105.204 31.33 105.034 31.4 104.854 31.4ZM123.306 24.41C122.646 24.41 122.076 24.19 121.596 23.75C121.096 23.31 120.846 22.65 120.846 21.77C120.846 21.07 121.006 20.31 121.326 19.49C121.646 18.67 122.086 17.86 122.646 17.06C123.206 16.26 123.846 15.54 124.566 14.9C125.286 14.24 126.056 13.71 126.876 13.31C127.696 12.91 128.516 12.71 129.336 12.71C130.196 12.71 130.926 12.93 131.526 13.37C132.126 13.81 132.426 14.39 132.426 15.11C132.426 15.65 132.236 16.04 131.856 16.28C131.476 16.52 131.026 16.59 130.506 16.49C130.546 16.31 130.576 16.13 130.596 15.95C130.636 15.77 130.656 15.58 130.656 15.38C130.656 14.98 130.576 14.62 130.416 14.3C130.256 13.98 129.916 13.82 129.396 13.82C128.836 13.82 128.266 14.01 127.686 14.39C127.106 14.77 126.546 15.27 126.006 15.89C125.486 16.49 125.016 17.16 124.596 17.9C124.176 18.62 123.846 19.33 123.606 20.03C123.366 20.73 123.246 21.36 123.246 21.92C123.246 22.56 123.476 22.88 123.936 22.88C124.396 22.88 124.906 22.66 125.466 22.22C126.026 21.76 126.586 21.19 127.146 20.51C127.726 19.83 128.276 19.14 128.796 18.44C129.316 17.72 129.766 17.11 130.146 16.61C130.206 16.51 130.286 16.46 130.386 16.46C130.466 16.48 130.616 16.53 130.836 16.61C131.076 16.67 131.296 16.77 131.496 16.91C131.696 17.05 131.796 17.23 131.796 17.45C131.796 17.65 131.706 17.91 131.526 18.23C131.366 18.53 131.166 18.87 130.926 19.25C130.706 19.61 130.506 19.98 130.326 20.36C130.166 20.72 130.086 21.07 130.086 21.41C130.086 21.67 130.156 21.92 130.296 22.16C130.436 22.38 130.666 22.49 130.986 22.49C131.466 22.49 132.136 22.14 132.996 21.44C133.876 20.72 134.766 19.51 135.666 17.81L136.236 18.38C135.756 19.46 135.176 20.42 134.496 21.26C133.836 22.08 133.136 22.72 132.396 23.18C131.656 23.66 130.906 23.9 130.146 23.9C129.326 23.9 128.716 23.64 128.316 23.12C127.916 22.6 127.696 22.04 127.656 21.44C127.656 21.4 127.656 21.37 127.656 21.35C127.656 21.33 127.656 21.31 127.656 21.29C126.856 22.25 126.116 23.01 125.436 23.57C124.776 24.13 124.066 24.41 123.306 24.41ZM143.206 23.78C142.466 23.78 141.866 23.58 141.406 23.18C140.946 22.8 140.716 22.28 140.716 21.62C140.716 21.06 140.856 20.46 141.136 19.82C141.416 19.18 141.696 18.55 141.976 17.93C142.276 17.31 142.426 16.76 142.426 16.28C142.426 15.82 142.276 15.44 141.976 15.14C141.676 14.82 141.326 14.56 140.926 14.36C140.486 15.46 139.986 16.53 139.426 17.57C138.886 18.59 138.446 19.39 138.106 19.97L137.656 19.1C137.936 18.58 138.306 17.84 138.766 16.88C139.226 15.92 139.666 14.85 140.086 13.67C139.886 13.47 139.786 13.2 139.786 12.86C139.786 12.34 139.946 11.85 140.266 11.39C140.586 10.93 140.896 10.7 141.196 10.7C141.436 10.7 141.606 10.84 141.706 11.12C141.826 11.38 141.886 11.56 141.886 11.66C141.886 11.76 141.836 11.94 141.736 12.2C141.656 12.46 141.596 12.65 141.556 12.77C141.576 12.99 141.746 13.21 142.066 13.43C142.406 13.63 142.786 13.87 143.206 14.15C143.626 14.43 143.996 14.78 144.316 15.2C144.636 15.62 144.796 16.15 144.796 16.79C144.796 17.37 144.666 17.96 144.406 18.56C144.146 19.16 143.886 19.72 143.626 20.24C143.366 20.76 143.236 21.21 143.236 21.59C143.236 21.87 143.306 22.06 143.446 22.16C143.606 22.24 143.786 22.28 143.986 22.28C144.466 22.28 144.966 22.14 145.486 21.86C146.006 21.56 146.516 21.18 147.016 20.72C147.516 20.26 147.956 19.78 148.336 19.28C148.716 18.76 149.006 18.29 149.206 17.87L149.926 18.41C149.546 19.27 148.996 20.12 148.276 20.96C147.556 21.78 146.756 22.46 145.876 23C144.996 23.52 144.106 23.78 143.206 23.78ZM154.735 24.32C153.455 24.32 152.465 23.97 151.765 23.27C151.085 22.59 150.745 21.73 150.745 20.69C150.745 19.81 150.965 18.88 151.405 17.9C151.865 16.9 152.475 15.97 153.235 15.11C153.995 14.23 154.835 13.52 155.755 12.98C156.675 12.44 157.595 12.17 158.515 12.17C159.035 12.17 159.525 12.31 159.985 12.59C160.465 12.85 160.705 13.38 160.705 14.18C160.705 14.94 160.485 15.65 160.045 16.31C159.605 16.97 159.015 17.56 158.275 18.08C157.535 18.6 156.715 19.03 155.815 19.37C154.935 19.69 154.045 19.9 153.145 20C153.125 20.08 153.105 20.17 153.085 20.27C153.085 20.35 153.085 20.49 153.085 20.69C153.085 20.79 153.095 20.97 153.115 21.23C153.155 21.47 153.245 21.73 153.385 22.01C153.525 22.29 153.755 22.53 154.075 22.73C154.395 22.93 154.835 23.03 155.395 23.03C156.235 23.03 157.075 22.8 157.915 22.34C158.775 21.86 159.575 21.23 160.315 20.45C161.075 19.67 161.705 18.8 162.205 17.84L162.805 18.32C162.265 19.52 161.565 20.57 160.705 21.47C159.865 22.37 158.925 23.07 157.885 23.57C156.865 24.07 155.815 24.32 154.735 24.32ZM153.475 18.89C153.995 18.83 154.575 18.65 155.215 18.35C155.855 18.05 156.465 17.67 157.045 17.21C157.645 16.75 158.135 16.25 158.515 15.71C158.895 15.15 159.085 14.59 159.085 14.03C159.085 13.81 159.045 13.66 158.965 13.58C158.885 13.5 158.755 13.46 158.575 13.46C158.115 13.46 157.635 13.63 157.135 13.97C156.635 14.29 156.145 14.72 155.665 15.26C155.185 15.78 154.755 16.36 154.375 17C153.995 17.64 153.695 18.27 153.475 18.89ZM174.289 23.6C173.509 23.6 172.909 23.4 172.489 23C172.089 22.62 171.889 22.13 171.889 21.53C171.889 21.13 171.959 20.71 172.099 20.27C172.239 19.81 172.379 19.35 172.519 18.89C172.659 18.43 172.729 17.99 172.729 17.57C172.729 17.13 172.619 16.83 172.399 16.67C172.199 16.49 171.959 16.4 171.679 16.4C171.079 16.4 170.459 16.65 169.819 17.15C169.199 17.63 168.589 18.24 167.989 18.98C167.409 19.72 166.859 20.49 166.339 21.29C165.819 22.09 165.369 22.81 164.989 23.45C164.609 23.45 164.249 23.38 163.909 23.24C163.569 23.12 163.279 22.9 163.039 22.58C163.059 22.48 163.179 22.18 163.399 21.68C163.599 21.16 163.829 20.55 164.089 19.85C164.349 19.13 164.579 18.38 164.779 17.6C164.979 16.82 165.079 16.11 165.079 15.47C165.219 15.31 165.429 15.15 165.709 14.99C166.009 14.83 166.319 14.75 166.639 14.75C167.339 14.75 167.689 15.05 167.689 15.65C167.689 15.89 167.639 16.25 167.539 16.73C167.459 17.19 167.339 17.72 167.179 18.32C167.699 17.62 168.269 16.96 168.889 16.34C169.509 15.72 170.149 15.22 170.809 14.84C171.489 14.44 172.169 14.24 172.849 14.24C173.709 14.24 174.339 14.53 174.739 15.11C175.159 15.69 175.369 16.33 175.369 17.03C175.369 17.63 175.269 18.19 175.069 18.71C174.869 19.23 174.669 19.72 174.469 20.18C174.289 20.64 174.199 21.09 174.199 21.53C174.199 21.85 174.269 22.08 174.409 22.22C174.569 22.34 174.739 22.4 174.919 22.4C175.399 22.4 175.899 22.17 176.419 21.71C176.939 21.25 177.429 20.67 177.889 19.97C178.369 19.25 178.789 18.53 179.149 17.81L179.659 18.23C179.239 19.21 178.759 20.11 178.219 20.93C177.699 21.73 177.109 22.38 176.449 22.88C175.809 23.36 175.089 23.6 174.289 23.6ZM183.909 24.38C182.969 24.38 182.219 24.12 181.659 23.6C181.119 23.08 180.849 22.3 180.849 21.26C180.849 20.68 180.929 19.99 181.089 19.19C181.249 18.39 181.459 17.54 181.719 16.64C181.999 15.72 182.299 14.82 182.619 13.94C182.439 13.88 182.269 13.83 182.109 13.79C181.969 13.73 181.779 13.65 181.539 13.55V12.62C181.899 12.68 182.169 12.74 182.349 12.8C182.529 12.84 182.749 12.88 183.009 12.92C183.569 11.5 184.169 10.19 184.809 8.99C185.449 7.79 186.069 6.83 186.669 6.11C187.269 5.39 187.789 5.03 188.229 5.03C188.449 5.03 188.649 5.11 188.829 5.27C189.009 5.43 189.099 5.61 189.099 5.81C189.099 6.05 188.979 6.44 188.739 6.98C188.499 7.52 188.189 8.13 187.809 8.81C187.449 9.47 187.079 10.13 186.699 10.79C186.339 11.45 186.009 12.02 185.709 12.5C185.429 12.98 185.259 13.29 185.199 13.43C185.719 13.51 186.199 13.58 186.639 13.64C187.079 13.68 187.519 13.7 187.959 13.7C188.539 13.7 189.139 13.66 189.759 13.58C190.379 13.5 191.069 13.39 191.829 13.25C192.369 11.81 192.969 10.4 193.629 9.02C194.289 7.62 194.959 6.37 195.639 5.27C196.339 4.15 196.999 3.26 197.619 2.6C198.259 1.92 198.819 1.58 199.299 1.58C199.699 1.58 200.009 1.81 200.229 2.27C200.449 2.71 200.559 3.19 200.559 3.71C200.559 4.37 200.389 5.17 200.049 6.11C199.709 7.05 199.239 8.02 198.639 9.02C198.039 10.02 197.329 10.96 196.509 11.84C195.709 12.72 194.839 13.43 193.899 13.97C193.639 14.57 193.399 15.32 193.179 16.22C192.979 17.1 192.819 17.96 192.699 18.8C192.579 19.64 192.519 20.31 192.519 20.81C192.999 19.55 193.539 18.39 194.139 17.33C194.739 16.27 195.409 15.42 196.149 14.78C196.909 14.14 197.729 13.82 198.609 13.82C199.529 13.82 200.199 14.13 200.619 14.75C201.039 15.35 201.249 16.01 201.249 16.73C201.249 17.31 201.139 17.9 200.919 18.5C200.719 19.08 200.509 19.64 200.289 20.18C200.089 20.7 199.989 21.17 199.989 21.59C199.989 21.95 200.069 22.2 200.229 22.34C200.409 22.48 200.599 22.55 200.799 22.55C201.239 22.55 201.749 22.33 202.329 21.89C202.929 21.43 203.509 20.83 204.069 20.09C204.649 19.35 205.129 18.56 205.509 17.72L206.079 18.26C205.639 19.26 205.109 20.18 204.489 21.02C203.869 21.86 203.179 22.52 202.419 23C201.679 23.5 200.889 23.75 200.049 23.75C199.289 23.75 198.699 23.55 198.279 23.15C197.879 22.75 197.679 22.25 197.679 21.65C197.679 21.23 197.749 20.78 197.889 20.3C198.049 19.8 198.199 19.29 198.339 18.77C198.479 18.25 198.549 17.77 198.549 17.33C198.549 16.87 198.449 16.54 198.249 16.34C198.069 16.14 197.819 16.04 197.499 16.04C197.019 16.04 196.579 16.24 196.179 16.64C195.799 17.02 195.449 17.52 195.129 18.14C194.809 18.76 194.509 19.42 194.229 20.12C193.949 20.8 193.669 21.45 193.389 22.07C193.129 22.69 192.849 23.19 192.549 23.57C192.269 23.97 191.959 24.17 191.619 24.17C191.319 24.17 191.069 24.02 190.869 23.72C190.689 23.42 190.539 23.06 190.419 22.64C190.299 22.22 190.219 21.81 190.179 21.41C190.139 20.99 190.119 20.67 190.119 20.45C189.319 21.61 188.379 22.55 187.299 23.27C186.239 24.01 185.109 24.38 183.909 24.38ZM184.779 22.88C185.779 22.88 186.779 22.45 187.779 21.59C188.799 20.71 189.679 19.51 190.419 17.99C190.539 17.39 190.669 16.82 190.809 16.28C190.949 15.74 191.129 15.15 191.349 14.51C190.749 14.63 190.169 14.72 189.609 14.78C189.049 14.84 188.499 14.87 187.959 14.87C187.419 14.87 186.879 14.84 186.339 14.78C185.799 14.72 185.249 14.64 184.689 14.54C184.249 15.52 183.889 16.51 183.609 17.51C183.329 18.51 183.189 19.53 183.189 20.57C183.189 21.39 183.299 21.98 183.519 22.34C183.759 22.7 184.179 22.88 184.779 22.88ZM194.499 12.08C195.079 11.58 195.619 11.02 196.119 10.4C196.619 9.78 197.059 9.15 197.439 8.51C197.839 7.85 198.169 7.23 198.429 6.65C198.709 6.05 198.899 5.53 198.999 5.09C199.059 4.81 199.089 4.59 199.089 4.43C198.929 4.47 198.669 4.69 198.309 5.09C197.969 5.49 197.569 6.04 197.109 6.74C196.649 7.42 196.189 8.22 195.729 9.14C195.269 10.04 194.859 11.02 194.499 12.08ZM210.969 24.32C209.689 24.32 208.699 23.97 207.999 23.27C207.319 22.59 206.979 21.73 206.979 20.69C206.979 19.81 207.199 18.88 207.639 17.9C208.099 16.9 208.709 15.97 209.469 15.11C210.229 14.23 211.069 13.52 211.989 12.98C212.909 12.44 213.829 12.17 214.749 12.17C215.269 12.17 215.759 12.31 216.219 12.59C216.699 12.85 216.939 13.38 216.939 14.18C216.939 14.94 216.719 15.65 216.279 16.31C215.839 16.97 215.249 17.56 214.509 18.08C213.769 18.6 212.949 19.03 212.049 19.37C211.169 19.69 210.279 19.9 209.379 20C209.359 20.08 209.339 20.17 209.319 20.27C209.319 20.35 209.319 20.49 209.319 20.69C209.319 20.79 209.329 20.97 209.349 21.23C209.389 21.47 209.479 21.73 209.619 22.01C209.759 22.29 209.989 22.53 210.309 22.73C210.629 22.93 211.069 23.03 211.629 23.03C212.469 23.03 213.309 22.8 214.149 22.34C215.009 21.86 215.809 21.23 216.549 20.45C217.309 19.67 217.939 18.8 218.439 17.84L219.039 18.32C218.499 19.52 217.799 20.57 216.939 21.47C216.099 22.37 215.159 23.07 214.119 23.57C213.099 24.07 212.049 24.32 210.969 24.32ZM209.709 18.89C210.229 18.83 210.809 18.65 211.449 18.35C212.089 18.05 212.699 17.67 213.279 17.21C213.879 16.75 214.369 16.25 214.749 15.71C215.129 15.15 215.319 14.59 215.319 14.03C215.319 13.81 215.279 13.66 215.199 13.58C215.119 13.5 214.989 13.46 214.809 13.46C214.349 13.46 213.869 13.63 213.369 13.97C212.869 14.29 212.379 14.72 211.899 15.26C211.419 15.78 210.989 16.36 210.609 17C210.229 17.64 209.929 18.27 209.709 18.89ZM216.879 10.46C216.419 9.9 215.919 9.37 215.379 8.87C214.859 8.35 214.189 7.78 213.369 7.16C213.409 6.76 213.519 6.47 213.699 6.29C213.899 6.09 214.109 5.99 214.329 5.99C214.629 5.99 214.969 6.13 215.349 6.41C215.729 6.67 216.089 7 216.429 7.4C216.789 7.8 217.079 8.19 217.299 8.57C217.519 8.93 217.629 9.2 217.629 9.38C217.629 9.52 217.559 9.71 217.419 9.95C217.299 10.19 217.119 10.36 216.879 10.46ZM223.924 24.53C222.924 24.53 222.114 24.32 221.494 23.9C220.894 23.5 220.464 22.99 220.204 22.37C219.944 21.73 219.814 21.08 219.814 20.42C219.814 19.84 219.894 19.39 220.054 19.07C220.214 18.75 220.414 18.52 220.654 18.38C220.894 18.22 221.114 18.1 221.314 18.02C221.534 17.94 221.694 17.85 221.794 17.75C222.294 17.23 222.804 16.63 223.324 15.95C223.864 15.25 224.324 14.48 224.704 13.64V13.34C224.704 12.54 224.834 11.98 225.094 11.66C225.374 11.32 225.694 11.15 226.054 11.15C226.294 11.15 226.464 11.21 226.564 11.33C226.684 11.45 226.754 11.59 226.774 11.75C226.774 11.87 226.744 12.01 226.684 12.17C226.644 12.33 226.624 12.55 226.624 12.83C226.624 13.43 226.764 14.12 227.044 14.9C227.344 15.66 227.634 16.47 227.914 17.33C228.214 18.19 228.364 19.07 228.364 19.97C228.364 20.21 228.354 20.43 228.334 20.63C228.314 20.83 228.284 21.02 228.244 21.2C228.864 21.04 229.474 20.7 230.074 20.18C230.674 19.64 231.244 18.85 231.784 17.81L232.144 18.08C231.764 19.22 231.214 20.14 230.494 20.84C229.774 21.52 228.934 21.94 227.974 22.1C227.654 22.92 227.124 23.53 226.384 23.93C225.664 24.33 224.844 24.53 223.924 24.53ZM223.714 23.21C224.114 23.21 224.484 23.11 224.824 22.91C225.164 22.71 225.434 22.42 225.634 22.04C224.814 21.86 224.074 21.54 223.414 21.08C222.754 20.62 222.244 20.15 221.884 19.67C221.604 19.73 221.464 20 221.464 20.48C221.464 21.14 221.654 21.76 222.034 22.34C222.414 22.92 222.974 23.21 223.714 23.21ZM225.874 21.14C225.914 21 225.934 20.84 225.934 20.66C225.954 20.46 225.964 20.31 225.964 20.21C225.944 19.31 225.824 18.42 225.604 17.54C225.384 16.66 225.164 15.76 224.944 14.84C224.584 15.46 224.164 16.13 223.684 16.85C223.204 17.57 222.754 18.15 222.334 18.59C222.654 19.13 223.124 19.64 223.744 20.12C224.364 20.6 225.074 20.94 225.874 21.14ZM237.112 24.32C235.832 24.32 234.842 23.97 234.142 23.27C233.462 22.59 233.122 21.73 233.122 20.69C233.122 19.81 233.342 18.88 233.782 17.9C234.242 16.9 234.852 15.97 235.612 15.11C236.372 14.23 237.212 13.52 238.132 12.98C239.052 12.44 239.972 12.17 240.892 12.17C241.412 12.17 241.902 12.31 242.362 12.59C242.842 12.85 243.082 13.38 243.082 14.18C243.082 14.94 242.862 15.65 242.422 16.31C241.982 16.97 241.392 17.56 240.652 18.08C239.912 18.6 239.092 19.03 238.192 19.37C237.312 19.69 236.422 19.9 235.522 20C235.502 20.08 235.482 20.17 235.462 20.27C235.462 20.35 235.462 20.49 235.462 20.69C235.462 20.79 235.472 20.97 235.492 21.23C235.532 21.47 235.622 21.73 235.762 22.01C235.902 22.29 236.132 22.53 236.452 22.73C236.772 22.93 237.212 23.03 237.772 23.03C238.612 23.03 239.452 22.8 240.292 22.34C241.152 21.86 241.952 21.23 242.692 20.45C243.452 19.67 244.082 18.8 244.582 17.84L245.182 18.32C244.642 19.52 243.942 20.57 243.082 21.47C242.242 22.37 241.302 23.07 240.262 23.57C239.242 24.07 238.192 24.32 237.112 24.32ZM235.852 18.89C236.372 18.83 236.952 18.65 237.592 18.35C238.232 18.05 238.842 17.67 239.422 17.21C240.022 16.75 240.512 16.25 240.892 15.71C241.272 15.15 241.462 14.59 241.462 14.03C241.462 13.81 241.422 13.66 241.342 13.58C241.262 13.5 241.132 13.46 240.952 13.46C240.492 13.46 240.012 13.63 239.512 13.97C239.012 14.29 238.522 14.72 238.042 15.26C237.562 15.78 237.132 16.36 236.752 17C236.372 17.64 236.072 18.27 235.852 18.89ZM260.529 24.32C259.249 24.32 258.259 23.97 257.559 23.27C256.879 22.59 256.539 21.73 256.539 20.69C256.539 19.81 256.759 18.88 257.199 17.9C257.659 16.9 258.269 15.97 259.029 15.11C259.789 14.23 260.629 13.52 261.549 12.98C262.469 12.44 263.389 12.17 264.309 12.17C264.829 12.17 265.319 12.31 265.779 12.59C266.259 12.85 266.499 13.38 266.499 14.18C266.499 14.94 266.279 15.65 265.839 16.31C265.399 16.97 264.809 17.56 264.069 18.08C263.329 18.6 262.509 19.03 261.609 19.37C260.729 19.69 259.839 19.9 258.939 20C258.919 20.08 258.899 20.17 258.879 20.27C258.879 20.35 258.879 20.49 258.879 20.69C258.879 20.79 258.889 20.97 258.909 21.23C258.949 21.47 259.039 21.73 259.179 22.01C259.319 22.29 259.549 22.53 259.869 22.73C260.189 22.93 260.629 23.03 261.189 23.03C262.029 23.03 262.869 22.8 263.709 22.34C264.569 21.86 265.369 21.23 266.109 20.45C266.869 19.67 267.499 18.8 267.999 17.84L268.599 18.32C268.059 19.52 267.359 20.57 266.499 21.47C265.659 22.37 264.719 23.07 263.679 23.57C262.659 24.07 261.609 24.32 260.529 24.32ZM259.269 18.89C259.789 18.83 260.369 18.65 261.009 18.35C261.649 18.05 262.259 17.67 262.839 17.21C263.439 16.75 263.929 16.25 264.309 15.71C264.689 15.15 264.879 14.59 264.879 14.03C264.879 13.81 264.839 13.66 264.759 13.58C264.679 13.5 264.549 13.46 264.369 13.46C263.909 13.46 263.429 13.63 262.929 13.97C262.429 14.29 261.939 14.72 261.459 15.26C260.979 15.78 260.549 16.36 260.169 17C259.789 17.64 259.489 18.27 259.269 18.89ZM280.084 23.6C279.304 23.6 278.704 23.4 278.284 23C277.884 22.62 277.684 22.13 277.684 21.53C277.684 21.13 277.754 20.71 277.894 20.27C278.034 19.81 278.174 19.35 278.314 18.89C278.454 18.43 278.524 17.99 278.524 17.57C278.524 17.13 278.414 16.83 278.194 16.67C277.994 16.49 277.754 16.4 277.474 16.4C276.874 16.4 276.254 16.65 275.614 17.15C274.994 17.63 274.384 18.24 273.784 18.98C273.204 19.72 272.654 20.49 272.134 21.29C271.614 22.09 271.164 22.81 270.784 23.45C270.404 23.45 270.044 23.38 269.704 23.24C269.364 23.12 269.074 22.9 268.834 22.58C268.854 22.48 268.974 22.18 269.194 21.68C269.394 21.16 269.624 20.55 269.884 19.85C270.144 19.13 270.374 18.38 270.574 17.6C270.774 16.82 270.874 16.11 270.874 15.47C271.014 15.31 271.224 15.15 271.504 14.99C271.804 14.83 272.114 14.75 272.434 14.75C273.134 14.75 273.484 15.05 273.484 15.65C273.484 15.89 273.434 16.25 273.334 16.73C273.254 17.19 273.134 17.72 272.974 18.32C273.494 17.62 274.064 16.96 274.684 16.34C275.304 15.72 275.944 15.22 276.604 14.84C277.284 14.44 277.964 14.24 278.644 14.24C279.504 14.24 280.134 14.53 280.534 15.11C280.954 15.69 281.164 16.33 281.164 17.03C281.164 17.63 281.064 18.19 280.864 18.71C280.664 19.23 280.464 19.72 280.264 20.18C280.084 20.64 279.994 21.09 279.994 21.53C279.994 21.85 280.064 22.08 280.204 22.22C280.364 22.34 280.534 22.4 280.714 22.4C281.194 22.4 281.694 22.17 282.214 21.71C282.734 21.25 283.224 20.67 283.684 19.97C284.164 19.25 284.584 18.53 284.944 17.81L285.454 18.23C285.034 19.21 284.554 20.11 284.014 20.93C283.494 21.73 282.904 22.38 282.244 22.88C281.604 23.36 280.884 23.6 280.084 23.6ZM290.244 24.68C289.204 24.68 288.344 24.35 287.664 23.69C287.004 23.05 286.674 22.06 286.674 20.72C286.674 19.74 286.864 18.78 287.244 17.84C287.624 16.9 288.134 16.06 288.774 15.32C289.414 14.56 290.124 13.96 290.904 13.52C291.704 13.08 292.514 12.86 293.334 12.86C294.174 12.86 294.774 13.07 295.134 13.49C295.514 13.91 295.704 14.4 295.704 14.96C295.704 15.52 295.564 16.07 295.284 16.61C295.024 17.13 294.664 17.39 294.204 17.39C293.824 17.39 293.514 17.2 293.274 16.82C293.474 16.68 293.684 16.42 293.904 16.04C294.124 15.66 294.234 15.17 294.234 14.57C294.234 14.41 294.194 14.29 294.114 14.21C294.034 14.11 293.884 14.06 293.664 14.06C293.164 14.06 292.634 14.29 292.074 14.75C291.534 15.19 291.024 15.77 290.544 16.49C290.084 17.19 289.704 17.94 289.404 18.74C289.124 19.52 288.984 20.24 288.984 20.9C288.984 21.46 289.124 21.98 289.404 22.46C289.704 22.92 290.274 23.15 291.114 23.15C291.874 23.15 292.664 22.93 293.484 22.49C294.304 22.05 295.074 21.44 295.794 20.66C296.514 19.86 297.094 18.91 297.534 17.81L298.134 18.35C297.654 19.57 296.984 20.66 296.124 21.62C295.284 22.56 294.344 23.3 293.304 23.84C292.284 24.4 291.264 24.68 290.244 24.68ZM300.924 24.14C300.484 24.14 300.164 23.8 299.964 23.12C299.784 22.44 299.694 21.65 299.694 20.75C299.694 19.83 299.844 18.72 300.144 17.42C300.464 16.12 300.884 14.75 301.404 13.31C301.944 11.87 302.534 10.46 303.174 9.08C303.834 7.7 304.504 6.45 305.184 5.33C305.884 4.19 306.544 3.28 307.164 2.6C307.804 1.92 308.364 1.58 308.844 1.58C309.264 1.58 309.584 1.81 309.804 2.27C310.024 2.73 310.134 3.21 310.134 3.71C310.134 4.25 310.004 4.92 309.744 5.72C309.504 6.5 309.164 7.34 308.724 8.24C308.284 9.14 307.764 10.03 307.164 10.91C306.584 11.77 305.944 12.56 305.244 13.28C304.564 14 303.854 14.58 303.114 15.02C302.854 15.7 302.644 16.34 302.484 16.94C302.344 17.52 302.244 18.07 302.184 18.59C302.124 19.11 302.094 19.62 302.094 20.12C302.094 20.22 302.094 20.33 302.094 20.45C302.114 20.55 302.124 20.65 302.124 20.75C302.204 20.63 302.334 20.32 302.514 19.82C302.694 19.32 302.934 18.74 303.234 18.08C303.554 17.4 303.944 16.74 304.404 16.1C304.864 15.44 305.404 14.9 306.024 14.48C306.644 14.04 307.354 13.82 308.154 13.82C308.834 13.82 309.364 13.98 309.744 14.3C310.124 14.6 310.394 14.98 310.554 15.44C310.714 15.88 310.794 16.33 310.794 16.79C310.794 17.43 310.684 18.03 310.464 18.59C310.264 19.15 310.054 19.68 309.834 20.18C309.634 20.66 309.534 21.12 309.534 21.56C309.534 21.92 309.614 22.17 309.774 22.31C309.934 22.45 310.124 22.52 310.344 22.52C310.784 22.52 311.294 22.3 311.874 21.86C312.474 21.42 313.064 20.84 313.644 20.12C314.244 19.38 314.754 18.57 315.174 17.69L315.654 18.2C315.194 19.2 314.654 20.12 314.034 20.96C313.414 21.8 312.734 22.47 311.994 22.97C311.254 23.47 310.454 23.72 309.594 23.72C308.834 23.72 308.254 23.52 307.854 23.12C307.454 22.72 307.254 22.22 307.254 21.62C307.254 21.2 307.324 20.74 307.464 20.24C307.624 19.72 307.774 19.2 307.914 18.68C308.054 18.16 308.124 17.69 308.124 17.27C308.124 16.79 308.014 16.46 307.794 16.28C307.594 16.1 307.344 16.01 307.044 16.01C306.544 16.01 306.094 16.21 305.694 16.61C305.294 16.99 304.934 17.49 304.614 18.11C304.294 18.73 303.994 19.39 303.714 20.09C303.434 20.77 303.154 21.42 302.874 22.04C302.594 22.66 302.294 23.16 301.974 23.54C301.674 23.94 301.324 24.14 300.924 24.14ZM303.744 13.1C304.264 12.64 304.764 12.09 305.244 11.45C305.724 10.81 306.164 10.15 306.564 9.47C306.984 8.77 307.344 8.1 307.644 7.46C307.964 6.8 308.214 6.21 308.394 5.69C308.574 5.17 308.674 4.77 308.694 4.49C308.694 4.47 308.694 4.46 308.694 4.46C308.694 4.44 308.694 4.42 308.694 4.4C308.574 4.4 308.314 4.65 307.914 5.15C307.534 5.63 307.084 6.29 306.564 7.13C306.064 7.95 305.554 8.88 305.034 9.92C304.534 10.96 304.104 12.02 303.744 13.1ZM318.748 24.41C318.088 24.41 317.518 24.19 317.038 23.75C316.538 23.31 316.288 22.65 316.288 21.77C316.288 21.07 316.448 20.31 316.768 19.49C317.088 18.67 317.528 17.86 318.088 17.06C318.648 16.26 319.288 15.54 320.008 14.9C320.728 14.24 321.498 13.71 322.318 13.31C323.138 12.91 323.958 12.71 324.778 12.71C325.638 12.71 326.368 12.93 326.968 13.37C327.568 13.81 327.868 14.39 327.868 15.11C327.868 15.65 327.678 16.04 327.298 16.28C326.918 16.52 326.468 16.59 325.948 16.49C325.988 16.31 326.018 16.13 326.038 15.95C326.078 15.77 326.098 15.58 326.098 15.38C326.098 14.98 326.018 14.62 325.858 14.3C325.698 13.98 325.358 13.82 324.838 13.82C324.278 13.82 323.708 14.01 323.128 14.39C322.548 14.77 321.988 15.27 321.448 15.89C320.928 16.49 320.458 17.16 320.038 17.9C319.618 18.62 319.288 19.33 319.048 20.03C318.808 20.73 318.688 21.36 318.688 21.92C318.688 22.56 318.918 22.88 319.378 22.88C319.838 22.88 320.348 22.66 320.908 22.22C321.468 21.76 322.028 21.19 322.588 20.51C323.168 19.83 323.718 19.14 324.238 18.44C324.758 17.72 325.208 17.11 325.588 16.61C325.648 16.51 325.728 16.46 325.828 16.46C325.908 16.48 326.058 16.53 326.278 16.61C326.518 16.67 326.738 16.77 326.938 16.91C327.138 17.05 327.238 17.23 327.238 17.45C327.238 17.65 327.148 17.91 326.968 18.23C326.808 18.53 326.608 18.87 326.368 19.25C326.148 19.61 325.948 19.98 325.768 20.36C325.608 20.72 325.528 21.07 325.528 21.41C325.528 21.67 325.598 21.92 325.738 22.16C325.878 22.38 326.108 22.49 326.428 22.49C326.908 22.49 327.578 22.14 328.438 21.44C329.318 20.72 330.208 19.51 331.108 17.81L331.678 18.38C331.198 19.46 330.618 20.42 329.938 21.26C329.278 22.08 328.578 22.72 327.838 23.18C327.098 23.66 326.348 23.9 325.588 23.9C324.768 23.9 324.158 23.64 323.758 23.12C323.358 22.6 323.138 22.04 323.098 21.44C323.098 21.4 323.098 21.37 323.098 21.35C323.098 21.33 323.098 21.31 323.098 21.29C322.298 22.25 321.558 23.01 320.878 23.57C320.218 24.13 319.508 24.41 318.748 24.41ZM343.208 23.6C342.428 23.6 341.828 23.4 341.408 23C341.008 22.62 340.808 22.13 340.808 21.53C340.808 21.13 340.878 20.71 341.018 20.27C341.158 19.81 341.298 19.35 341.438 18.89C341.578 18.43 341.648 17.99 341.648 17.57C341.648 17.13 341.538 16.83 341.318 16.67C341.118 16.49 340.878 16.4 340.598 16.4C339.998 16.4 339.378 16.65 338.738 17.15C338.118 17.63 337.508 18.24 336.908 18.98C336.328 19.72 335.778 20.49 335.258 21.29C334.738 22.09 334.288 22.81 333.908 23.45C333.528 23.45 333.168 23.38 332.828 23.24C332.488 23.12 332.198 22.9 331.958 22.58C331.978 22.48 332.098 22.18 332.318 21.68C332.518 21.16 332.748 20.55 333.008 19.85C333.268 19.13 333.498 18.38 333.698 17.6C333.898 16.82 333.998 16.11 333.998 15.47C334.138 15.31 334.348 15.15 334.628 14.99C334.928 14.83 335.238 14.75 335.558 14.75C336.258 14.75 336.608 15.05 336.608 15.65C336.608 15.89 336.558 16.25 336.458 16.73C336.378 17.19 336.258 17.72 336.098 18.32C336.618 17.62 337.188 16.96 337.808 16.34C338.428 15.72 339.068 15.22 339.728 14.84C340.408 14.44 341.088 14.24 341.768 14.24C342.628 14.24 343.258 14.53 343.658 15.11C344.078 15.69 344.288 16.33 344.288 17.03C344.288 17.63 344.188 18.19 343.988 18.71C343.788 19.23 343.588 19.72 343.388 20.18C343.208 20.64 343.118 21.09 343.118 21.53C343.118 21.85 343.188 22.08 343.328 22.22C343.488 22.34 343.658 22.4 343.838 22.4C344.318 22.4 344.818 22.17 345.338 21.71C345.858 21.25 346.348 20.67 346.808 19.97C347.288 19.25 347.708 18.53 348.068 17.81L348.578 18.23C348.158 19.21 347.678 20.11 347.138 20.93C346.618 21.73 346.028 22.38 345.368 22.88C344.728 23.36 344.008 23.6 343.208 23.6ZM352.708 24.38C351.828 24.38 351.118 24.12 350.578 23.6C350.038 23.08 349.768 22.29 349.768 21.23C349.768 20.41 349.918 19.39 350.218 18.17C350.538 16.95 350.938 15.69 351.418 14.39C351.278 14.35 351.108 14.32 350.908 14.3C350.728 14.26 350.548 14.2 350.368 14.12V13.19C350.688 13.23 350.948 13.26 351.148 13.28C351.368 13.3 351.588 13.32 351.808 13.34C352.228 12.28 352.678 11.26 353.158 10.28C353.658 9.28 354.148 8.39 354.628 7.61C355.128 6.83 355.598 6.22 356.038 5.78C356.478 5.32 356.868 5.09 357.208 5.09C357.408 5.09 357.598 5.17 357.778 5.33C357.958 5.47 358.048 5.68 358.048 5.96C358.048 6.36 357.838 6.93 357.418 7.67C357.018 8.41 356.518 9.28 355.918 10.28C355.318 11.26 354.738 12.31 354.178 13.43C354.338 13.43 354.498 13.43 354.658 13.43C354.818 13.43 354.968 13.43 355.108 13.43C355.988 13.43 356.778 13.42 357.478 13.4C358.198 13.36 358.928 13.3 359.668 13.22V14.21C358.568 14.31 357.558 14.39 356.638 14.45C355.718 14.51 354.838 14.55 353.998 14.57C353.938 14.57 353.878 14.57 353.818 14.57C353.758 14.57 353.698 14.57 353.638 14.57C353.218 15.55 352.848 16.56 352.528 17.6C352.228 18.62 352.078 19.62 352.078 20.6C352.078 21.42 352.208 22 352.468 22.34C352.728 22.68 353.138 22.85 353.698 22.85C354.698 22.85 355.718 22.4 356.758 21.5C357.818 20.58 358.738 19.34 359.518 17.78L359.938 18.08C359.418 19.26 358.768 20.33 357.988 21.29C357.228 22.25 356.398 23 355.498 23.54C354.598 24.1 353.668 24.38 352.708 24.38ZM364.8 24.32C363.52 24.32 362.53 23.97 361.83 23.27C361.15 22.59 360.81 21.73 360.81 20.69C360.81 19.81 361.03 18.88 361.47 17.9C361.93 16.9 362.54 15.97 363.3 15.11C364.06 14.23 364.9 13.52 365.82 12.98C366.74 12.44 367.66 12.17 368.58 12.17C369.1 12.17 369.59 12.31 370.05 12.59C370.53 12.85 370.77 13.38 370.77 14.18C370.77 14.94 370.55 15.65 370.11 16.31C369.67 16.97 369.08 17.56 368.34 18.08C367.6 18.6 366.78 19.03 365.88 19.37C365 19.69 364.11 19.9 363.21 20C363.19 20.08 363.17 20.17 363.15 20.27C363.15 20.35 363.15 20.49 363.15 20.69C363.15 20.79 363.16 20.97 363.18 21.23C363.22 21.47 363.31 21.73 363.45 22.01C363.59 22.29 363.82 22.53 364.14 22.73C364.46 22.93 364.9 23.03 365.46 23.03C366.3 23.03 367.14 22.8 367.98 22.34C368.84 21.86 369.64 21.23 370.38 20.45C371.14 19.67 371.77 18.8 372.27 17.84L372.87 18.32C372.33 19.52 371.63 20.57 370.77 21.47C369.93 22.37 368.99 23.07 367.95 23.57C366.93 24.07 365.88 24.32 364.8 24.32ZM363.54 18.89C364.06 18.83 364.64 18.65 365.28 18.35C365.92 18.05 366.53 17.67 367.11 17.21C367.71 16.75 368.2 16.25 368.58 15.71C368.96 15.15 369.15 14.59 369.15 14.03C369.15 13.81 369.11 13.66 369.03 13.58C368.95 13.5 368.82 13.46 368.64 13.46C368.18 13.46 367.7 13.63 367.2 13.97C366.7 14.29 366.21 14.72 365.73 15.26C365.25 15.78 364.82 16.36 364.44 17C364.06 17.64 363.76 18.27 363.54 18.89ZM369.96 10.43C369.7 10.33 369.51 10.17 369.39 9.95C369.29 9.71 369.24 9.54 369.24 9.44C369.24 9.28 369.34 9.02 369.54 8.66C369.74 8.28 370 7.89 370.32 7.49C370.64 7.07 370.97 6.72 371.31 6.44C371.67 6.14 372.01 5.99 372.33 5.99C372.55 5.99 372.74 6.07 372.9 6.23C373.08 6.37 373.19 6.64 373.23 7.04C372.53 7.72 371.91 8.32 371.37 8.84C370.85 9.34 370.38 9.87 369.96 10.43ZM377.725 24.32C376.445 24.32 375.455 23.97 374.755 23.27C374.075 22.59 373.735 21.73 373.735 20.69C373.735 19.81 373.955 18.88 374.395 17.9C374.855 16.9 375.465 15.97 376.225 15.11C376.985 14.23 377.825 13.52 378.745 12.98C379.665 12.44 380.585 12.17 381.505 12.17C382.025 12.17 382.515 12.31 382.975 12.59C383.455 12.85 383.695 13.38 383.695 14.18C383.695 14.94 383.475 15.65 383.035 16.31C382.595 16.97 382.005 17.56 381.265 18.08C380.525 18.6 379.705 19.03 378.805 19.37C377.925 19.69 377.035 19.9 376.135 20C376.115 20.08 376.095 20.17 376.075 20.27C376.075 20.35 376.075 20.49 376.075 20.69C376.075 20.79 376.085 20.97 376.105 21.23C376.145 21.47 376.235 21.73 376.375 22.01C376.515 22.29 376.745 22.53 377.065 22.73C377.385 22.93 377.825 23.03 378.385 23.03C379.225 23.03 380.065 22.8 380.905 22.34C381.765 21.86 382.565 21.23 383.305 20.45C384.065 19.67 384.695 18.8 385.195 17.84L385.795 18.32C385.255 19.52 384.555 20.57 383.695 21.47C382.855 22.37 381.915 23.07 380.875 23.57C379.855 24.07 378.805 24.32 377.725 24.32ZM376.465 18.89C376.985 18.83 377.565 18.65 378.205 18.35C378.845 18.05 379.455 17.67 380.035 17.21C380.635 16.75 381.125 16.25 381.505 15.71C381.885 15.15 382.075 14.59 382.075 14.03C382.075 13.81 382.035 13.66 381.955 13.58C381.875 13.5 381.745 13.46 381.565 13.46C381.105 13.46 380.625 13.63 380.125 13.97C379.625 14.29 379.135 14.72 378.655 15.26C378.175 15.78 377.745 16.36 377.365 17C376.985 17.64 376.685 18.27 376.465 18.89Z" fill="#0F2627"/>
<path fill-rule="evenodd" clip-rule="evenodd" d="M40.0054 28.6484H21.0042H2.003V27.3282H40.0054V28.6484Z" fill="url(#paint0_radial_16_4)"/>
<path d="M17.8838 9.08512C20.8886 13.9322 21.3736 19.3161 20.9654 23.1482C19.1521 17.2774 14.9379 12.5689 9.54645 9.94562C9.3717 8.81936 9.3299 7.18085 9.40611 5.54377C9.47425 4.07989 9.63492 2.65732 9.86378 1.63798C13.4846 3.62177 16.0161 6.15415 17.7458 8.86565C17.7675 8.94706 17.8129 9.0231 17.8811 9.08275L17.8838 9.08512Z" fill="#1C959C"/>
<path d="M31.9448 1.14753C33.0591 5.11879 32.6397 8.61039 32.2644 9.97699C27.728 12.3309 23.9961 16.33 21.9636 21.1937C21.9957 19.3787 21.8283 17.3538 21.3465 15.2662C21.8071 13.0131 22.6719 10.8991 23.7701 9.01525C23.7902 8.98845 23.8069 8.95981 23.8201 8.92993C24.4441 7.87026 25.1416 6.88439 25.882 5.98868C27.8248 3.63806 30.0369 1.93857 31.9448 1.14753Z" fill="#1C959C"/>
<path d="M22.8705 8.81421C22.2533 8.21808 21.5167 7.93231 20.7943 7.93231C20.0808 7.93231 19.3535 8.21106 18.741 8.79227C19.6788 10.3395 20.3728 11.9367 20.8718 13.5215C21.3574 11.847 22.0474 10.2659 22.8705 8.81421Z" fill="#1E4C4F"/>
<path fill-rule="evenodd" clip-rule="evenodd" d="M21.4883 3.29475C21.4883 3.62005 21.2246 3.88376 20.8993 3.88376C20.574 3.88376 20.3103 3.62005 20.3103 3.29475C20.3103 2.96945 20.574 2.70575 20.8993 2.70575C21.2246 2.70575 21.4883 2.96945 21.4883 3.29475ZM22.3684 3.29475C22.3684 4.10613 21.7106 4.76388 20.8993 4.76388C20.0879 4.76388 19.4301 4.10613 19.4301 3.29475C19.4301 2.48338 20.0879 1.82563 20.8993 1.82563C21.7106 1.82563 22.3684 2.48338 22.3684 3.29475ZM20.8993 0.525762C20.7609 0.525762 20.6488 0.637913 20.6488 0.776258C20.6488 0.914603 20.7609 1.02675 20.8993 1.02675C21.0376 1.02675 21.1498 0.914603 21.1498 0.776258C21.1498 0.637913 21.0376 0.525762 20.8993 0.525762ZM20.8993 1.40588C21.247 1.40588 21.5289 1.12399 21.5289 0.776258C21.5289 0.428525 21.247 0.146632 20.8993 0.146632C20.5515 0.146632 20.2696 0.428525 20.2696 0.776258C20.2696 1.12399 20.5515 1.40588 20.8993 1.40588Z" fill="#1C959C"/>
<path d="M21.6062 25.3C29.6247 25.034 34.4516 20.8188 37.2986 16.6113C38.7546 14.4596 39.6903 12.3114 40.262 10.6999C40.5475 9.8948 40.7416 9.2255 40.8638 8.75918C40.8815 8.69198 40.8976 8.62901 40.9123 8.57048C31.8053 8.85001 23.5475 15.9786 21.6062 25.3Z" fill="#1E4C4F"/>
<path d="M20.6109 25.3123L20.6129 25.3037C18.6801 16.004 10.6225 9.24257 1.10542 8.59356C1.11995 8.64986 1.13576 8.71006 1.15291 8.77399C1.28094 9.25118 1.48317 9.93545 1.77859 10.7571C2.36993 12.4019 3.33195 14.5896 4.81412 16.7678C7.71371 21.0289 12.5912 25.2428 20.6109 25.3123Z" fill="#1E4C4F"/>
<defs>
<radialGradient id="paint0_radial_16_4" cx="0" cy="0" r="1" gradientUnits="userSpaceOnUse" gradientTransform="translate(21 28.6482) scale(21 12343.7)">
<stop stop-color="#1E4C4F"/>
<stop offset="0.682659" stop-color="#1E4C4F" stop-opacity="0.08"/>
<stop offset="0.927083" stop-color="#7C5460" stop-opacity="0.0183819"/>
<stop offset="1" stop-color="#7C5460" stop-opacity="0"/>
</radialGradient>
</defs>
</svg>
