<svg width="30" height="22" viewBox="0 0 30 22" fill="none" xmlns="http://www.w3.org/2000/svg">
<line x1="1.32275" y1="20.8398" x2="27.8131" y2="20.8398" stroke="url(#paint0_radial_72_78)" stroke-opacity="0.5" stroke-width="0.5"/>
<path fill-rule="evenodd" clip-rule="evenodd" d="M22.6349 0.258323L22.5599 0L22.3078 0.0936057C20.7871 0.658102 19.0331 2.0526 17.5343 3.97585C17.0604 4.58406 16.6102 5.24726 16.1997 5.95689C15.6845 5.45767 15.0585 5.19894 14.4215 5.19894C13.7857 5.19894 13.1608 5.45672 12.646 5.95416C11.3441 3.86233 9.44191 1.91981 6.72313 0.419806L6.44653 0.267202L6.36158 0.571467C6.13343 1.38852 5.98394 2.68401 5.92696 3.98218C5.87894 5.07644 5.89571 6.19423 5.99253 7.0536C4.23705 6.23803 2.31741 5.75284 0.315166 5.66436L0 5.65043L0.0584588 5.96044L0.304129 5.91412C0.0584588 5.96044 0.058488 5.9606 0.0585268 5.9608L0.0586524 5.96146L0.0590774 5.96369L0.0606318 5.9717L0.0666272 6.00171C0.0719334 6.02783 0.0798942 6.06606 0.0907207 6.11559C0.112372 6.21463 0.145493 6.35888 0.191774 6.54184C0.28432 6.90769 0.429579 7.42868 0.641124 8.05274C1.06392 9.3 1.75304 10.9636 2.81851 12.6242C4.95161 15.949 8.6065 19.277 14.6446 19.198C20.6785 19.119 24.2947 15.7937 26.3913 12.5073C27.4385 10.866 28.1093 9.23141 28.5184 8.00813C28.7231 7.39608 28.8626 6.8859 28.9512 6.52781C28.9954 6.34874 29.027 6.20762 29.0476 6.11072C29.0579 6.06226 29.0654 6.02486 29.0704 5.99928L29.0761 5.96989L29.0776 5.96203L29.078 5.95984L29.0781 5.95919C29.0781 5.95898 29.0782 5.95882 28.8322 5.91412L29.0782 5.95882L29.1317 5.66412H28.8322C26.8113 5.66412 24.8453 6.15682 23.0428 7.04062C23.3007 5.71345 23.4651 3.1202 22.6349 0.258323ZM22.4621 7.34197C22.7318 6.33236 23.0422 3.67677 22.2291 0.663472C20.8777 1.24254 19.3057 2.51622 17.9287 4.2832C17.4096 4.94932 16.9203 5.6829 16.4826 6.47178C16.4749 6.49151 16.4645 6.5104 16.4516 6.5279C15.6787 7.93348 15.0701 9.51255 14.7477 11.197C15.114 12.8711 15.2208 14.4906 15.1714 15.9155C16.5555 12.192 19.2117 9.12298 22.4621 7.34197ZM14.354 18.6171L14.3362 18.699C8.70396 18.6629 5.27617 15.5289 3.23934 12.3542C2.20178 10.7371 1.5285 9.11306 1.11466 7.89222C0.907882 7.28223 0.76626 6.77404 0.676506 6.41922C0.653977 6.33016 0.634721 6.25078 0.618528 6.18191C7.30875 6.62807 12.9994 11.6617 14.354 18.6171ZM14.5652 17.3233C14.9046 14.4569 14.6143 10.2992 12.4326 6.57208C12.3867 6.53389 12.358 6.48269 12.3474 6.4283C11.1268 4.39515 9.33511 2.49758 6.76559 1.01769C6.59465 1.78439 6.47581 2.88022 6.42648 4.00411C6.3724 5.2363 6.40308 6.47425 6.53126 7.31687C10.3704 9.28727 13.3504 12.8683 14.5652 17.3233ZM14.4213 5.69894C14.9522 5.69894 15.4956 5.92903 15.9456 6.41174C15.3313 7.55064 14.8219 8.79852 14.4778 10.1227C14.1227 8.87536 13.6143 7.61454 12.9113 6.39657C13.3584 5.92422 13.8959 5.69894 14.4213 5.69894ZM25.9698 12.2384C23.966 15.3793 20.5647 18.5202 14.9142 18.692C16.2461 11.6841 22.0966 6.33511 28.5229 6.16814C28.5071 6.23719 28.4881 6.31737 28.4658 6.40779C28.38 6.75462 28.2441 7.25179 28.0442 7.84955C27.6441 9.04587 26.9891 10.6407 25.9698 12.2384ZM14.4946 2.93169C14.7567 2.93169 15.0187 2.69739 15.0187 2.34554C15.0187 1.99369 14.7567 1.75938 14.4946 1.75938C14.2325 1.75938 13.9705 1.99369 13.9705 2.34554C13.9705 2.69739 14.2325 2.93169 14.4946 2.93169ZM14.4946 3.43169C15.0602 3.43169 15.5187 2.94541 15.5187 2.34554C15.5187 1.74567 15.0602 1.25938 14.4946 1.25938C13.929 1.25938 13.4705 1.74567 13.4705 2.34554C13.4705 2.94541 13.929 3.43169 14.4946 3.43169Z" fill="#0F2627" fill-opacity="0.5"/>
<defs>
<radialGradient id="paint0_radial_72_78" cx="0" cy="0" r="1" gradientUnits="userSpaceOnUse" gradientTransform="translate(14.5679 21.0898) scale(13.2452 1292.6)">
<stop stop-color="#0F2627"/>
<stop offset="0.682659" stop-color="#0F2627" stop-opacity="0.08"/>
<stop offset="1" stop-color="#0F2627" stop-opacity="0"/>
</radialGradient>
</defs>
</svg>
