<svg width="251" height="219" viewBox="0 0 251 219" fill="none" xmlns="http://www.w3.org/2000/svg">
<path fill-rule="evenodd" clip-rule="evenodd" d="M178.006 5.35175C178.006 7.75516 176.057 9.7035 173.654 9.7035C171.25 9.7035 169.302 7.75516 169.302 5.35175C169.302 2.94834 171.25 1 173.654 1C176.057 1 178.006 2.94834 178.006 5.35175ZM179.006 5.35175C179.006 8.30744 176.61 10.7035 173.654 10.7035C170.698 10.7035 168.302 8.30744 168.302 5.35175C168.302 2.39606 170.698 0 173.654 0C176.61 0 179.006 2.39606 179.006 5.35175ZM270.463 3.42213L270.31 2.92564L269.82 3.09725C251.869 9.38011 230.837 25.058 212.738 46.9566C206.365 54.6666 200.352 63.1526 194.961 72.2786C188.699 65.397 180.74 61.9379 172.762 61.9379C164.827 61.9379 156.91 65.3604 150.663 72.1697C134.957 47.4088 111.584 24.3449 77.6486 6.69221L77.1106 6.41236L76.9384 6.9938C74.2339 16.1257 72.4204 30.8064 71.7281 45.6782C71.053 60.1832 71.4414 74.9309 73.1315 84.9599C50.8843 74.5538 26.3198 68.3609 0.635986 67.2908L0 67.2643L0.124878 67.8884L0.615112 67.7903C0.210205 67.8713 0.139771 67.886 0.127808 67.8894C0.125244 67.8901 0.125244 67.8903 0.125244 67.8906L0.126343 67.8962L0.130737 67.9178L0.148071 68.0019C0.163452 68.0759 0.186523 68.1859 0.217773 68.3306C0.280029 68.6199 0.374634 69.0481 0.503906 69.6058C0.762451 70.7211 1.16016 72.3547 1.71753 74.4319C2.83203 78.5862 4.58521 84.5158 7.14087 91.6243C12.2517 105.84 20.5754 124.779 33.4272 143.665C59.1375 181.448 102.985 219.034 175.445 218.139C247.898 217.245 291.295 179.664 316.56 142.326C329.188 123.662 337.289 105.058 342.233 91.1205C344.705 84.1512 346.388 78.3468 347.454 74.2828C347.987 72.2508 348.365 70.6537 348.611 69.5635C348.734 69.0183 348.823 68.5999 348.882 68.3172C348.911 68.1771 348.933 68.0703 348.948 67.9979L348.948 67.996L348.964 67.9138L348.968 67.8927L348.969 67.8871C348.97 67.8858 348.97 67.885 348.479 67.7903L348.97 67.885L349.084 67.2903H348.479C322.455 67.2903 297.151 73.7277 274.203 85.1885C277.758 72.7416 281.73 40.04 270.463 3.42213ZM273.07 85.7594C273.047 85.6725 273.047 85.5782 273.074 85.4857C276.6 73.7342 280.855 41.0165 269.66 4.21487C252.039 10.5324 231.367 25.9871 213.508 47.5937C207.059 55.3965 200.981 63.9964 195.549 73.2505C195.527 73.3491 195.476 73.442 195.395 73.5143C185.724 90.0493 178.12 108.663 174.144 128.541L174.142 128.549C181.029 157.864 180.47 185.752 177.005 206.39C190.117 153.478 226.692 109.337 273.07 85.7594ZM175.05 211.449C181.776 178.479 181.155 122.799 150.401 73.6381C150.306 73.6262 150.212 73.5865 150.134 73.5182C149.978 73.3813 149.927 73.1684 149.989 72.9829C134.447 48.3813 111.315 25.4488 77.7277 7.86154C75.1509 16.9142 73.4034 31.1937 72.7271 45.7247C72.0374 60.5406 72.4639 75.5541 74.2368 85.4813C124.53 109.405 162.797 154.933 175.05 211.449ZM174.535 213.862C174.285 214.989 174.026 216.087 173.759 217.153C102.72 217.449 59.6326 180.398 34.2539 143.103C21.4619 124.304 13.1729 105.446 8.08191 91.2859C5.53674 84.2067 3.79175 78.3039 2.68335 74.1728C2.12915 72.1073 1.73425 70.4848 1.47803 69.3799C1.37695 68.9437 1.29736 68.5881 1.23828 68.3178C85.6553 72.1208 157.763 131.547 174.535 213.862ZM174.792 217.146C174.843 216.938 174.894 216.729 174.945 216.519C174.991 216.33 175.036 216.14 175.082 215.949H175.93C191.903 132.535 266.3 68.6106 347.866 68.2915C347.809 68.5573 347.733 68.9096 347.635 69.3438C347.392 70.4233 347.016 72.0091 346.487 74.0292C345.427 78.0695 343.752 83.8466 341.29 90.7862C336.366 104.667 328.3 123.19 315.731 141.766C290.6 178.907 247.477 216.25 175.433 217.139L175.048 217.144L174.792 217.146ZM172.762 62.9379C180.528 62.9379 188.312 66.3404 194.43 73.1829C185.094 89.1845 177.681 107.122 173.593 126.27C169.21 108.568 162.082 90.4032 151.217 73.0475C157.316 66.2955 165.049 62.9379 172.762 62.9379ZM173.654 38.2464C179.998 38.2464 185.141 33.1033 185.141 26.759C185.141 20.4147 179.998 15.2716 173.654 15.2716C167.309 15.2716 162.166 20.4147 162.166 26.759C162.166 33.1033 167.309 38.2464 173.654 38.2464ZM173.654 39.2464C180.55 39.2464 186.141 33.6556 186.141 26.759C186.141 19.8624 180.55 14.2716 173.654 14.2716C166.757 14.2716 161.166 19.8624 161.166 26.759C161.166 33.6556 166.757 39.2464 173.654 39.2464Z" fill="#4F1F00" fill-opacity="0.3"/>
</svg>
