<svg width="30" height="23" viewBox="0 0 30 23" fill="none" xmlns="http://www.w3.org/2000/svg">
<line x1="1.58496" y1="22.457" x2="28.1457" y2="22.457" stroke="url(#paint0_radial_72_103)" stroke-width="0.5"/>
<path fill-rule="evenodd" clip-rule="evenodd" d="M15.232 1.19303C15.232 1.46143 15.0349 1.67902 14.7919 1.67902C14.5489 1.67902 14.3518 1.46143 14.3518 1.19303C14.3518 0.924618 14.5489 0.707031 14.7919 0.707031C15.0349 0.707031 15.232 0.924618 15.232 1.19303ZM14.583 1.19303C14.583 1.06558 14.6765 0.962263 14.7919 0.962263C14.9073 0.962263 15.0009 1.06558 15.0009 1.19303C15.0009 1.32047 14.9073 1.42379 14.7919 1.42379C14.6765 1.42379 14.583 1.32047 14.583 1.19303Z" fill="#B45C22"/>
<path fill-rule="evenodd" clip-rule="evenodd" d="M14.7919 4.27101C15.359 4.27101 15.8187 3.7633 15.8187 3.13702C15.8187 2.51074 15.359 2.00303 14.7919 2.00303C14.2248 2.00303 13.7651 2.51074 13.7651 3.13702C13.7651 3.7633 14.2248 4.27101 14.7919 4.27101ZM14.7919 3.91263C15.1798 3.91263 15.4942 3.56538 15.4942 3.13702C15.4942 2.70866 15.1798 2.36141 14.7919 2.36141C14.404 2.36141 14.0896 2.70866 14.0896 3.13702C14.0896 3.56538 14.404 3.91263 14.7919 3.91263Z" fill="#B45C22"/>
<path d="M14.7055 20.2932C14.7174 20.2386 14.729 20.1831 14.7405 20.1268C13.374 12.786 7.57942 7.46971 0.768638 7.05351C0.788714 7.14594 0.815729 7.26514 0.850445 7.40804C0.940829 7.78009 1.08334 8.31255 1.29135 8.9515C1.70755 10.23 2.38495 11.9316 3.42956 13.627C5.4891 16.9695 8.97126 20.2833 14.7055 20.2932Z" fill="url(#paint1_linear_72_103)"/>
<path d="M15.1075 20.2885C20.8794 20.1463 24.3438 16.8198 26.3742 13.5059C27.4005 11.8308 28.0595 10.1596 28.462 8.90666C28.6631 8.28045 28.7999 7.75947 28.8863 7.39573C28.9201 7.25333 28.9461 7.13506 28.9653 7.04407C22.3955 7.15876 16.4203 12.8564 15.1075 20.2885Z" fill="url(#paint2_linear_72_103)"/>
<path d="M12.7955 7.49863C15.1178 11.6207 15.3179 16.2451 14.8904 19.2537C13.7547 14.3928 10.6965 10.4864 6.72584 8.37884C6.59121 7.49154 6.55885 6.17361 6.61399 4.86553C6.66594 3.63288 6.79479 2.42831 6.9817 1.61757C9.63595 3.18359 11.4771 5.20566 12.7242 7.37336C12.7293 7.41473 12.7475 7.45431 12.7781 7.48396C12.7837 7.48935 12.7895 7.49423 12.7955 7.49863Z" fill="url(#paint3_linear_72_103)"/>
<path d="M22.6072 1.26485C23.4668 4.49754 23.1361 7.35519 22.8578 8.40596C19.438 10.3455 16.6697 13.7755 15.3515 17.9311C15.4575 16.3009 15.3775 14.3767 14.9559 12.379C15.2804 10.6048 15.8957 8.94208 16.6776 7.46273C16.6886 7.44795 16.6972 7.43159 16.7033 7.41437C17.1448 6.58522 17.6385 5.81424 18.1624 5.11423C19.581 3.2187 21.2108 1.85675 22.6072 1.26485Z" fill="url(#paint4_linear_72_103)"/>
<path d="M16.3507 7.37104C15.8789 6.82388 15.2958 6.55625 14.7186 6.55625C14.1465 6.55625 13.5686 6.81911 13.0991 7.35644C13.8766 8.74795 14.4183 10.1945 14.7793 11.6181C15.1255 10.0957 15.6757 8.66506 16.3507 7.37104Z" fill="url(#paint5_linear_72_103)"/>
<defs>
<radialGradient id="paint0_radial_72_103" cx="0" cy="0" r="1" gradientUnits="userSpaceOnUse" gradientTransform="translate(14.8653 22.707) scale(13.2804 1292.6)">
<stop stop-color="#572404"/>
<stop offset="0.682659" stop-color="#572404" stop-opacity="0.08"/>
<stop offset="1" stop-color="#572404" stop-opacity="0"/>
</radialGradient>
<linearGradient id="paint1_linear_72_103" x1="14.8638" y1="0.707031" x2="14.8638" y2="20.6516" gradientUnits="userSpaceOnUse">
<stop stop-color="#B45C22"/>
<stop offset="1" stop-color="#4F1F00"/>
</linearGradient>
<linearGradient id="paint2_linear_72_103" x1="14.8638" y1="0.707031" x2="14.8638" y2="20.6516" gradientUnits="userSpaceOnUse">
<stop stop-color="#B45C22"/>
<stop offset="0.99818" stop-color="#532202"/>
</linearGradient>
<linearGradient id="paint3_linear_72_103" x1="14.8638" y1="0.707031" x2="14.8638" y2="20.6516" gradientUnits="userSpaceOnUse">
<stop stop-color="#B45C22"/>
<stop offset="1" stop-color="#522101"/>
</linearGradient>
<linearGradient id="paint4_linear_72_103" x1="14.8638" y1="0.707031" x2="14.8638" y2="20.6516" gradientUnits="userSpaceOnUse">
<stop stop-color="#B45C22"/>
<stop offset="1" stop-color="#522102"/>
</linearGradient>
<linearGradient id="paint5_linear_72_103" x1="14.8638" y1="0.707031" x2="14.8638" y2="20.6516" gradientUnits="userSpaceOnUse">
<stop stop-color="#B45C22"/>
<stop offset="1" stop-color="#572504"/>
</linearGradient>
</defs>
</svg>
