<svg width="196" height="123" viewBox="0 0 196 123" fill="none" xmlns="http://www.w3.org/2000/svg">
<path fill-rule="evenodd" clip-rule="evenodd" d="M99.3774 2.99289C99.3774 4.09353 98.4852 4.98578 97.3845 4.98578C96.2839 4.98578 95.3916 4.09353 95.3916 2.99289C95.3916 1.89225 96.2839 1 97.3845 1C98.4852 1 99.3774 1.89225 99.3774 2.99289ZM100.377 2.99289C100.377 4.64581 99.0375 5.98578 97.3845 5.98578C95.7316 5.98578 94.3916 4.64581 94.3916 2.99289C94.3916 1.33996 95.7316 0 97.3845 0C99.0375 0 100.377 1.33996 100.377 2.99289ZM151.734 1.84905L151.582 1.35256L151.091 1.52417C141.003 5.05502 129.21 13.8529 119.072 26.1195C115.56 30.3676 112.243 35.0366 109.262 40.0539C105.752 36.3077 101.328 34.4174 96.8859 34.4174C92.4649 34.4174 88.0622 36.2896 84.5609 40.0002C75.7604 26.2153 62.7042 13.3824 43.7967 3.547L43.2588 3.26715L43.0866 3.84859C41.5665 8.98126 40.5514 17.2124 40.164 25.5346C39.7952 33.4566 39.9926 41.5192 40.8842 47.1373C28.5166 41.4117 14.8833 38.0049 0.63593 37.4113L0 37.3848L0.124824 38.0089L0.615115 37.9109C0.124824 38.0089 0.124933 38.0095 0.125107 38.0103L0.125781 38.0137L0.12831 38.0261L0.138152 38.0739C0.146862 38.1159 0.1599 38.1779 0.177444 38.2594C0.212533 38.4223 0.26565 38.6628 0.338229 38.9759C0.483385 39.6019 0.706404 40.5179 1.01876 41.6822C1.64344 44.0105 2.62561 47.3324 4.05718 51.3142C6.91974 59.2762 11.5822 69.8853 18.7826 80.4667C33.1899 101.639 57.7731 122.713 98.389 122.212C138.997 121.71 163.327 100.641 177.485 79.7174C184.561 69.2606 189.098 58.8383 191.867 51.0316C193.252 47.1275 194.195 43.8755 194.793 41.5976C195.092 40.4586 195.304 39.5629 195.442 38.9509C195.511 38.6448 195.561 38.4097 195.594 38.2505C195.611 38.1708 195.623 38.1102 195.631 38.0692L195.641 38.0224L195.643 38.0102L195.644 38.0069C195.644 38.006 195.644 38.0055 195.153 37.9109L195.644 38.0055L195.758 37.4109H195.153C180.731 37.4109 166.704 40.9371 153.959 47.2237C155.92 39.8951 157.91 21.9194 151.734 1.84905ZM152.755 47.8277C152.759 47.7996 152.764 47.7714 152.773 47.7434C154.726 41.2339 157.094 23.0893 150.931 2.64351C141.172 6.20789 129.739 14.7825 119.842 26.7566C116.249 31.1045 112.862 35.8957 109.834 41.0504C109.812 41.1227 109.773 41.1908 109.718 41.2484C104.335 50.4585 100.101 60.8217 97.8831 71.8866C101.327 86.5762 101.435 100.623 100.029 111.695C108.093 83.7266 127.901 60.5071 152.755 47.8277ZM98.1524 117.176C101.682 98.6797 101.041 68.2829 84.2388 41.3714C84.1844 41.3508 84.1327 41.3204 84.0863 41.2798C83.9617 41.1707 83.9042 41.0134 83.9174 40.8601C75.2812 27.2176 62.4581 14.4988 43.878 4.71816C42.484 9.76718 41.5345 17.5989 41.1629 25.5811C40.7801 33.805 41.0136 42.1256 41.9844 47.6543C69.8137 60.9288 91.0565 86.0145 98.1524 117.176ZM97.6522 119.597C97.5287 120.151 97.4015 120.692 97.271 121.22C57.7381 121.325 33.7525 100.688 19.6093 79.9041C12.4688 69.4106 7.84084 58.8824 4.99821 50.9759C3.57718 47.0234 2.60306 43.7282 1.9846 41.423C1.67539 40.2705 1.45512 39.3656 1.31239 38.75C1.28608 38.6365 1.26241 38.5329 1.2413 38.4394C48.214 40.6827 88.2952 73.7845 97.6522 119.597ZM98.3024 121.213L98.3434 121.044C98.3622 120.965 98.381 120.887 98.3997 120.808H98.8739C107.77 74.3505 149.142 38.7328 194.537 38.413L194.503 38.5659L194.466 38.7312C194.331 39.3325 194.121 40.2168 193.826 41.3439C193.234 43.5982 192.299 46.823 190.925 50.6973C188.176 58.4474 183.673 68.7883 176.657 79.157C162.632 99.8842 138.576 120.715 98.3766 121.212L98.3024 121.213ZM96.8859 35.4174C101.117 35.4174 105.366 37.251 108.732 40.9546C103.687 49.6307 99.6515 59.3189 97.3349 69.6537C94.8748 60.0687 90.9673 50.2623 85.1128 40.8748C88.4668 37.2247 92.6859 35.4174 96.8859 35.4174ZM97.3845 20.9479C100.689 20.9479 103.368 18.2691 103.368 14.9645C103.368 11.66 100.689 8.98111 97.3845 8.98111C94.0799 8.98111 91.4011 11.66 91.4011 14.9645C91.4011 18.2691 94.0799 20.9479 97.3845 20.9479ZM97.3845 21.9479C101.241 21.9479 104.368 18.8214 104.368 14.9645C104.368 11.1077 101.241 7.98111 97.3845 7.98111C93.5277 7.98111 90.4011 11.1077 90.4011 14.9645C90.4011 18.8214 93.5277 21.9479 97.3845 21.9479Z" fill="#4F1F00" fill-opacity="0.3"/>
</svg>
