<svg width="13" height="13" viewBox="0 0 13 13" fill="none" xmlns="http://www.w3.org/2000/svg">
<path d="M11.7812 6.5C11.7812 7.90067 11.2248 9.24398 10.2344 10.2344C9.24398 11.2248 7.90067 11.7812 6.5 11.7812C5.09933 11.7812 3.75602 11.2248 2.76559 10.2344C1.77517 9.24398 1.21875 7.90067 1.21875 6.5C1.21875 5.09933 1.77517 3.75602 2.76559 2.76559C3.75602 1.77517 5.09933 1.21875 6.5 1.21875C7.90067 1.21875 9.24398 1.77517 10.2344 2.76559C11.2248 3.75602 11.7812 5.09933 11.7812 6.5ZM0 6.5C0 8.22391 0.68482 9.87721 1.90381 11.0962C3.12279 12.3152 4.77609 13 6.5 13C8.22391 13 9.87721 12.3152 11.0962 11.0962C12.3152 9.87721 13 8.22391 13 6.5C13 4.77609 12.3152 3.12279 11.0962 1.90381C9.87721 0.68482 8.22391 0 6.5 0C4.77609 0 3.12279 0.68482 1.90381 1.90381C0.68482 3.12279 0 4.77609 0 6.5ZM5.89062 3.04688V6.5C5.89062 6.70312 5.99219 6.89355 6.1623 7.00781L8.5998 8.63281C8.8791 8.8207 9.25742 8.74453 9.44531 8.4627C9.6332 8.18086 9.55703 7.80508 9.2752 7.61719L7.10938 6.175V3.04688C7.10938 2.70918 6.8377 2.4375 6.5 2.4375C6.1623 2.4375 5.89062 2.70918 5.89062 3.04688Z" fill="#074B4F" fill-opacity="0.5"/>
</svg>
