<svg width="664" height="918" fill="none" xmlns="http://www.w3.org/2000/svg"><mask id="path-1-inside-1_31_5" fill="#fff"><path d="M664 586c0 183.359-148.641 332-332 332S0 769.359 0 586V-28h664v614Z"/></mask><path d="M665 586c0 183.911-149.089 333-333 333S-1 769.911-1 586h2c0 182.806 148.194 331 331 331s331-148.194 331-331h2ZM0-28h664H0Zm665 0v614c0 183.911-149.089 333-333 333v-2c182.806 0 331-148.194 331-331V-28h2ZM332 919C148.089 919-1 769.911-1 586V-28h2v614c0 182.806 148.194 331 331 331v2Z" fill="url('#paint0_linear_31_5')" fill-opacity=".1" mask="url('#path-1-inside-1_31_5')"/><defs><linearGradient id="paint0_linear_31_5" x1="332" y1="918" x2="332" y2="-95.926" gradientUnits="userSpaceOnUse"><stop stop-color="#074B4F"/><stop offset=".911" stop-color="#074B4F" stop-opacity="0"/></linearGradient></defs></svg>