<svg width="316" height="560" fill="none" xmlns="http://www.w3.org/2000/svg"><path d="M83 138.5c0 22.92-18.58 41.5-41.5 41.5S0 161.42 0 138.5 18.58 97 41.5 97 83 115.58 83 138.5Z" fill="url('#paint0_linear_72_31')" fill-opacity=".05"/><path d="M422 414c0 80.634-65.366 146-146 146s-146-65.366-146-146 65.366-146 146-146 146 65.366 146 146Z" fill="url('#paint1_linear_72_31')" fill-opacity=".05"/><path d="M320 62c0 34.242-27.758 62-62 62-34.242 0-62-27.758-62-62 0-34.242 27.758-62 62-62 34.242 0 62 27.758 62 62Z" fill="url('#paint2_linear_72_31')" fill-opacity=".05"/><defs><linearGradient id="paint0_linear_72_31" x1="-1.951" y1="97" x2="109.019" y2="202.116" gradientUnits="userSpaceOnUse"><stop offset=".039" stop-color="#074B4F"/><stop offset=".703" stop-color="#074B4F" stop-opacity="0"/></linearGradient><linearGradient id="paint1_linear_72_31" x1="123.135" y1="268" x2="513.536" y2="637.806" gradientUnits="userSpaceOnUse"><stop offset=".039" stop-color="#074B4F"/><stop offset=".703" stop-color="#074B4F" stop-opacity="0"/></linearGradient><linearGradient id="paint2_linear_72_31" x1="193.085" y1="0" x2="358.871" y2="157.041" gradientUnits="userSpaceOnUse"><stop offset=".039" stop-color="#074B4F"/><stop offset=".703" stop-color="#074B4F" stop-opacity="0"/></linearGradient></defs></svg>