<svg width="537" height="740" fill="none" xmlns="http://www.w3.org/2000/svg"><path d="M348 159.5c0 88.089-71.411 159.5-159.5 159.5S29 247.589 29 159.5C29 71.41 100.411 0 188.5 0S348 71.41 348 159.5Z" fill="url('#paint0_linear_94_440')" fill-opacity=".05"/><path d="M537 34.5c0 13.531-10.969 24.5-24.5 24.5S488 48.031 488 34.5 498.969 10 512.5 10 537 20.969 537 34.5Z" fill="url('#paint1_linear_94_440')" fill-opacity=".05"/><path d="M493 523c0 28.167-22.833 51-51 51s-51-22.833-51-51 22.833-51 51-51 51 22.833 51 51Z" fill="url('#paint2_linear_94_440')" fill-opacity=".05"/><path d="M83 698.5c0 22.92-18.58 41.5-41.5 41.5S0 721.42 0 698.5 18.58 657 41.5 657 83 675.58 83 698.5Z" fill="url('#paint3_linear_94_440')" fill-opacity=".05"/><defs><linearGradient id="paint0_linear_94_440" x1="21.5" y1="0" x2="448" y2="404" gradientUnits="userSpaceOnUse"><stop offset=".039" stop-color="#074B4F"/><stop offset=".703" stop-color="#074B4F" stop-opacity="0"/></linearGradient><linearGradient id="paint1_linear_94_440" x1="486.848" y1="10" x2="552.361" y2="72.056" gradientUnits="userSpaceOnUse"><stop offset=".039" stop-color="#074B4F"/><stop offset=".703" stop-color="#074B4F" stop-opacity="0"/></linearGradient><linearGradient id="paint2_linear_94_440" x1="388.602" y1="472" x2="524.975" y2="601.179" gradientUnits="userSpaceOnUse"><stop offset=".039" stop-color="#074B4F"/><stop offset=".703" stop-color="#074B4F" stop-opacity="0"/></linearGradient><linearGradient id="paint3_linear_94_440" x1="-1.951" y1="657" x2="109.019" y2="762.116" gradientUnits="userSpaceOnUse"><stop offset=".039" stop-color="#074B4F"/><stop offset=".703" stop-color="#074B4F" stop-opacity="0"/></linearGradient></defs></svg>