<svg width="40" height="29" fill="none" xmlns="http://www.w3.org/2000/svg"><path fill-rule="evenodd" clip-rule="evenodd" d="M39.005 28.648H1.003v-1.32h38.002v1.32Z" fill="url('#paint0_radial_14_170')"/><path d="M16.884 9.085c3.005 4.847 3.49 10.231 3.081 14.063-1.813-5.87-6.027-10.58-11.419-13.202-.174-1.127-.216-2.765-.14-4.402.068-1.464.229-2.887.458-3.906 3.62 1.984 6.152 4.516 7.882 7.228a.437.437 0 0 0 .135.217l.003.002ZM30.945 1.148c1.114 3.97.695 7.462.32 8.829-4.537 2.354-8.269 6.353-10.301 11.217a24.565 24.565 0 0 0-.617-5.928c.46-2.253 1.325-4.367 2.423-6.25a.435.435 0 0 0 .05-.086 22.735 22.735 0 0 1 2.062-2.941c1.943-2.35 4.155-4.05 6.063-4.841Z" fill="#1C959C"/><path d="M21.87 8.814c-.617-.596-1.353-.882-2.076-.882-.713 0-1.44.28-2.053.86a21.653 21.653 0 0 1 2.13 4.73 21.99 21.99 0 0 1 2-4.708Z" fill="#1E4C4F"/><path fill-rule="evenodd" clip-rule="evenodd" d="M20.488 3.295a.589.589 0 1 1-1.178 0 .589.589 0 0 1 1.178 0Zm.88 0a1.47 1.47 0 1 1-2.938 0 1.47 1.47 0 0 1 2.938 0ZM19.9.525a.25.25 0 1 0 0 .502.25.25 0 0 0 0-.501Zm0 .88a.63.63 0 1 0 0-1.258.63.63 0 0 0 0 1.259Z" fill="#1C959C"/><path d="M20.606 25.3c8.019-.266 12.846-4.481 15.693-8.689 1.456-2.151 2.391-4.3 2.963-5.911a24.281 24.281 0 0 0 .65-2.13c-9.107.28-17.364 7.409-19.306 16.73ZM19.61 25.312l.003-.008C17.68 16.004 9.623 9.243.105 8.594l.048.18c.128.477.33 1.161.626 1.983.59 1.645 1.553 3.833 3.035 6.01 2.9 4.262 7.777 8.476 15.797 8.545Z" fill="#1E4C4F"/><defs><radialGradient id="paint0_radial_14_170" cx="0" cy="0" r="1" gradientUnits="userSpaceOnUse" gradientTransform="matrix(21 0 0 12343.7 20 28.648)"><stop stop-color="#1E4C4F"/><stop offset=".683" stop-color="#1E4C4F" stop-opacity=".08"/><stop offset=".927" stop-color="#7C5460" stop-opacity=".018"/><stop offset="1" stop-color="#7C5460" stop-opacity="0"/></radialGradient></defs></svg>