<svg width="264" height="77" fill="none" xmlns="http://www.w3.org/2000/svg"><path d="M12.488 72.088c-.592 0-1.256-.12-1.992-.36a27.232 27.232 0 0 1-2.28-.864 118.44 118.44 0 0 0-2.256-.96 4.74 4.74 0 0 1-1.296 1.008c-.464.24-.96.36-1.488.36-.56 0-1.04-.128-1.44-.384-.416-.24-.728-.536-.936-.888-.224-.352-.336-.672-.336-.96 0-.32.144-.6.432-.84.288-.24.8-.36 1.536-.36.432 0 .904.048 1.416.144.528.08 1.064.192 1.608.336.368-.64.704-1.392 1.008-2.256.32-.864.632-1.768.936-2.712.304-.96.608-1.896.912-2.808-.8-.272-1.416-.648-1.848-1.128-.432-.496-.648-.992-.648-1.488 0-.32.08-.632.24-.936.16-.32.392-.584.696-.792a1.77 1.77 0 0 1 1.08-.336 1.961 1.961 0 0 0-.408.864 5.45 5.45 0 0 0-.072.768c0 .528.12.976.36 1.344.24.368.536.656.888.864.304-.912.624-1.784.96-2.616a13.81 13.81 0 0 1 1.152-2.232c.432-.656.904-1.176 1.416-1.56a2.947 2.947 0 0 1 1.776-.576c.368 0 .752.08 1.152.24.416.144.768.4 1.056.768.304.368.456.896.456 1.584 0 .544-.12 1.128-.36 1.752-.224.624-.584 1.224-1.08 1.8-.496.56-1.136 1.032-1.92 1.416-.768.368-1.704.568-2.808.6h-.216c-.304.928-.624 1.864-.96 2.808a38.291 38.291 0 0 1-1.08 2.712c-.384.864-.8 1.632-1.248 2.304.624.176 1.312.376 2.064.6.768.224 1.528.416 2.28.576.768.144 1.44.216 2.016.216.384 0 .736-.04 1.056-.12a6.773 6.773 0 0 0 1.056-.408c-.32.896-.72 1.536-1.2 1.92-.464.4-1.024.6-1.68.6Zm-9.552-1.704c.416 0 .752-.096 1.008-.288.256-.176.512-.4.768-.672-.496-.176-.96-.32-1.392-.432-.432-.128-.808-.192-1.128-.192-.304 0-.52.056-.648.168a.502.502 0 0 0-.216.408c0 .256.16.488.48.696.32.208.696.312 1.128.312Zm7.512-10.296a3.494 3.494 0 0 0 1.872-.672c.544-.4 1.008-.88 1.392-1.44.384-.56.672-1.128.864-1.704.208-.592.312-1.104.312-1.536 0-.416-.08-.696-.24-.84a.759.759 0 0 0-.552-.24c-.464 0-.904.296-1.32.888-.416.592-.816 1.376-1.2 2.352-.368.96-.744 2.024-1.128 3.192Zm9.704 11.04c-.528 0-.984-.176-1.368-.528-.4-.352-.6-.88-.6-1.584 0-.56.128-1.168.384-1.824a9.278 9.278 0 0 1 1.056-1.944c.448-.64.96-1.216 1.536-1.728a7.78 7.78 0 0 1 1.848-1.272c.656-.32 1.312-.48 1.968-.48.688 0 1.272.176 1.752.528.48.352.72.816.72 1.392 0 .432-.152.744-.456.936-.304.192-.664.248-1.08.168.032-.144.056-.288.072-.432.032-.144.048-.296.048-.456 0-.32-.064-.608-.192-.864s-.4-.384-.816-.384c-.448 0-.904.152-1.368.456a6.596 6.596 0 0 0-1.344 1.2 9.928 9.928 0 0 0-1.128 1.608 9.519 9.519 0 0 0-.792 1.704c-.192.56-.288 1.064-.288 1.512 0 .512.184.768.552.768.368 0 .776-.176 1.224-.528a9.938 9.938 0 0 0 1.344-1.368c.464-.544.904-1.096 1.32-1.656a76.3 76.3 0 0 1 1.08-1.464c.048-.08.112-.12.192-.12.064.016.184.056.36.12.192.048.368.128.528.24.16.112.24.256.24.432 0 .16-.072.368-.216.624-.128.24-.288.512-.48.816a9.505 9.505 0 0 0-.48.888 2.061 2.061 0 0 0-.192.84c0 .208.056.408.168.6.112.176.296.264.552.264.384 0 .92-.28 1.608-.84.704-.576 1.416-1.544 2.136-2.904l.456.456a10.264 10.264 0 0 1-1.392 2.304c-.528.656-1.088 1.168-1.68 1.536-.592.384-1.192.576-1.8.576-.656 0-1.144-.208-1.464-.624a2.438 2.438 0 0 1-.528-1.344v-.12c-.64.768-1.232 1.376-1.776 1.824-.528.448-1.096.672-1.704.672Zm18.53 5.592a.845.845 0 0 1-.407-.12 1.18 1.18 0 0 1-.36-.24c-.112-.096-.176-.176-.192-.24.4-1.168.744-2.184 1.032-3.048.272-.848.504-1.656.696-2.424.192-.752.368-1.536.528-2.352a80.72 80.72 0 0 0 .432-2.832c.16-1.072.336-2.36.528-3.864.032-.192.072-.328.12-.408.048-.096.2-.144.456-.144.496 0 .856.136 1.08.408.224.256.336.544.336.864 0 .16-.032.44-.096.84-.048.4-.128.872-.24 1.416.304-.464.648-.904 1.032-1.32.4-.416.84-.752 1.32-1.008.48-.272 1-.408 1.56-.408.784 0 1.432.264 1.944.792s.768 1.224.768 2.088c0 .624-.144 1.288-.432 1.992a7.376 7.376 0 0 1-1.176 1.968 6.21 6.21 0 0 1-1.848 1.488c-.72.4-1.512.6-2.376.6-.512 0-.92-.064-1.224-.192-.304-.128-.456-.272-.456-.432 0-.112.056-.176.168-.192.128-.032.264-.048.408-.048.752-.016 1.432-.176 2.04-.48a5.424 5.424 0 0 0 1.608-1.176 5.73 5.73 0 0 0 1.032-1.584c.24-.56.36-1.112.36-1.656 0-.48-.112-.896-.336-1.248-.208-.352-.544-.528-1.008-.528-.4 0-.808.128-1.224.384-.4.256-.776.584-1.128.984a8.554 8.554 0 0 0-.936 1.224 8.3 8.3 0 0 0-.624 1.104 83.57 83.57 0 0 0-.84 3.144c-.24 1.056-.472 2.032-.696 2.928a24.34 24.34 0 0 1-.672 2.28c-.24.624-.496 1.048-.768 1.272a.611.611 0 0 1-.408.168Zm14.763-5.592c-.528 0-.984-.176-1.368-.528-.4-.352-.6-.88-.6-1.584 0-.56.128-1.168.384-1.824a9.278 9.278 0 0 1 1.056-1.944c.448-.64.96-1.216 1.536-1.728a7.78 7.78 0 0 1 1.848-1.272c.656-.32 1.312-.48 1.968-.48.688 0 1.272.176 1.752.528.48.352.72.816.72 1.392 0 .432-.152.744-.456.936-.304.192-.664.248-1.08.168.032-.144.056-.288.072-.432.032-.144.048-.296.048-.456 0-.32-.064-.608-.192-.864s-.4-.384-.816-.384c-.448 0-.904.152-1.368.456a6.596 6.596 0 0 0-1.344 1.2 9.928 9.928 0 0 0-1.128 1.608 9.519 9.519 0 0 0-.792 1.704c-.192.56-.288 1.064-.288 1.512 0 .512.184.768.552.768.368 0 .776-.176 1.224-.528a9.938 9.938 0 0 0 1.344-1.368c.464-.544.904-1.096 1.32-1.656a76.3 76.3 0 0 1 1.08-1.464c.048-.08.112-.12.192-.12.064.016.184.056.36.12.192.048.368.128.528.24.16.112.24.256.24.432 0 .16-.072.368-.216.624-.128.24-.288.512-.48.816a9.505 9.505 0 0 0-.48.888 2.061 2.061 0 0 0-.192.84c0 .208.056.408.168.6.112.176.296.264.552.264.384 0 .92-.28 1.608-.84.704-.576 1.416-1.544 2.136-2.904l.456.456a10.264 10.264 0 0 1-1.392 2.304c-.528.656-1.088 1.168-1.68 1.536-.592.384-1.192.576-1.8.576-.656 0-1.144-.208-1.464-.624a2.438 2.438 0 0 1-.528-1.344v-.12c-.64.768-1.232 1.376-1.776 1.824-.528.448-1.096.672-1.704.672Zm15.92-.504c-.592 0-1.072-.16-1.44-.48-.368-.304-.552-.72-.552-1.248 0-.448.112-.928.336-1.44.224-.512.448-1.016.672-1.512.24-.496.36-.936.36-1.32 0-.368-.12-.672-.36-.912a2.949 2.949 0 0 0-.84-.624c-.352.88-.752 1.736-1.2 2.568a53.423 53.423 0 0 1-1.056 1.92l-.36-.696c.224-.416.52-1.008.888-1.776s.72-1.624 1.056-2.568c-.16-.16-.24-.376-.24-.648 0-.416.128-.808.384-1.176.256-.368.504-.552.744-.552.192 0 .328.112.408.336.096.208.144.352.144.432 0 .08-.04.224-.12.432-.064.208-.112.36-.144.456.016.176.152.352.408.528.272.16.576.352.912.576.336.224.632.504.888.84.256.336.384.76.384 1.272 0 .464-.104.936-.312 1.416-.208.48-.416.928-.624 1.344-.208.416-.312.776-.312 1.08 0 .224.056.376.168.456a.953.953 0 0 0 .432.096c.384 0 .784-.112 1.2-.336.416-.24.824-.544 1.224-.912s.752-.752 1.056-1.152c.304-.416.536-.792.696-1.128l.576.432c-.304.688-.744 1.368-1.32 2.04A8.393 8.393 0 0 1 71.501 70c-.704.416-1.416.624-2.136.624Zm9.223.432c-1.024 0-1.816-.28-2.376-.84-.544-.544-.816-1.232-.816-2.064 0-.704.176-1.448.528-2.232a9.11 9.11 0 0 1 1.464-2.232 8.05 8.05 0 0 1 2.016-1.704c.736-.432 1.472-.648 2.208-.648.416 0 .808.112 1.176.336.384.208.576.632.576 1.272 0 .608-.176 1.176-.528 1.704-.352.528-.824 1-1.416 1.416a8.836 8.836 0 0 1-1.968 1.032 9.208 9.208 0 0 1-2.136.504 4.69 4.69 0 0 0-.048.216v.336c0 .08.008.224.024.432.032.192.104.4.216.624.112.224.296.416.552.576.256.16.608.24 1.056.24.672 0 1.344-.184 2.016-.552a8.072 8.072 0 0 0 1.92-1.512 8.806 8.806 0 0 0 1.512-2.088l.48.384c-.432.96-.992 1.8-1.68 2.52a7.552 7.552 0 0 1-2.256 1.68c-.816.4-1.656.6-2.52.6Zm-1.008-4.344c.416-.048.88-.192 1.392-.432.512-.24 1-.544 1.464-.912.48-.368.872-.768 1.176-1.2.304-.448.456-.896.456-1.344 0-.176-.032-.296-.096-.36s-.168-.096-.312-.096c-.368 0-.752.136-1.152.408-.4.256-.792.6-1.176 1.032-.384.416-.728.88-1.032 1.392a8.613 8.613 0 0 0-.72 1.512ZM94.23 70.48c-.624 0-1.104-.16-1.44-.48-.32-.304-.48-.696-.48-1.176 0-.32.056-.656.168-1.008l.336-1.104c.112-.368.168-.72.168-1.056 0-.352-.088-.592-.264-.72a.831.831 0 0 0-.576-.216c-.48 0-.976.2-1.488.6a9.03 9.03 0 0 0-1.464 1.464 25.687 25.687 0 0 0-1.32 1.848c-.416.64-.776 1.216-1.08 1.728-.304 0-.592-.056-.864-.168a1.479 1.479 0 0 1-.696-.528c.016-.08.112-.32.288-.72.16-.416.344-.904.552-1.464.208-.576.392-1.176.552-1.8.16-.624.24-1.192.24-1.704.112-.128.28-.256.504-.384.24-.128.488-.192.744-.192.56 0 .84.24.84.72 0 .192-.04.48-.12.864-.064.368-.16.792-.288 1.272.416-.56.872-1.088 1.368-1.584a7.429 7.429 0 0 1 1.536-1.2c.544-.32 1.088-.48 1.632-.48.688 0 1.192.232 1.512.696.336.464.504.976.504 1.536 0 .48-.08.928-.24 1.344-.16.416-.32.808-.48 1.176a2.952 2.952 0 0 0-.216 1.08c0 .256.056.44.168.552a.668.668 0 0 0 .408.144c.384 0 .784-.184 1.2-.552a6.908 6.908 0 0 0 1.176-1.392c.384-.576.72-1.152 1.008-1.728l.408.336c-.336.784-.72 1.504-1.152 2.16-.416.64-.888 1.16-1.416 1.56a2.808 2.808 0 0 1-1.728.576Zm7.696.624c-.752 0-1.352-.208-1.8-.624-.432-.416-.648-1.04-.648-1.872 0-.464.064-1.016.192-1.656.128-.64.296-1.32.504-2.04.224-.736.464-1.456.72-2.16a5.56 5.56 0 0 0-.408-.12 51.673 51.673 0 0 0-.456-.192v-.744c.288.048.504.096.648.144.144.032.32.064.528.096a30.317 30.317 0 0 1 1.44-3.144c.512-.96 1.008-1.728 1.488-2.304.48-.576.896-.864 1.248-.864.176 0 .336.064.48.192.144.128.216.272.216.432 0 .192-.096.504-.288.936-.192.432-.44.92-.744 1.464a78.76 78.76 0 0 1-.888 1.584c-.288.528-.552.984-.792 1.368-.224.384-.36.632-.408.744.416.064.8.12 1.152.168a11.255 11.255 0 0 0 2.496-.048 31.405 31.405 0 0 0 1.656-.264c.432-1.152.912-2.28 1.44-3.384a30.256 30.256 0 0 1 1.608-3c.56-.896 1.088-1.608 1.584-2.136.512-.544.96-.816 1.344-.816.32 0 .568.184.744.552.176.352.264.736.264 1.152 0 .528-.136 1.168-.408 1.92a13.428 13.428 0 0 1-1.128 2.328c-.48.8-1.048 1.552-1.704 2.256a8.647 8.647 0 0 1-2.088 1.704c-.208.48-.4 1.08-.576 1.8a25.75 25.75 0 0 0-.384 2.064c-.096.672-.144 1.208-.144 1.608a20.354 20.354 0 0 1 1.296-2.784c.48-.848 1.016-1.528 1.608-2.04.608-.512 1.264-.768 1.968-.768.736 0 1.272.248 1.608.744.336.48.504 1.008.504 1.584 0 .464-.088.936-.264 1.416-.16.464-.328.912-.504 1.344-.16.416-.24.792-.24 1.128 0 .288.064.488.192.6a.731.731 0 0 0 .456.168c.352 0 .76-.176 1.224-.528.48-.368.944-.848 1.392-1.44a9.236 9.236 0 0 0 1.152-1.896l.456.432c-.352.8-.776 1.536-1.272 2.208-.496.672-1.048 1.2-1.656 1.584-.592.4-1.224.6-1.896.6-.608 0-1.08-.16-1.416-.48-.32-.32-.48-.72-.48-1.2 0-.336.056-.696.168-1.08.128-.4.248-.808.36-1.224.112-.416.168-.8.168-1.152 0-.368-.08-.632-.24-.792-.144-.16-.344-.24-.6-.24-.384 0-.736.16-1.056.48-.304.304-.584.704-.84 1.2a18.149 18.149 0 0 0-.72 1.584 50.628 50.628 0 0 1-.672 1.56c-.208.496-.432.896-.672 1.2-.224.32-.472.48-.744.48-.24 0-.44-.12-.6-.36a3.6 3.6 0 0 1-.36-.864 5.616 5.616 0 0 1-.192-.984 8.77 8.77 0 0 1-.048-.768c-.64.928-1.392 1.68-2.256 2.256-.848.592-1.752.888-2.712.888Zm.696-1.2c.8 0 1.6-.344 2.4-1.032.816-.704 1.52-1.664 2.112-2.88.096-.48.2-.936.312-1.368.112-.432.256-.904.432-1.416-.48.096-.944.168-1.392.216a11.727 11.727 0 0 1-2.616 0 20.2 20.2 0 0 1-1.32-.192c-.352.784-.64 1.576-.864 2.376a9.037 9.037 0 0 0-.336 2.448c0 .656.088 1.128.264 1.416.192.288.528.432 1.008.432Zm7.776-8.64c.464-.4.896-.848 1.296-1.344.4-.496.752-1 1.056-1.512.32-.528.584-1.024.792-1.488.224-.48.376-.896.456-1.248.048-.224.072-.4.072-.528-.128.032-.336.208-.624.528-.272.32-.592.76-.96 1.32a17.048 17.048 0 0 0-1.104 1.92c-.368.72-.696 1.504-.984 2.352Zm13.177 9.792c-1.024 0-1.816-.28-2.376-.84-.544-.544-.816-1.232-.816-2.064 0-.704.176-1.448.528-2.232a9.11 9.11 0 0 1 1.464-2.232 8.05 8.05 0 0 1 2.016-1.704c.736-.432 1.472-.648 2.208-.648.416 0 .808.112 1.176.336.384.208.576.632.576 1.272 0 .608-.176 1.176-.528 1.704-.352.528-.824 1-1.416 1.416a8.836 8.836 0 0 1-1.968 1.032 9.208 9.208 0 0 1-2.136.504 4.69 4.69 0 0 0-.048.216v.336c0 .08.008.224.024.432.032.192.104.4.216.624.112.224.296.416.552.576.256.16.608.24 1.056.24.672 0 1.344-.184 2.016-.552a8.072 8.072 0 0 0 1.92-1.512 8.806 8.806 0 0 0 1.512-2.088l.48.384c-.432.96-.992 1.8-1.68 2.52a7.552 7.552 0 0 1-2.256 1.68c-.816.4-1.656.6-2.52.6Zm-1.008-4.344c.416-.048.88-.192 1.392-.432.512-.24 1-.544 1.464-.912.48-.368.872-.768 1.176-1.2.304-.448.456-.896.456-1.344 0-.176-.032-.296-.096-.36s-.168-.096-.312-.096c-.368 0-.752.136-1.152.408-.4.256-.792.6-1.176 1.032-.384.416-.728.88-1.032 1.392a8.613 8.613 0 0 0-.72 1.512Zm5.736-6.744a12.838 12.838 0 0 0-1.2-1.272 15.617 15.617 0 0 0-1.608-1.368c.032-.32.12-.552.264-.696.16-.16.328-.24.504-.24.24 0 .512.112.816.336.304.208.592.472.864.792.288.32.52.632.696.936.176.288.264.504.264.648 0 .112-.056.264-.168.456a.826.826 0 0 1-.432.408Zm5.635 11.256c-.8 0-1.448-.168-1.944-.504a2.718 2.718 0 0 1-1.032-1.224 4.112 4.112 0 0 1-.312-1.56c0-.464.064-.824.192-1.08.128-.256.288-.44.48-.552.192-.128.368-.224.528-.288.176-.064.304-.136.384-.216.4-.416.808-.896 1.224-1.44.432-.56.8-1.176 1.104-1.848v-.24c0-.64.104-1.088.312-1.344.224-.272.48-.408.768-.408.192 0 .328.048.408.144a.564.564 0 0 1 .168.336.978.978 0 0 1-.072.336 2.278 2.278 0 0 0-.048.528c0 .48.112 1.032.336 1.656a33.8 33.8 0 0 1 .696 1.944 6.369 6.369 0 0 1 .336 2.64c-.016.16-.04.312-.072.456.496-.128.984-.4 1.464-.816.48-.432.936-1.064 1.368-1.896l.288.216c-.304.912-.744 1.648-1.32 2.208a3.784 3.784 0 0 1-2.016 1.008c-.256.656-.68 1.144-1.272 1.464-.576.32-1.232.48-1.968.48Zm-.168-1.056a1.707 1.707 0 0 0 1.536-.936 4.915 4.915 0 0 1-1.776-.768c-.528-.368-.936-.744-1.224-1.128-.224.048-.336.264-.336.648 0 .528.152 1.024.456 1.488.304.464.752.696 1.344.696Zm1.728-1.656a1.4 1.4 0 0 0 .048-.384c.016-.16.024-.28.024-.36a9.666 9.666 0 0 0-.288-2.136 216.88 216.88 0 0 1-.528-2.16 30.843 30.843 0 0 1-1.008 1.608c-.384.576-.744 1.04-1.08 1.392.256.432.632.84 1.128 1.224a4.552 4.552 0 0 0 1.704.816Zm8.99 2.544c-1.024 0-1.816-.28-2.376-.84-.544-.544-.816-1.232-.816-2.064 0-.704.176-1.448.528-2.232a9.11 9.11 0 0 1 1.464-2.232 8.05 8.05 0 0 1 2.016-1.704c.736-.432 1.472-.648 2.208-.648.416 0 .808.112 1.176.336.384.208.576.632.576 1.272 0 .608-.176 1.176-.528 1.704-.352.528-.824 1-1.416 1.416a8.836 8.836 0 0 1-1.968 1.032 9.208 9.208 0 0 1-2.136.504 4.69 4.69 0 0 0-.048.216v.336c0 .08.008.224.024.432.032.192.104.4.216.624.112.224.296.416.552.576.256.16.608.24 1.056.24.672 0 1.344-.184 2.016-.552a8.072 8.072 0 0 0 1.92-1.512 8.806 8.806 0 0 0 1.512-2.088l.48.384c-.432.96-.992 1.8-1.68 2.52a7.552 7.552 0 0 1-2.256 1.68c-.816.4-1.656.6-2.52.6Zm-1.008-4.344c.416-.048.88-.192 1.392-.432.512-.24 1-.544 1.464-.912.48-.368.872-.768 1.176-1.2.304-.448.456-.896.456-1.344 0-.176-.032-.296-.096-.36s-.168-.096-.312-.096c-.368 0-.752.136-1.152.408-.4.256-.792.6-1.176 1.032-.384.416-.728.88-1.032 1.392a8.613 8.613 0 0 0-.72 1.512Zm19.742 4.344c-1.024 0-1.816-.28-2.376-.84-.544-.544-.816-1.232-.816-2.064 0-.704.176-1.448.528-2.232a9.11 9.11 0 0 1 1.464-2.232 8.05 8.05 0 0 1 2.016-1.704c.736-.432 1.472-.648 2.208-.648.416 0 .808.112 1.176.336.384.208.576.632.576 1.272 0 .608-.176 1.176-.528 1.704-.352.528-.824 1-1.416 1.416a8.836 8.836 0 0 1-1.968 1.032 9.208 9.208 0 0 1-2.136.504 4.69 4.69 0 0 0-.048.216v.336c0 .08.008.224.024.432.032.192.104.4.216.624.112.224.296.416.552.576.256.16.608.24 1.056.24.672 0 1.344-.184 2.016-.552a8.072 8.072 0 0 0 1.92-1.512 8.806 8.806 0 0 0 1.512-2.088l.48.384c-.432.96-.992 1.8-1.68 2.52a7.552 7.552 0 0 1-2.256 1.68c-.816.4-1.656.6-2.52.6Zm-1.008-4.344c.416-.048.88-.192 1.392-.432.512-.24 1-.544 1.464-.912.48-.368.872-.768 1.176-1.2.304-.448.456-.896.456-1.344 0-.176-.032-.296-.096-.36s-.168-.096-.312-.096c-.368 0-.752.136-1.152.408-.4.256-.792.6-1.176 1.032-.384.416-.728.88-1.032 1.392a8.613 8.613 0 0 0-.72 1.512Zm16.652 3.768c-.624 0-1.104-.16-1.44-.48-.32-.304-.48-.696-.48-1.176 0-.32.056-.656.168-1.008l.336-1.104c.112-.368.168-.72.168-1.056 0-.352-.088-.592-.264-.72a.831.831 0 0 0-.576-.216c-.48 0-.976.2-1.488.6a9.03 9.03 0 0 0-1.464 1.464 25.687 25.687 0 0 0-1.32 1.848c-.416.64-.776 1.216-1.08 1.728-.304 0-.592-.056-.864-.168a1.479 1.479 0 0 1-.696-.528c.016-.08.112-.32.288-.72.16-.416.344-.904.552-1.464.208-.576.392-1.176.552-1.8.16-.624.24-1.192.24-1.704.112-.128.28-.256.504-.384.24-.128.488-.192.744-.192.56 0 .84.24.84.72 0 .192-.04.48-.12.864-.064.368-.16.792-.288 1.272.416-.56.872-1.088 1.368-1.584a7.429 7.429 0 0 1 1.536-1.2c.544-.32 1.088-.48 1.632-.48.688 0 1.192.232 1.512.696.336.464.504.976.504 1.536 0 .48-.08.928-.24 1.344-.16.416-.32.808-.48 1.176a2.952 2.952 0 0 0-.216 1.08c0 .256.056.44.168.552a.668.668 0 0 0 .408.144c.384 0 .784-.184 1.2-.552a6.908 6.908 0 0 0 1.176-1.392c.384-.576.72-1.152 1.008-1.728l.408.336c-.336.784-.72 1.504-1.152 2.16-.416.64-.888 1.16-1.416 1.56a2.808 2.808 0 0 1-1.728.576Zm8.128.864c-.832 0-1.52-.264-2.064-.792-.528-.512-.792-1.304-.792-2.376 0-.784.152-1.552.456-2.304a7.157 7.157 0 0 1 1.224-2.016 6.24 6.24 0 0 1 1.704-1.44c.64-.352 1.288-.528 1.944-.528.672 0 1.152.168 1.44.504.304.336.456.728.456 1.176 0 .448-.112.888-.336 1.32-.208.416-.496.624-.864.624-.304 0-.552-.152-.744-.456.16-.112.328-.32.504-.624s.264-.696.264-1.176c0-.128-.032-.224-.096-.288-.064-.08-.184-.12-.36-.12-.4 0-.824.184-1.272.552-.432.352-.84.816-1.224 1.392a9.056 9.056 0 0 0-.912 1.8c-.224.624-.336 1.2-.336 1.728 0 .448.112.864.336 1.248.24.368.696.552 1.368.552.608 0 1.24-.176 1.896-.528.656-.352 1.272-.84 1.848-1.464.576-.64 1.04-1.4 1.392-2.28l.48.432a8.612 8.612 0 0 1-1.608 2.616 7.905 7.905 0 0 1-2.256 1.776c-.816.448-1.632.672-2.448.672Zm8.544-.432c-.352 0-.608-.272-.768-.816-.144-.544-.216-1.176-.216-1.896 0-.736.12-1.624.36-2.664.256-1.04.592-2.136 1.008-3.288a48.6 48.6 0 0 1 1.416-3.384 34.339 34.339 0 0 1 1.608-3c.56-.912 1.088-1.64 1.584-2.184.512-.544.96-.816 1.344-.816.336 0 .592.184.768.552.176.368.264.752.264 1.152 0 .432-.104.968-.312 1.608a14.025 14.025 0 0 1-.816 2.016 17.22 17.22 0 0 1-1.248 2.136c-.464.688-.976 1.32-1.536 1.896a7.945 7.945 0 0 1-1.704 1.392 15.525 15.525 0 0 0-.504 1.536 10.675 10.675 0 0 0-.312 2.544v.264c.016.08.024.16.024.24.064-.096.168-.344.312-.744s.336-.864.576-1.392c.256-.544.568-1.072.936-1.584.368-.528.8-.96 1.296-1.296a2.87 2.87 0 0 1 1.704-.528c.544 0 .968.128 1.272.384.304.24.52.544.648.912.128.352.192.712.192 1.08 0 .512-.088.992-.264 1.44-.16.448-.328.872-.504 1.272-.16.384-.24.752-.24 1.104 0 .288.064.488.192.6a.67.67 0 0 0 .456.168c.352 0 .76-.176 1.224-.528.48-.352.952-.816 1.416-1.392.48-.592.888-1.24 1.224-1.944l.384.408c-.368.8-.8 1.536-1.296 2.208-.496.672-1.04 1.208-1.632 1.608-.592.4-1.232.6-1.92.6-.608 0-1.072-.16-1.392-.48-.32-.32-.48-.72-.48-1.2 0-.336.056-.704.168-1.104.128-.416.248-.832.36-1.248a4.38 4.38 0 0 0 .168-1.128c0-.384-.088-.648-.264-.792a.863.863 0 0 0-.6-.216c-.4 0-.76.16-1.08.48-.32.304-.608.704-.864 1.2a18.149 18.149 0 0 0-.72 1.584 50.628 50.628 0 0 1-.672 1.56c-.224.496-.464.896-.72 1.2-.24.32-.52.48-.84.48Zm2.256-8.832a8.812 8.812 0 0 0 1.2-1.32c.384-.512.736-1.04 1.056-1.584.336-.56.624-1.096.864-1.608.256-.528.456-1 .6-1.416.144-.416.224-.736.24-.96V55.12c-.096 0-.304.2-.624.6-.304.384-.664.912-1.08 1.584-.4.656-.808 1.4-1.224 2.232-.4.832-.744 1.68-1.032 2.544Zm12.003 9.048c-.528 0-.984-.176-1.368-.528-.4-.352-.6-.88-.6-1.584 0-.56.128-1.168.384-1.824a9.278 9.278 0 0 1 1.056-1.944c.448-.64.96-1.216 1.536-1.728a7.78 7.78 0 0 1 1.848-1.272c.656-.32 1.312-.48 1.968-.48.688 0 1.272.176 1.752.528.48.352.72.816.72 1.392 0 .432-.152.744-.456.936-.304.192-.664.248-1.08.168.032-.144.056-.288.072-.432.032-.144.048-.296.048-.456 0-.32-.064-.608-.192-.864s-.4-.384-.816-.384c-.448 0-.904.152-1.368.456a6.596 6.596 0 0 0-1.344 1.2 9.928 9.928 0 0 0-1.128 1.608 9.519 9.519 0 0 0-.792 1.704c-.192.56-.288 1.064-.288 1.512 0 .512.184.768.552.768.368 0 .776-.176 1.224-.528a9.938 9.938 0 0 0 1.344-1.368c.464-.544.904-1.096 1.32-1.656a76.3 76.3 0 0 1 1.08-1.464c.048-.08.112-.12.192-.12.064.016.184.056.36.12.192.048.368.128.528.24.16.112.24.256.24.432 0 .16-.072.368-.216.624-.128.24-.288.512-.48.816a9.505 9.505 0 0 0-.48.888 2.061 2.061 0 0 0-.192.84c0 .208.056.408.168.6.112.176.296.264.552.264.384 0 .92-.28 1.608-.84.704-.576 1.416-1.544 2.136-2.904l.456.456a10.264 10.264 0 0 1-1.392 2.304c-.528.656-1.088 1.168-1.68 1.536-.592.384-1.192.576-1.8.576-.656 0-1.144-.208-1.464-.624a2.438 2.438 0 0 1-.528-1.344v-.12c-.64.768-1.232 1.376-1.776 1.824-.528.448-1.096.672-1.704.672Zm19.568-.648c-.624 0-1.104-.16-1.44-.48-.32-.304-.48-.696-.48-1.176 0-.32.056-.656.168-1.008l.336-1.104c.112-.368.168-.72.168-1.056 0-.352-.088-.592-.264-.72a.831.831 0 0 0-.576-.216c-.48 0-.976.2-1.488.6a9.03 9.03 0 0 0-1.464 1.464 25.687 25.687 0 0 0-1.32 1.848c-.416.64-.776 1.216-1.08 1.728-.304 0-.592-.056-.864-.168a1.479 1.479 0 0 1-.696-.528c.016-.08.112-.32.288-.72.16-.416.344-.904.552-1.464.208-.576.392-1.176.552-1.8.16-.624.24-1.192.24-1.704.112-.128.28-.256.504-.384.24-.128.488-.192.744-.192.56 0 .84.24.84.72 0 .192-.04.48-.12.864-.064.368-.16.792-.288 1.272.416-.56.872-1.088 1.368-1.584a7.429 7.429 0 0 1 1.536-1.2c.544-.32 1.088-.48 1.632-.48.688 0 1.192.232 1.512.696.336.464.504.976.504 1.536 0 .48-.08.928-.24 1.344-.16.416-.32.808-.48 1.176a2.952 2.952 0 0 0-.216 1.08c0 .256.056.44.168.552a.668.668 0 0 0 .408.144c.384 0 .784-.184 1.2-.552a6.908 6.908 0 0 0 1.176-1.392c.384-.576.72-1.152 1.008-1.728l.408.336c-.336.784-.72 1.504-1.152 2.16-.416.64-.888 1.16-1.416 1.56a2.808 2.808 0 0 1-1.728.576Zm7.6.624c-.704 0-1.272-.208-1.704-.624-.432-.416-.648-1.048-.648-1.896 0-.656.12-1.472.36-2.448.256-.976.576-1.984.96-3.024a2.363 2.363 0 0 0-.408-.072 2.282 2.282 0 0 1-.432-.144v-.744a26.531 26.531 0 0 0 1.152.12c.336-.848.696-1.664 1.08-2.448.4-.8.792-1.512 1.176-2.136.4-.624.776-1.112 1.128-1.464.352-.368.664-.552.936-.552.16 0 .312.064.456.192.144.112.216.28.216.504 0 .32-.168.776-.504 1.368-.32.592-.72 1.288-1.2 2.088-.48.784-.944 1.624-1.392 2.52h.744c.704 0 1.336-.008 1.896-.024.576-.032 1.16-.08 1.752-.144v.792c-.88.08-1.688.144-2.424.192-.736.048-1.44.08-2.112.096h-.288a24.26 24.26 0 0 0-.888 2.424 8.48 8.48 0 0 0-.36 2.4c0 .656.104 1.12.312 1.392.208.272.536.408.984.408.8 0 1.616-.36 2.448-1.08.848-.736 1.584-1.728 2.208-2.976l.336.24a11.23 11.23 0 0 1-1.56 2.568c-.608.768-1.272 1.368-1.992 1.8-.72.448-1.464.672-2.232.672Zm9.674-.048c-1.024 0-1.816-.28-2.376-.84-.544-.544-.816-1.232-.816-2.064 0-.704.176-1.448.528-2.232a9.11 9.11 0 0 1 1.464-2.232 8.05 8.05 0 0 1 2.016-1.704c.736-.432 1.472-.648 2.208-.648.416 0 .808.112 1.176.336.384.208.576.632.576 1.272 0 .608-.176 1.176-.528 1.704-.352.528-.824 1-1.416 1.416a8.836 8.836 0 0 1-1.968 1.032 9.208 9.208 0 0 1-2.136.504 4.69 4.69 0 0 0-.048.216v.336c0 .08.008.224.024.432.032.192.104.4.216.624.112.224.296.416.552.576.256.16.608.24 1.056.24.672 0 1.344-.184 2.016-.552a8.072 8.072 0 0 0 1.92-1.512 8.806 8.806 0 0 0 1.512-2.088l.48.384c-.432.96-.992 1.8-1.68 2.52a7.552 7.552 0 0 1-2.256 1.68c-.816.4-1.656.6-2.52.6Zm-1.008-4.344c.416-.048.88-.192 1.392-.432.512-.24 1-.544 1.464-.912.48-.368.872-.768 1.176-1.2.304-.448.456-.896.456-1.344 0-.176-.032-.296-.096-.36s-.168-.096-.312-.096c-.368 0-.752.136-1.152.408-.4.256-.792.6-1.176 1.032-.384.416-.728.88-1.032 1.392a8.613 8.613 0 0 0-.72 1.512Zm5.136-6.768a.84.84 0 0 1-.456-.384c-.08-.192-.12-.328-.12-.408 0-.128.08-.336.24-.624.16-.304.368-.616.624-.936.256-.336.52-.616.792-.84.288-.24.56-.36.816-.36.176 0 .328.064.456.192.144.112.232.328.264.648-.56.544-1.056 1.024-1.488 1.44-.416.4-.792.824-1.128 1.272Zm6.212 11.112c-1.024 0-1.816-.28-2.376-.84-.544-.544-.816-1.232-.816-2.064 0-.704.176-1.448.528-2.232a9.11 9.11 0 0 1 1.464-2.232 8.05 8.05 0 0 1 2.016-1.704c.736-.432 1.472-.648 2.208-.648.416 0 .808.112 1.176.336.384.208.576.632.576 1.272 0 .608-.176 1.176-.528 1.704-.352.528-.824 1-1.416 1.416a8.836 8.836 0 0 1-1.968 1.032 9.208 9.208 0 0 1-2.136.504 4.69 4.69 0 0 0-.048.216v.336c0 .08.008.224.024.432.032.192.104.4.216.624.112.224.296.416.552.576.256.16.608.24 1.056.24.672 0 1.344-.184 2.016-.552a8.072 8.072 0 0 0 1.92-1.512 8.806 8.806 0 0 0 1.512-2.088l.48.384c-.432.96-.992 1.8-1.68 2.52a7.552 7.552 0 0 1-2.256 1.68c-.816.4-1.656.6-2.52.6Zm-1.008-4.344c.416-.048.88-.192 1.392-.432.512-.24 1-.544 1.464-.912.48-.368.872-.768 1.176-1.2.304-.448.456-.896.456-1.344 0-.176-.032-.296-.096-.36s-.168-.096-.312-.096c-.368 0-.752.136-1.152.408-.4.256-.792.6-1.176 1.032-.384.416-.728.88-1.032 1.392a8.613 8.613 0 0 0-.72 1.512Z" fill="#0F2627"/><path fill-rule="evenodd" clip-rule="evenodd" d="M155.875 35h-46.428v-1.613h46.428V35Z" fill="url('#paint0_radial_68_3')"/><path d="M128.849 11.1c3.671 5.921 4.263 12.499 3.765 17.18-2.216-7.172-7.364-12.925-13.951-16.13-.214-1.375-.265-3.377-.171-5.377.083-1.789.279-3.527.559-4.772 4.423 2.424 7.516 5.518 9.629 8.83a.54.54 0 0 0 .165.266l.004.002ZM146.027 1.402c1.362 4.852.849 9.117.391 10.787-5.542 2.876-10.102 7.762-12.585 13.703a30.004 30.004 0 0 0-.754-7.241c.563-2.753 1.619-5.335 2.961-7.637a.503.503 0 0 0 .061-.104 27.892 27.892 0 0 1 2.519-3.594c2.374-2.871 5.076-4.948 7.407-5.914Z" fill="#1C959C"/><path d="M134.941 10.768c-.754-.728-1.654-1.077-2.536-1.077-.872 0-1.761.34-2.509 1.05a26.41 26.41 0 0 1 2.603 5.778 26.932 26.932 0 0 1 2.442-5.75Z" fill="#1E4C4F"/><path fill-rule="evenodd" clip-rule="evenodd" d="M133.252 4.025a.72.72 0 1 1-1.439 0 .72.72 0 0 1 1.439 0Zm1.076 0a1.795 1.795 0 1 1-3.59 0 1.795 1.795 0 0 1 3.59 0ZM132.533.642a.306.306 0 1 0 0 .612.306.306 0 0 0 0-.612Zm0 1.076a.769.769 0 1 0 0-1.538.769.769 0 0 0 0 1.538Z" fill="#1C959C"/><path d="M133.396 30.91c9.797-.326 15.694-5.476 19.172-10.616 1.779-2.629 2.922-5.253 3.62-7.222a29.93 29.93 0 0 0 .736-2.37l.059-.231c-11.126.341-21.215 9.05-23.587 20.438ZM132.181 30.924l.002-.01c-2.361-11.362-12.205-19.622-23.833-20.415l.059.22c.156.583.403 1.42.764 2.423.722 2.01 1.898 4.682 3.708 7.343 3.543 5.206 9.502 10.354 19.3 10.44Z" fill="#1E4C4F"/><defs><radialGradient id="paint0_radial_68_3" cx="0" cy="0" r="1" gradientUnits="userSpaceOnUse" gradientTransform="matrix(25.6559 0 0 15080.3 132.656 35)"><stop stop-color="#1E4C4F"/><stop offset=".683" stop-color="#1E4C4F" stop-opacity=".08"/><stop offset=".927" stop-color="#7C5460" stop-opacity=".018"/><stop offset="1" stop-color="#7C5460" stop-opacity="0"/></radialGradient></defs></svg>