<svg width="386" height="32" fill="none" xmlns="http://www.w3.org/2000/svg"><path d="M72.11 25.61c-.74 0-1.57-.15-2.49-.45-.92-.3-1.87-.66-2.85-1.08-.96-.42-1.9-.82-2.82-1.2-.5.54-1.04.96-1.62 1.26-.58.3-1.2.45-1.86.45-.7 0-1.3-.16-1.8-.48-.52-.3-.91-.67-1.17-1.11-.28-.44-.42-.84-.42-1.2 0-.4.18-.75.54-1.05.36-.3 1-.45 1.92-.45.54 0 1.13.06 1.77.18.66.1 1.33.24 2.01.42.46-.8.88-1.74 1.26-2.82.4-1.08.79-2.21 1.17-3.39.38-1.2.76-2.37 1.14-3.51-1-.34-1.77-.81-2.31-1.41-.54-.62-.81-1.24-.81-1.86 0-.4.1-.79.3-1.17.2-.4.49-.73.87-.99.38-.28.83-.42 1.35-.42-.26.32-.43.68-.51 1.08-.06.4-.09.72-.09.96 0 .66.15 1.22.45 1.68.3.46.67.82 1.11 1.08.38-1.14.78-2.23 1.2-3.27.44-1.06.92-1.99 1.44-2.79.54-.82 1.13-1.47 1.77-1.95.66-.48 1.4-.72 2.22-.72.46 0 .94.1 1.44.3.52.18.96.5 1.32.96.38.46.57 1.12.57 1.98 0 .68-.15 1.41-.45 2.19-.28.78-.73 1.53-1.35 2.25-.62.7-1.42 1.29-2.4 1.77-.96.46-2.13.71-3.51.75h-.27c-.38 1.16-.78 2.33-1.2 3.51-.42 1.18-.87 2.31-1.35 3.39-.48 1.08-1 2.04-1.56 2.88.78.22 1.64.47 2.58.75.96.28 1.91.52 2.85.72.96.18 1.8.27 2.52.27.48 0 .92-.05 1.32-.15.42-.12.86-.29 1.32-.51-.4 1.12-.9 1.92-1.5 2.4-.58.5-1.28.75-2.1.75Zm-11.94-2.13c.52 0 .94-.12 1.26-.36.32-.22.64-.5.96-.84-.62-.22-1.2-.4-1.74-.54-.54-.16-1.01-.24-1.41-.24-.38 0-.65.07-.81.21-.18.14-.27.31-.27.51 0 .32.2.61.6.87.4.26.87.39 1.41.39Zm9.39-12.87c.88-.06 1.66-.34 2.34-.84.68-.5 1.26-1.1 1.74-1.8s.84-1.41 1.08-2.13c.26-.74.39-1.38.39-1.92 0-.52-.1-.87-.3-1.05-.2-.2-.43-.3-.69-.3-.58 0-1.13.37-1.65 1.11-.52.74-1.02 1.72-1.5 2.94-.46 1.2-.93 2.53-1.41 3.99Zm12.13 13.8c-.66 0-1.23-.22-1.71-.66-.5-.44-.75-1.1-.75-1.98 0-.7.16-1.46.48-2.28.32-.82.76-1.63 1.32-2.43.56-.8 1.2-1.52 1.92-2.16.72-.66 1.49-1.19 2.31-1.59.82-.4 1.64-.6 2.46-.6.86 0 1.59.22 2.19.66.6.44.9 1.02.9 1.74 0 .54-.19.93-.57 1.17-.38.24-.83.31-1.35.21.04-.18.07-.36.09-.54.04-.18.06-.37.06-.57 0-.4-.08-.76-.24-1.08-.16-.32-.5-.48-1.02-.48-.56 0-1.13.19-1.71.57-.58.38-1.14.88-1.68 1.5-.52.6-.99 1.27-1.41 2.01-.42.72-.75 1.43-.99 2.13s-.36 1.33-.36 1.89c0 .64.23.96.69.96.46 0 .97-.22 1.53-.66.56-.46 1.12-1.03 1.68-1.71.58-.68 1.13-1.37 1.65-2.07.52-.72.97-1.33 1.35-1.83.06-.1.14-.15.24-.15.08.02.23.07.45.15.24.06.46.16.66.3.2.14.3.32.3.54 0 .2-.09.46-.27.78-.16.3-.36.64-.6 1.02-.22.36-.42.73-.6 1.11-.16.36-.24.71-.24 1.05 0 .26.07.51.21.75.14.22.37.33.69.33.48 0 1.15-.35 2.01-1.05.88-.72 1.77-1.93 2.67-3.63l.57.57a12.83 12.83 0 0 1-1.74 2.88c-.66.82-1.36 1.46-2.1 1.92-.74.48-1.49.72-2.25.72-.82 0-1.43-.26-1.83-.78-.4-.52-.62-1.08-.66-1.68v-.15c-.8.96-1.54 1.72-2.22 2.28-.66.56-1.37.84-2.13.84Zm23.164 6.99c-.16 0-.33-.05-.51-.15-.18-.08-.33-.18-.45-.3-.14-.12-.22-.22-.24-.3.5-1.46.93-2.73 1.29-3.81.34-1.06.63-2.07.87-3.03.24-.94.46-1.92.66-2.94.18-1.04.36-2.22.54-3.54.2-1.34.42-2.95.66-4.83.04-.24.09-.41.15-.51.06-.12.25-.18.57-.18.62 0 1.07.17 1.35.51.28.32.42.68.42 1.08 0 .2-.04.55-.12 1.05-.06.5-.16 1.09-.3 1.77.38-.58.81-1.13 1.29-1.65.5-.52 1.05-.94 1.65-1.26.6-.34 1.25-.51 1.95-.51.98 0 1.79.33 2.43.99.64.66.96 1.53.96 2.61 0 .78-.18 1.61-.54 2.49a9.22 9.22 0 0 1-1.47 2.46c-.64.76-1.41 1.38-2.31 1.86-.9.5-1.89.75-2.97.75-.64 0-1.15-.08-1.53-.24-.38-.16-.57-.34-.57-.54 0-.14.07-.22.21-.24.16-.04.33-.06.51-.06.94-.02 1.79-.22 2.55-.6a6.78 6.78 0 0 0 2.01-1.47c.56-.62.99-1.28 1.29-1.98.3-.7.45-1.39.45-2.07 0-.6-.14-1.12-.42-1.56-.26-.44-.68-.66-1.26-.66-.5 0-1.01.16-1.53.48-.5.32-.97.73-1.41 1.23-.44.48-.83.99-1.17 1.53-.34.52-.6.98-.78 1.38-.38 1.32-.73 2.63-1.05 3.93-.3 1.32-.59 2.54-.87 3.66s-.56 2.07-.84 2.85c-.3.78-.62 1.31-.96 1.59-.16.14-.33.21-.51.21Zm18.452-6.99c-.66 0-1.23-.22-1.71-.66-.5-.44-.75-1.1-.75-1.98 0-.7.16-1.46.48-2.28.32-.82.76-1.63 1.32-2.43.56-.8 1.2-1.52 1.92-2.16.72-.66 1.49-1.19 2.31-1.59.82-.4 1.64-.6 2.46-.6.86 0 1.59.22 2.19.66.6.44.9 1.02.9 1.74 0 .54-.19.93-.57 1.17-.38.24-.83.31-1.35.21.04-.18.07-.36.09-.54.04-.18.06-.37.06-.57 0-.4-.08-.76-.24-1.08-.16-.32-.5-.48-1.02-.48-.56 0-1.13.19-1.71.57-.58.38-1.14.88-1.68 1.5-.52.6-.99 1.27-1.41 2.01-.42.72-.75 1.43-.99 2.13s-.36 1.33-.36 1.89c0 .64.23.96.69.96.46 0 .97-.22 1.53-.66.56-.46 1.12-1.03 1.68-1.71.58-.68 1.13-1.37 1.65-2.07.52-.72.97-1.33 1.35-1.83.06-.1.14-.15.24-.15.08.02.23.07.45.15.24.06.46.16.66.3.2.14.3.32.3.54 0 .2-.09.46-.27.78-.16.3-.36.64-.6 1.02-.22.36-.42.73-.6 1.11-.16.36-.24.71-.24 1.05 0 .26.07.51.21.75.14.22.37.33.69.33.48 0 1.15-.35 2.01-1.05.88-.72 1.77-1.93 2.67-3.63l.57.57a12.83 12.83 0 0 1-1.74 2.88c-.66.82-1.36 1.46-2.1 1.92-.74.48-1.49.72-2.25.72-.82 0-1.43-.26-1.83-.78-.4-.52-.62-1.08-.66-1.68v-.15c-.8.96-1.54 1.72-2.22 2.28-.66.56-1.37.84-2.13.84Zm19.9-.63c-.74 0-1.34-.2-1.8-.6-.46-.38-.69-.9-.69-1.56 0-.56.14-1.16.42-1.8.28-.64.56-1.27.84-1.89.3-.62.45-1.17.45-1.65 0-.46-.15-.84-.45-1.14-.3-.32-.65-.58-1.05-.78-.44 1.1-.94 2.17-1.5 3.21-.54 1.02-.98 1.82-1.32 2.4l-.45-.87c.28-.52.65-1.26 1.11-2.22.46-.96.9-2.03 1.32-3.21-.2-.2-.3-.47-.3-.81 0-.52.16-1.01.48-1.47.32-.46.63-.69.93-.69.24 0 .41.14.51.42.12.26.18.44.18.54 0 .1-.05.28-.15.54-.08.26-.14.45-.18.57.02.22.19.44.51.66.34.2.72.44 1.14.72.42.28.79.63 1.11 1.05.32.42.48.95.48 1.59 0 .58-.13 1.17-.39 1.77-.26.6-.52 1.16-.78 1.68s-.39.97-.39 1.35c0 .28.07.47.21.57.16.08.34.12.54.12.48 0 .98-.14 1.5-.42.52-.3 1.03-.68 1.53-1.14.5-.46.94-.94 1.32-1.44.38-.52.67-.99.87-1.41l.72.54c-.38.86-.93 1.71-1.65 2.55-.72.82-1.52 1.5-2.4 2.04-.88.52-1.77.78-2.67.78Zm11.529.54c-1.28 0-2.27-.35-2.97-1.05-.68-.68-1.02-1.54-1.02-2.58 0-.88.22-1.81.66-2.79.46-1 1.07-1.93 1.83-2.79.76-.88 1.6-1.59 2.52-2.13.92-.54 1.84-.81 2.76-.81.52 0 1.01.14 1.47.42.48.26.72.79.72 1.59 0 .76-.22 1.47-.66 2.13-.44.66-1.03 1.25-1.77 1.77s-1.56.95-2.46 1.29c-.88.32-1.77.53-2.67.63-.02.08-.04.17-.06.27v.42c0 .1.01.28.03.54.04.24.13.5.27.78s.37.52.69.72c.32.2.76.3 1.32.3.84 0 1.68-.23 2.52-.69.86-.48 1.66-1.11 2.4-1.89.76-.78 1.39-1.65 1.89-2.61l.6.48a11.12 11.12 0 0 1-2.1 3.15c-.84.9-1.78 1.6-2.82 2.1-1.02.5-2.07.75-3.15.75Zm-1.26-5.43c.52-.06 1.1-.24 1.74-.54.64-.3 1.25-.68 1.83-1.14.6-.46 1.09-.96 1.47-1.5.38-.56.57-1.12.57-1.68 0-.22-.04-.37-.12-.45-.08-.08-.21-.12-.39-.12-.46 0-.94.17-1.44.51-.5.32-.99.75-1.47 1.29-.48.52-.91 1.1-1.29 1.74-.38.64-.68 1.27-.9 1.89Zm20.814 4.71c-.78 0-1.38-.2-1.8-.6-.4-.38-.6-.87-.6-1.47 0-.4.07-.82.21-1.26l.42-1.38c.14-.46.21-.9.21-1.32 0-.44-.11-.74-.33-.9-.2-.18-.44-.27-.72-.27-.6 0-1.22.25-1.86.75-.62.48-1.23 1.09-1.83 1.83-.58.74-1.13 1.51-1.65 2.31s-.97 1.52-1.35 2.16c-.38 0-.74-.07-1.08-.21-.34-.12-.63-.34-.87-.66.02-.1.14-.4.36-.9.2-.52.43-1.13.69-1.83.26-.72.49-1.47.69-2.25.2-.78.3-1.49.3-2.13.14-.16.35-.32.63-.48.3-.16.61-.24.93-.24.7 0 1.05.3 1.05.9 0 .24-.05.6-.15 1.08-.08.46-.2.99-.36 1.59.52-.7 1.09-1.36 1.71-1.98.62-.62 1.26-1.12 1.92-1.5.68-.4 1.36-.6 2.04-.6.86 0 1.49.29 1.89.87.42.58.63 1.22.63 1.92 0 .6-.1 1.16-.3 1.68-.2.52-.4 1.01-.6 1.47-.18.46-.27.91-.27 1.35 0 .32.07.55.21.69.16.12.33.18.51.18.48 0 .98-.23 1.5-.69.52-.46 1.01-1.04 1.47-1.74.48-.72.9-1.44 1.26-2.16l.51.42c-.42.98-.9 1.88-1.44 2.7-.52.8-1.11 1.45-1.77 1.95-.64.48-1.36.72-2.16.72Zm9.62.78c-.94 0-1.69-.26-2.25-.78-.54-.52-.81-1.3-.81-2.34 0-.58.08-1.27.24-2.07.16-.8.37-1.65.63-2.55.28-.92.58-1.82.9-2.7a6.95 6.95 0 0 0-.51-.15l-.57-.24v-.93c.36.06.63.12.81.18.18.04.4.08.66.12.56-1.42 1.16-2.73 1.8-3.93.64-1.2 1.26-2.16 1.86-2.88.6-.72 1.12-1.08 1.56-1.08.22 0 .42.08.6.24.18.16.27.34.27.54 0 .24-.12.63-.36 1.17-.24.54-.55 1.15-.93 1.83-.36.66-.73 1.32-1.11 1.98-.36.66-.69 1.23-.99 1.71-.28.48-.45.79-.51.93.52.08 1 .15 1.44.21a14.068 14.068 0 0 0 3.12-.06c.62-.08 1.31-.19 2.07-.33.54-1.44 1.14-2.85 1.8-4.23.66-1.4 1.33-2.65 2.01-3.75.7-1.12 1.36-2.01 1.98-2.67.64-.68 1.2-1.02 1.68-1.02.4 0 .71.23.93.69.22.44.33.92.33 1.44 0 .66-.17 1.46-.51 2.4-.34.94-.81 1.91-1.41 2.91-.6 1-1.31 1.94-2.13 2.82-.8.88-1.67 1.59-2.61 2.13-.26.6-.5 1.35-.72 2.25-.2.88-.36 1.74-.48 2.58-.12.84-.18 1.51-.18 2.01.48-1.26 1.02-2.42 1.62-3.48.6-1.06 1.27-1.91 2.01-2.55.76-.64 1.58-.96 2.46-.96.92 0 1.59.31 2.01.93.42.6.63 1.26.63 1.98 0 .58-.11 1.17-.33 1.77-.2.58-.41 1.14-.63 1.68-.2.52-.3.99-.3 1.41 0 .36.08.61.24.75.18.14.37.21.57.21.44 0 .95-.22 1.53-.66.6-.46 1.18-1.06 1.74-1.8.58-.74 1.06-1.53 1.44-2.37l.57.54c-.44 1-.97 1.92-1.59 2.76-.62.84-1.31 1.5-2.07 1.98-.74.5-1.53.75-2.37.75-.76 0-1.35-.2-1.77-.6-.4-.4-.6-.9-.6-1.5 0-.42.07-.87.21-1.35.16-.5.31-1.01.45-1.53s.21-1 .21-1.44c0-.46-.1-.79-.3-.99-.18-.2-.43-.3-.75-.3-.48 0-.92.2-1.32.6-.38.38-.73.88-1.05 1.5-.32.62-.62 1.28-.9 1.98-.28.68-.56 1.33-.84 1.95-.26.62-.54 1.12-.84 1.5-.28.4-.59.6-.93.6-.3 0-.55-.15-.75-.45-.18-.3-.33-.66-.45-1.08-.12-.42-.2-.83-.24-1.23-.04-.42-.06-.74-.06-.96-.8 1.16-1.74 2.1-2.82 2.82-1.06.74-2.19 1.11-3.39 1.11Zm.87-1.5c1 0 2-.43 3-1.29 1.02-.88 1.9-2.08 2.64-3.6.12-.6.25-1.17.39-1.71s.32-1.13.54-1.77c-.6.12-1.18.21-1.74.27-.56.06-1.11.09-1.65.09-.54 0-1.08-.03-1.62-.09s-1.09-.14-1.65-.24c-.44.98-.8 1.97-1.08 2.97-.28 1-.42 2.02-.42 3.06 0 .82.11 1.41.33 1.77.24.36.66.54 1.26.54Zm9.72-10.8c.58-.5 1.12-1.06 1.62-1.68.5-.62.94-1.25 1.32-1.89.4-.66.73-1.28.99-1.86.28-.6.47-1.12.57-1.56.06-.28.09-.5.09-.66-.16.04-.42.26-.78.66-.34.4-.74.95-1.2 1.65-.46.68-.92 1.48-1.38 2.4-.46.9-.87 1.88-1.23 2.94Zm16.47 12.24c-1.28 0-2.27-.35-2.97-1.05-.68-.68-1.02-1.54-1.02-2.58 0-.88.22-1.81.66-2.79.46-1 1.07-1.93 1.83-2.79.76-.88 1.6-1.59 2.52-2.13.92-.54 1.84-.81 2.76-.81.52 0 1.01.14 1.47.42.48.26.72.79.72 1.59 0 .76-.22 1.47-.66 2.13-.44.66-1.03 1.25-1.77 1.77s-1.56.95-2.46 1.29c-.88.32-1.77.53-2.67.63-.02.08-.04.17-.06.27v.42c0 .1.01.28.03.54.04.24.13.5.27.78s.37.52.69.72c.32.2.76.3 1.32.3.84 0 1.68-.23 2.52-.69.86-.48 1.66-1.11 2.4-1.89.76-.78 1.39-1.65 1.89-2.61l.6.48a11.12 11.12 0 0 1-2.1 3.15c-.84.9-1.78 1.6-2.82 2.1-1.02.5-2.07.75-3.15.75Zm-1.26-5.43c.52-.06 1.1-.24 1.74-.54.64-.3 1.25-.68 1.83-1.14.6-.46 1.09-.96 1.47-1.5.38-.56.57-1.12.57-1.68 0-.22-.04-.37-.12-.45-.08-.08-.21-.12-.39-.12-.46 0-.94.17-1.44.51-.5.32-.99.75-1.47 1.29-.48.52-.91 1.1-1.29 1.74-.38.64-.68 1.27-.9 1.89Zm7.17-8.43c-.46-.56-.96-1.09-1.5-1.59-.52-.52-1.19-1.09-2.01-1.71.04-.4.15-.69.33-.87.2-.2.41-.3.63-.3.3 0 .64.14 1.02.42.38.26.74.59 1.08.99.36.4.65.79.87 1.17.22.36.33.63.33.81 0 .14-.07.33-.21.57-.12.24-.3.41-.54.51Zm7.045 14.07c-1 0-1.81-.21-2.43-.63-.6-.4-1.03-.91-1.29-1.53a5.14 5.14 0 0 1-.39-1.95c0-.58.08-1.03.24-1.35.16-.32.36-.55.6-.69.24-.16.46-.28.66-.36.22-.08.38-.17.48-.27.5-.52 1.01-1.12 1.53-1.8.54-.7 1-1.47 1.38-2.31v-.3c0-.8.13-1.36.39-1.68.28-.34.6-.51.96-.51.24 0 .41.06.51.18.12.12.19.26.21.42 0 .12-.03.26-.09.42-.04.16-.06.38-.06.66 0 .6.14 1.29.42 2.07.3.76.59 1.57.87 2.43a7.96 7.96 0 0 1 .42 3.3c-.02.2-.05.39-.09.57.62-.16 1.23-.5 1.83-1.02.6-.54 1.17-1.33 1.71-2.37l.36.27c-.38 1.14-.93 2.06-1.65 2.76a4.73 4.73 0 0 1-2.52 1.26c-.32.82-.85 1.43-1.59 1.83-.72.4-1.54.6-2.46.6Zm-.21-1.32c.4 0 .77-.1 1.11-.3.34-.2.61-.49.81-.87-.82-.18-1.56-.5-2.22-.96-.66-.46-1.17-.93-1.53-1.41-.28.06-.42.33-.42.81 0 .66.19 1.28.57 1.86.38.58.94.87 1.68.87Zm2.16-2.07c.04-.14.06-.3.06-.48.02-.2.03-.35.03-.45-.02-.9-.14-1.79-.36-2.67-.22-.88-.44-1.78-.66-2.7-.36.62-.78 1.29-1.26 2.01-.48.72-.93 1.3-1.35 1.74.32.54.79 1.05 1.41 1.53.62.48 1.33.82 2.13 1.02Zm11.238 3.18c-1.28 0-2.27-.35-2.97-1.05-.68-.68-1.02-1.54-1.02-2.58 0-.88.22-1.81.66-2.79.46-1 1.07-1.93 1.83-2.79.76-.88 1.6-1.59 2.52-2.13.92-.54 1.84-.81 2.76-.81.52 0 1.01.14 1.47.42.48.26.72.79.72 1.59 0 .76-.22 1.47-.66 2.13-.44.66-1.03 1.25-1.77 1.77s-1.56.95-2.46 1.29c-.88.32-1.77.53-2.67.63-.02.08-.04.17-.06.27v.42c0 .1.01.28.03.54.04.24.13.5.27.78s.37.52.69.72c.32.2.76.3 1.32.3.84 0 1.68-.23 2.52-.69.86-.48 1.66-1.11 2.4-1.89.76-.78 1.39-1.65 1.89-2.61l.6.48a11.12 11.12 0 0 1-2.1 3.15c-.84.9-1.78 1.6-2.82 2.1-1.02.5-2.07.75-3.15.75Zm-1.26-5.43c.52-.06 1.1-.24 1.74-.54.64-.3 1.25-.68 1.83-1.14.6-.46 1.09-.96 1.47-1.5.38-.56.57-1.12.57-1.68 0-.22-.04-.37-.12-.45-.08-.08-.21-.12-.39-.12-.46 0-.94.17-1.44.51-.5.32-.99.75-1.47 1.29-.48.52-.91 1.1-1.29 1.74-.38.64-.68 1.27-.9 1.89Zm24.677 5.43c-1.28 0-2.27-.35-2.97-1.05-.68-.68-1.02-1.54-1.02-2.58 0-.88.22-1.81.66-2.79.46-1 1.07-1.93 1.83-2.79.76-.88 1.6-1.59 2.52-2.13.92-.54 1.84-.81 2.76-.81.52 0 1.01.14 1.47.42.48.26.72.79.72 1.59 0 .76-.22 1.47-.66 2.13-.44.66-1.03 1.25-1.77 1.77s-1.56.95-2.46 1.29c-.88.32-1.77.53-2.67.63-.02.08-.04.17-.06.27v.42c0 .1.01.28.03.54.04.24.13.5.27.78s.37.52.69.72c.32.2.76.3 1.32.3.84 0 1.68-.23 2.52-.69.86-.48 1.66-1.11 2.4-1.89.76-.78 1.39-1.65 1.89-2.61l.6.48a11.12 11.12 0 0 1-2.1 3.15c-.84.9-1.78 1.6-2.82 2.1-1.02.5-2.07.75-3.15.75Zm-1.26-5.43c.52-.06 1.1-.24 1.74-.54.64-.3 1.25-.68 1.83-1.14.6-.46 1.09-.96 1.47-1.5.38-.56.57-1.12.57-1.68 0-.22-.04-.37-.12-.45-.08-.08-.21-.12-.39-.12-.46 0-.94.17-1.44.51-.5.32-.99.75-1.47 1.29-.48.52-.91 1.1-1.29 1.74-.38.64-.68 1.27-.9 1.89Zm20.815 4.71c-.78 0-1.38-.2-1.8-.6-.4-.38-.6-.87-.6-1.47 0-.4.07-.82.21-1.26l.42-1.38c.14-.46.21-.9.21-1.32 0-.44-.11-.74-.33-.9-.2-.18-.44-.27-.72-.27-.6 0-1.22.25-1.86.75-.62.48-1.23 1.09-1.83 1.83-.58.74-1.13 1.51-1.65 2.31s-.97 1.52-1.35 2.16c-.38 0-.74-.07-1.08-.21-.34-.12-.63-.34-.87-.66.02-.1.14-.4.36-.9.2-.52.43-1.13.69-1.83.26-.72.49-1.47.69-2.25.2-.78.3-1.49.3-2.13.14-.16.35-.32.63-.48.3-.16.61-.24.93-.24.7 0 1.05.3 1.05.9 0 .24-.05.6-.15 1.08-.08.46-.2.99-.36 1.59.52-.7 1.09-1.36 1.71-1.98.62-.62 1.26-1.12 1.92-1.5.68-.4 1.36-.6 2.04-.6.86 0 1.49.29 1.89.87.42.58.63 1.22.63 1.92 0 .6-.1 1.16-.3 1.68-.2.52-.4 1.01-.6 1.47-.18.46-.27.91-.27 1.35 0 .32.07.55.21.69.16.12.33.18.51.18.48 0 .98-.23 1.5-.69.52-.46 1.01-1.04 1.47-1.74.48-.72.9-1.44 1.26-2.16l.51.42c-.42.98-.9 1.88-1.44 2.7-.52.8-1.11 1.45-1.77 1.95-.64.48-1.36.72-2.16.72Zm10.16 1.08c-1.04 0-1.9-.33-2.58-.99-.66-.64-.99-1.63-.99-2.97 0-.98.19-1.94.57-2.88.38-.94.89-1.78 1.53-2.52.64-.76 1.35-1.36 2.13-1.8.8-.44 1.61-.66 2.43-.66.84 0 1.44.21 1.8.63.38.42.57.91.57 1.47 0 .56-.14 1.11-.42 1.65-.26.52-.62.78-1.08.78-.38 0-.69-.19-.93-.57.2-.14.41-.4.63-.78.22-.38.33-.87.33-1.47 0-.16-.04-.28-.12-.36-.08-.1-.23-.15-.45-.15-.5 0-1.03.23-1.59.69-.54.44-1.05 1.02-1.53 1.74-.46.7-.84 1.45-1.14 2.25-.28.78-.42 1.5-.42 2.16 0 .56.14 1.08.42 1.56.3.46.87.69 1.71.69.76 0 1.55-.22 2.37-.66.82-.44 1.59-1.05 2.31-1.83.72-.8 1.3-1.75 1.74-2.85l.6.54c-.48 1.22-1.15 2.31-2.01 3.27-.84.94-1.78 1.68-2.82 2.22-1.02.56-2.04.84-3.06.84Zm10.68-.54c-.44 0-.76-.34-.96-1.02-.18-.68-.27-1.47-.27-2.37 0-.92.15-2.03.45-3.33.32-1.3.74-2.67 1.26-4.11.54-1.44 1.13-2.85 1.77-4.23.66-1.38 1.33-2.63 2.01-3.75.7-1.14 1.36-2.05 1.98-2.73.64-.68 1.2-1.02 1.68-1.02.42 0 .74.23.96.69.22.46.33.94.33 1.44 0 .54-.13 1.21-.39 2.01-.24.78-.58 1.62-1.02 2.52-.44.9-.96 1.79-1.56 2.67-.58.86-1.22 1.65-1.92 2.37-.68.72-1.39 1.3-2.13 1.74-.26.68-.47 1.32-.63 1.92a13.343 13.343 0 0 0-.39 3.18v.33c.02.1.03.2.03.3.08-.12.21-.43.39-.93.18-.5.42-1.08.72-1.74.32-.68.71-1.34 1.17-1.98.46-.66 1-1.2 1.62-1.62.62-.44 1.33-.66 2.13-.66.68 0 1.21.16 1.59.48.38.3.65.68.81 1.14.16.44.24.89.24 1.35 0 .64-.11 1.24-.33 1.8-.2.56-.41 1.09-.63 1.59-.2.48-.3.94-.3 1.38 0 .36.08.61.24.75.16.14.35.21.57.21.44 0 .95-.22 1.53-.66.6-.44 1.19-1.02 1.77-1.74.6-.74 1.11-1.55 1.53-2.43l.48.51c-.46 1-1 1.92-1.62 2.76-.62.84-1.3 1.51-2.04 2.01-.74.5-1.54.75-2.4.75-.76 0-1.34-.2-1.74-.6-.4-.4-.6-.9-.6-1.5 0-.42.07-.88.21-1.38.16-.52.31-1.04.45-1.56s.21-.99.21-1.41c0-.48-.11-.81-.33-.99-.2-.18-.45-.27-.75-.27-.5 0-.95.2-1.35.6-.4.38-.76.88-1.08 1.5-.32.62-.62 1.28-.9 1.98-.28.68-.56 1.33-.84 1.95-.28.62-.58 1.12-.9 1.5-.3.4-.65.6-1.05.6Zm2.82-11.04c.52-.46 1.02-1.01 1.5-1.65.48-.64.92-1.3 1.32-1.98.42-.7.78-1.37 1.08-2.01.32-.66.57-1.25.75-1.77.18-.52.28-.92.3-1.2V4.4c-.12 0-.38.25-.78.75-.38.48-.83 1.14-1.35 1.98-.5.82-1.01 1.75-1.53 2.79-.5 1.04-.93 2.1-1.29 3.18Zm15.004 11.31c-.66 0-1.23-.22-1.71-.66-.5-.44-.75-1.1-.75-1.98 0-.7.16-1.46.48-2.28.32-.82.76-1.63 1.32-2.43.56-.8 1.2-1.52 1.92-2.16.72-.66 1.49-1.19 2.31-1.59.82-.4 1.64-.6 2.46-.6.86 0 1.59.22 2.19.66.6.44.9 1.02.9 1.74 0 .54-.19.93-.57 1.17-.38.24-.83.31-1.35.21.04-.18.07-.36.09-.54.04-.18.06-.37.06-.57 0-.4-.08-.76-.24-1.08-.16-.32-.5-.48-1.02-.48-.56 0-1.13.19-1.71.57-.58.38-1.14.88-1.68 1.5-.52.6-.99 1.27-1.41 2.01-.42.72-.75 1.43-.99 2.13s-.36 1.33-.36 1.89c0 .64.23.96.69.96.46 0 .97-.22 1.53-.66.56-.46 1.12-1.03 1.68-1.71.58-.68 1.13-1.37 1.65-2.07.52-.72.97-1.33 1.35-1.83.06-.1.14-.15.24-.15.08.02.23.07.45.15.24.06.46.16.66.3.2.14.3.32.3.54 0 .2-.09.46-.27.78-.16.3-.36.64-.6 1.02-.22.36-.42.73-.6 1.11-.16.36-.24.71-.24 1.05 0 .26.07.51.21.75.14.22.37.33.69.33.48 0 1.15-.35 2.01-1.05.88-.72 1.77-1.93 2.67-3.63l.57.57a12.83 12.83 0 0 1-1.74 2.88c-.66.82-1.36 1.46-2.1 1.92-.74.48-1.49.72-2.25.72-.82 0-1.43-.26-1.83-.78-.4-.52-.62-1.08-.66-1.68v-.15c-.8.96-1.54 1.72-2.22 2.28-.66.56-1.37.84-2.13.84Zm24.46-.81c-.78 0-1.38-.2-1.8-.6-.4-.38-.6-.87-.6-1.47 0-.4.07-.82.21-1.26l.42-1.38c.14-.46.21-.9.21-1.32 0-.44-.11-.74-.33-.9-.2-.18-.44-.27-.72-.27-.6 0-1.22.25-1.86.75-.62.48-1.23 1.09-1.83 1.83-.58.74-1.13 1.51-1.65 2.31s-.97 1.52-1.35 2.16c-.38 0-.74-.07-1.08-.21-.34-.12-.63-.34-.87-.66.02-.1.14-.4.36-.9.2-.52.43-1.13.69-1.83.26-.72.49-1.47.69-2.25.2-.78.3-1.49.3-2.13.14-.16.35-.32.63-.48.3-.16.61-.24.93-.24.7 0 1.05.3 1.05.9 0 .24-.05.6-.15 1.08-.08.46-.2.99-.36 1.59.52-.7 1.09-1.36 1.71-1.98.62-.62 1.26-1.12 1.92-1.5.68-.4 1.36-.6 2.04-.6.86 0 1.49.29 1.89.87.42.58.63 1.22.63 1.92 0 .6-.1 1.16-.3 1.68-.2.52-.4 1.01-.6 1.47-.18.46-.27.91-.27 1.35 0 .32.07.55.21.69.16.12.33.18.51.18.48 0 .98-.23 1.5-.69.52-.46 1.01-1.04 1.47-1.74.48-.72.9-1.44 1.26-2.16l.51.42c-.42.98-.9 1.88-1.44 2.7-.52.8-1.11 1.45-1.77 1.95-.64.48-1.36.72-2.16.72Zm9.5.78c-.88 0-1.59-.26-2.13-.78-.54-.52-.81-1.31-.81-2.37 0-.82.15-1.84.45-3.06.32-1.22.72-2.48 1.2-3.78-.14-.04-.31-.07-.51-.09-.18-.04-.36-.1-.54-.18v-.93c.32.04.58.07.78.09l.66.06c.42-1.06.87-2.08 1.35-3.06.5-1 .99-1.89 1.47-2.67.5-.78.97-1.39 1.41-1.83.44-.46.83-.69 1.17-.69.2 0 .39.08.57.24.18.14.27.35.27.63 0 .4-.21.97-.63 1.71-.4.74-.9 1.61-1.5 2.61-.6.98-1.18 2.03-1.74 3.15H355.108c.88 0 1.67-.01 2.37-.03.72-.04 1.45-.1 2.19-.18v.99c-1.1.1-2.11.18-3.03.24-.92.06-1.8.1-2.64.12h-.36c-.42.98-.79 1.99-1.11 3.03a10.6 10.6 0 0 0-.45 3c0 .82.13 1.4.39 1.74.26.34.67.51 1.23.51 1 0 2.02-.45 3.06-1.35 1.06-.92 1.98-2.16 2.76-3.72l.42.3c-.52 1.18-1.17 2.25-1.95 3.21-.76.96-1.59 1.71-2.49 2.25-.9.56-1.83.84-2.79.84Zm12.092-.06c-1.28 0-2.27-.35-2.97-1.05-.68-.68-1.02-1.54-1.02-2.58 0-.88.22-1.81.66-2.79.46-1 1.07-1.93 1.83-2.79.76-.88 1.6-1.59 2.52-2.13.92-.54 1.84-.81 2.76-.81.52 0 1.01.14 1.47.42.48.26.72.79.72 1.59 0 .76-.22 1.47-.66 2.13-.44.66-1.03 1.25-1.77 1.77s-1.56.95-2.46 1.29c-.88.32-1.77.53-2.67.63-.02.08-.04.17-.06.27v.42c0 .1.01.28.03.54.04.24.13.5.27.78s.37.52.69.72c.32.2.76.3 1.32.3.84 0 1.68-.23 2.52-.69.86-.48 1.66-1.11 2.4-1.89.76-.78 1.39-1.65 1.89-2.61l.6.48a11.12 11.12 0 0 1-2.1 3.15c-.84.9-1.78 1.6-2.82 2.1-1.02.5-2.07.75-3.15.75Zm-1.26-5.43c.52-.06 1.1-.24 1.74-.54.64-.3 1.25-.68 1.83-1.14.6-.46 1.09-.96 1.47-1.5.38-.56.57-1.12.57-1.68 0-.22-.04-.37-.12-.45-.08-.08-.21-.12-.39-.12-.46 0-.94.17-1.44.51-.5.32-.99.75-1.47 1.29-.48.52-.91 1.1-1.29 1.74-.38.64-.68 1.27-.9 1.89Zm6.42-8.46c-.26-.1-.45-.26-.57-.48-.1-.24-.15-.41-.15-.51 0-.16.1-.42.3-.78.2-.38.46-.77.78-1.17.32-.42.65-.77.99-1.05.36-.3.7-.45 1.02-.45.22 0 .41.08.57.24.18.14.29.41.33.81-.7.68-1.32 1.28-1.86 1.8-.52.5-.99 1.03-1.41 1.59Zm7.765 13.89c-1.28 0-2.27-.35-2.97-1.05-.68-.68-1.02-1.54-1.02-2.58 0-.88.22-1.81.66-2.79.46-1 1.07-1.93 1.83-2.79.76-.88 1.6-1.59 2.52-2.13.92-.54 1.84-.81 2.76-.81.52 0 1.01.14 1.47.42.48.26.72.79.72 1.59 0 .76-.22 1.47-.66 2.13-.44.66-1.03 1.25-1.77 1.77s-1.56.95-2.46 1.29c-.88.32-1.77.53-2.67.63-.02.08-.04.17-.06.27v.42c0 .1.01.28.03.54.04.24.13.5.27.78s.37.52.69.72c.32.2.76.3 1.32.3.84 0 1.68-.23 2.52-.69.86-.48 1.66-1.11 2.4-1.89.76-.78 1.39-1.65 1.89-2.61l.6.48a11.12 11.12 0 0 1-2.1 3.15c-.84.9-1.78 1.6-2.82 2.1-1.02.5-2.07.75-3.15.75Zm-1.26-5.43c.52-.06 1.1-.24 1.74-.54.64-.3 1.25-.68 1.83-1.14.6-.46 1.09-.96 1.47-1.5.38-.56.57-1.12.57-1.68 0-.22-.04-.37-.12-.45-.08-.08-.21-.12-.39-.12-.46 0-.94.17-1.44.51-.5.32-.99.75-1.47 1.29-.48.52-.91 1.1-1.29 1.74-.38.64-.68 1.27-.9 1.89Z" fill="#0F2627"/><path fill-rule="evenodd" clip-rule="evenodd" d="M40.005 28.648H2.003v-1.32h38.002v1.32Z" fill="url('#paint0_radial_16_4')"/><path d="M17.884 9.085c3.005 4.847 3.49 10.231 3.081 14.063-1.813-5.87-6.027-10.58-11.419-13.202-.174-1.127-.216-2.765-.14-4.402.068-1.464.229-2.887.458-3.906 3.62 1.984 6.152 4.516 7.882 7.228a.437.437 0 0 0 .135.217l.003.002ZM31.945 1.148c1.114 3.97.695 7.462.32 8.829-4.537 2.354-8.269 6.353-10.301 11.217a24.565 24.565 0 0 0-.617-5.928c.46-2.253 1.325-4.367 2.423-6.25a.435.435 0 0 0 .05-.086 22.735 22.735 0 0 1 2.062-2.941c1.943-2.35 4.155-4.05 6.063-4.841Z" fill="#1C959C"/><path d="M22.87 8.814c-.617-.596-1.353-.882-2.076-.882-.713 0-1.44.28-2.053.86a21.653 21.653 0 0 1 2.13 4.73 21.99 21.99 0 0 1 2-4.708Z" fill="#1E4C4F"/><path fill-rule="evenodd" clip-rule="evenodd" d="M21.488 3.295a.589.589 0 1 1-1.178 0 .589.589 0 0 1 1.178 0Zm.88 0a1.47 1.47 0 1 1-2.938 0 1.47 1.47 0 0 1 2.938 0ZM20.9.525a.25.25 0 1 0 0 .502.25.25 0 0 0 0-.501Zm0 .88a.63.63 0 1 0 0-1.258.63.63 0 0 0 0 1.259Z" fill="#1C959C"/><path d="M21.606 25.3c8.019-.266 12.846-4.481 15.693-8.689 1.456-2.151 2.391-4.3 2.963-5.911a24.281 24.281 0 0 0 .65-2.13c-9.107.28-17.364 7.409-19.306 16.73ZM20.61 25.312l.003-.008c-1.933-9.3-9.99-16.061-19.508-16.71l.048.18c.128.477.33 1.161.626 1.983.59 1.645 1.553 3.833 3.035 6.01 2.9 4.262 7.777 8.476 15.797 8.545Z" fill="#1E4C4F"/><defs><radialGradient id="paint0_radial_16_4" cx="0" cy="0" r="1" gradientUnits="userSpaceOnUse" gradientTransform="matrix(21 0 0 12343.7 21 28.648)"><stop stop-color="#1E4C4F"/><stop offset=".683" stop-color="#1E4C4F" stop-opacity=".08"/><stop offset=".927" stop-color="#7C5460" stop-opacity=".018"/><stop offset="1" stop-color="#7C5460" stop-opacity="0"/></radialGradient></defs></svg>