<svg width="196" height="123" fill="none" xmlns="http://www.w3.org/2000/svg"><path fill-rule="evenodd" clip-rule="evenodd" d="M99.377 2.993a1.993 1.993 0 1 1-3.985 0 1.993 1.993 0 0 1 3.985 0Zm1 0a2.993 2.993 0 1 1-5.985 0 2.993 2.993 0 0 1 5.985 0Zm51.357-1.144-.152-.496-.491.171c-10.088 3.531-21.881 12.329-32.019 24.595a110.52 110.52 0 0 0-9.81 13.935c-3.51-3.746-7.934-5.637-12.376-5.637-4.421 0-8.824 1.873-12.325 5.583-8.8-13.785-21.857-26.618-40.764-36.453l-.538-.28-.172.582c-1.52 5.132-2.536 13.363-2.923 21.686-.369 7.922-.171 15.984.72 21.602A106.256 106.256 0 0 0 .636 37.411L0 37.385l.125.624.49-.098c-.49.098-.49.099-.49.1v.003l.003.012.01.048.04.185c.035.163.088.404.16.717.145.626.368 1.542.68 2.706.625 2.328 1.608 5.65 3.04 9.632 2.862 7.962 7.524 18.571 14.725 29.153 14.407 21.172 38.99 42.246 79.606 41.745 40.608-.502 64.938-21.571 79.096-42.495 7.076-10.456 11.613-20.879 14.382-28.685a118.31 118.31 0 0 0 2.926-9.434c.299-1.14.511-2.035.649-2.647a41.463 41.463 0 0 0 .189-.882l.01-.047.002-.012.001-.003c0-.001 0-.002-.491-.096l.491.094.114-.594h-.605c-14.422 0-28.449 3.526-41.194 9.813 1.961-7.329 3.951-25.305-2.225-45.375Zm1.021 45.979a.505.505 0 0 1 .018-.085c1.953-6.51 4.321-24.654-1.842-45.1-9.759 3.565-21.192 12.14-31.089 24.114a109.803 109.803 0 0 0-10.008 14.293.496.496 0 0 1-.116.198c-5.383 9.21-9.617 19.574-11.835 30.639 3.444 14.69 3.552 28.736 2.146 39.808 8.064-27.968 27.872-51.188 52.726-63.867Zm-54.603 69.348c3.53-18.496 2.889-48.893-13.913-75.805a.5.5 0 0 1-.322-.51C75.281 27.217 62.458 14.498 43.878 4.717c-1.394 5.05-2.343 12.88-2.715 20.863-.383 8.224-.15 16.545.821 22.073 27.83 13.275 49.072 38.36 56.168 69.522Zm-.5 2.421c-.123.554-.25 1.095-.381 1.623-39.533.105-63.519-20.532-77.662-41.316C12.47 69.411 7.841 58.882 5 50.976a121.739 121.739 0 0 1-3.014-9.553 81.069 81.069 0 0 1-.744-2.984c46.973 2.244 87.054 35.345 96.411 81.158Zm.65 1.616.041-.169.057-.236h.474c8.896-46.458 50.268-82.075 95.663-82.395l-.034.153-.037.165a77.73 77.73 0 0 1-.64 2.613 117.556 117.556 0 0 1-2.901 9.353c-2.749 7.75-7.252 18.091-14.268 28.46-14.025 20.727-38.081 41.558-78.28 42.055l-.075.001Zm-1.416-85.796c4.231 0 8.48 1.834 11.846 5.538-5.045 8.676-9.08 18.364-11.397 28.699-2.46-9.585-6.368-19.392-12.222-28.78 3.354-3.65 7.573-5.457 11.773-5.457Zm.499-14.47a5.983 5.983 0 1 0 0-11.966 5.983 5.983 0 0 0 0 11.967Zm0 1a6.984 6.984 0 1 0 0-13.966 6.984 6.984 0 0 0 0 13.967Z" fill="#4F1F00" fill-opacity=".3"/></svg>