<svg width="251" height="219" fill="none" xmlns="http://www.w3.org/2000/svg"><path fill-rule="evenodd" clip-rule="evenodd" d="M178.006 5.352a4.352 4.352 0 1 1-8.704-.001 4.352 4.352 0 0 1 8.704 0Zm1 0a5.352 5.352 0 1 1-10.704 0 5.352 5.352 0 0 1 10.704 0Zm91.457-1.93-.153-.496-.49.171c-17.951 6.283-38.983 21.961-57.082 43.86a197.548 197.548 0 0 0-17.777 25.322c-6.262-6.882-14.221-10.341-22.199-10.341-7.935 0-15.852 3.422-22.099 10.232-15.706-24.761-39.079-47.825-73.014-65.478l-.538-.28-.173.582c-2.704 9.132-4.518 23.812-5.21 38.684-.675 14.505-.287 29.253 1.404 39.282C50.883 74.554 26.32 68.36.636 67.29L0 67.265l.125.624.49-.098c-.405.081-.475.096-.487.1H.125l.001.006.005.022.017.084.07.329c.062.289.157.717.286 1.275.258 1.115.656 2.749 1.214 4.826 1.114 4.154 2.867 10.084 5.423 17.192 5.11 14.216 13.434 33.155 26.286 52.041 25.71 37.783 69.558 75.369 142.018 74.474 72.453-.894 115.85-38.475 141.115-75.813 12.628-18.664 20.729-37.268 25.673-51.205 2.472-6.97 4.155-12.774 5.221-16.838.533-2.032.911-3.63 1.157-4.72.123-.545.212-.963.271-1.246l.066-.32v-.001l.016-.082.004-.021.001-.006a9.708 9.708 0 0 0-.49-.097l.491.095.114-.595h-.605c-26.024 0-51.328 6.438-74.276 17.898 3.555-12.446 7.527-45.148-3.74-81.766Zm2.607 82.337a.51.51 0 0 1 .004-.273c3.526-11.752 7.781-44.47-3.414-81.271-17.621 6.317-38.293 21.772-56.152 43.379a196.578 196.578 0 0 0-17.959 25.657.496.496 0 0 1-.154.263c-9.671 16.535-17.275 35.149-21.251 55.027l-.002.008c6.887 29.315 6.328 57.203 2.863 77.841 13.112-52.912 49.687-97.053 96.065-120.63Zm-98.02 125.69c6.726-32.97 6.105-88.65-24.649-137.81a.5.5 0 0 1-.412-.656C134.447 48.38 111.315 25.449 77.728 7.862c-2.577 9.052-4.325 23.332-5 37.863-.69 14.816-.264 29.83 1.509 39.756 50.293 23.924 88.56 69.452 100.813 125.968Zm-.515 2.413c-.25 1.127-.509 2.225-.776 3.291-71.039.296-114.126-36.755-139.505-74.05-12.792-18.799-21.081-37.657-26.172-51.817-2.545-7.08-4.29-12.982-5.399-17.113-.554-2.066-.949-3.688-1.205-4.793-.101-.436-.18-.792-.24-1.062 84.417 3.803 156.525 63.229 173.297 145.544Zm.257 3.284.153-.627.137-.57h.848c15.973-83.414 90.37-147.338 171.936-147.658a96.79 96.79 0 0 1-.231 1.053c-.243 1.08-.619 2.665-1.148 4.685-1.06 4.04-2.735 9.818-5.197 16.757-4.924 13.881-12.99 32.404-25.559 50.98-25.131 37.141-68.254 74.484-140.298 75.373l-.385.005-.256.002Zm-2.03-154.208c7.766 0 15.55 3.402 21.668 10.245-9.336 16.001-16.749 33.939-20.837 53.087-4.383-17.702-11.511-35.867-22.376-53.222 6.099-6.752 13.832-10.11 21.545-10.11Zm.892-24.692c6.344 0 11.487-5.143 11.487-11.487s-5.143-11.487-11.487-11.487c-6.345 0-11.488 5.143-11.488 11.487s5.143 11.487 11.488 11.487Zm0 1c6.896 0 12.487-5.59 12.487-12.487s-5.591-12.487-12.487-12.487c-6.897 0-12.488 5.59-12.488 12.487s5.591 12.487 12.488 12.487Z" fill="#4F1F00" fill-opacity=".3"/></svg>